<?xml version="1.0" standalone="no"?>
<!DOCTYPE svg PUBLIC "-//W3C//DTD SVG 1.1//EN" "http://www.w3.org/Graphics/SVG/1.1/DTD/svg11.dtd" >
<svg xmlns="http://www.w3.org/2000/svg">
<metadata>
This is a custom SVG webfont generated by Font Squirrel.
Copyright   : Digitized data copyright  2007 Google Corporation
Foundry     : Ascender Corporation
Foundry URL : httpwwwascendercorpcom
</metadata>
<defs>
<font id="DroidSerifRegular" horiz-adv-x="1145" >
<font-face units-per-em="2048" ascent="1638" descent="-410" />
<missing-glyph horiz-adv-x="532" />
<glyph unicode=" "  horiz-adv-x="532" />
<glyph unicode="&#x09;" horiz-adv-x="532" />
<glyph unicode="&#xa0;" horiz-adv-x="532" />
<glyph unicode="!" horiz-adv-x="682" d="M211 125q0 40 10 66.5t27.5 42.5t41 23t50.5 7q26 0 49.5 -7t41 -23t28 -42.5t10.5 -66.5q0 -39 -10.5 -66t-28 -43t-41 -23t-49.5 -7q-27 0 -50.5 7t-41 23t-27.5 43t-10 66zM221 1462h238l-72 -1050h-94z" />
<glyph unicode="&#x22;" horiz-adv-x="836" d="M117 1462h217l-62 -481h-94zM502 1462h217l-62 -481h-94z" />
<glyph unicode="#" d="M82 416v121h190l78 401h-244v121h267l73 403h125l-75 -403h284l76 403h123l-76 -403h160v-121h-182l-76 -401h233v-121h-258l-78 -416h-122l77 416h-284l-78 -416h-123l78 416h-168zM397 537h285l76 401h-285z" />
<glyph unicode="$" d="M135 166v315h86q0 -57 21.5 -110.5t61 -96t94 -70t120.5 -32.5v506q-96 43 -162.5 85t-107.5 88.5t-59.5 100.5t-18.5 121q0 69 24.5 125t69.5 97.5t109.5 67t144.5 34.5v159h103v-155q92 -2 156.5 -20.5t105.5 -49t59.5 -71.5t18.5 -89q0 -66 -44 -99.5t-118 -33.5 q0 45 -7.5 90.5t-27 83t-54.5 63.5t-89 32v-478q92 -40 163 -80t119 -86.5t73 -103t25 -129.5q0 -154 -99 -239.5t-281 -104.5v-248h-103v244q-51 0 -103 4.5t-101.5 15t-95 26.5t-83.5 38zM354 1090q0 -43 10.5 -75.5t31.5 -57.5t51.5 -45t70.5 -38v429q-40 -9 -71 -28.5 t-51.5 -47t-31 -62.5t-10.5 -75zM621 178q92 16 142 74.5t50 146.5q0 41 -10 73.5t-33 60.5t-59.5 52t-89.5 48v-455z" />
<glyph unicode="%" horiz-adv-x="1835" d="M92 1030q0 103 19.5 186.5t60.5 143t105 91.5t153 32q84 0 146.5 -32t104 -91.5t62.5 -143t21 -186.5t-21 -187t-63 -144t-105 -93t-147 -33q-88 0 -151.5 33t-104.5 93t-60.5 144t-19.5 187zM276 1030q0 -88 8 -157.5t26 -117.5t47 -73t71 -25t71 25t46.5 73t25 117.5 t7.5 157.5q0 87 -7.5 155t-25 115.5t-45.5 72t-70 24.5t-71.5 -24.5t-48 -72t-26.5 -115.5t-8 -155zM481 0l731 1462h134l-730 -1462h-135zM1071 436q0 103 19.5 186.5t60.5 143t105 91.5t153 32q84 0 146.5 -32t104 -91.5t62.5 -143t21 -186.5t-21 -187t-63 -144 t-105 -92.5t-147 -32.5q-88 0 -152 32.5t-104.5 92.5t-60 144t-19.5 187zM1255 436q0 -88 8 -157.5t26 -117.5t47 -73t71 -25t71 25t46 73t24.5 117.5t7.5 157.5q0 87 -7.5 155t-24.5 115.5t-45 72t-70 24.5t-71.5 -24.5t-48 -72t-26.5 -115.5t-8 -155z" />
<glyph unicode="&#x26;" horiz-adv-x="1520" d="M74 410q0 87 23.5 151.5t66 113.5t103 86t134.5 68q-39 46 -68.5 88.5t-49 84.5t-29.5 86t-10 94q0 68 22 123t69 95t120.5 61.5t175.5 21.5q98 0 167 -23t112.5 -63t63 -93t19.5 -112q0 -66 -19 -117t-60.5 -94t-107 -81.5t-159.5 -78.5l373 -395q14 46 23 93.5t14.5 93 t7.5 89t2 80.5v80h369v-86h-19q-34 0 -67 -4t-61.5 -18.5t-51 -42t-35.5 -74.5q-18 -66 -41.5 -143t-58.5 -154l190 -203q15 -15 31 -25t37.5 -16t51 -8t71.5 -2h18v-86h-327l-170 180q-37 -42 -81.5 -78.5t-98.5 -63.5t-119.5 -42.5t-143.5 -15.5q-123 0 -214.5 31 t-152 87.5t-90.5 135.5t-30 176zM274 403q0 -75 22 -132.5t62.5 -97t96.5 -59.5t125 -20q60 0 111.5 12.5t94.5 34.5t79 52.5t65 66.5l-453 485q-47 -26 -84.5 -57.5t-64 -73t-40.5 -93.5t-14 -118zM434 1188q0 -39 8 -73t25.5 -67.5t44.5 -69.5t66 -79q60 26 104.5 55 t73.5 63.5t43 76.5t14 96q0 41 -10 76t-32.5 60.5t-59 40.5t-88.5 15q-91 0 -140 -53t-49 -141z" />
<glyph unicode="'" horiz-adv-x="451" d="M117 1462h217l-62 -481h-94z" />
<glyph unicode="(" horiz-adv-x="709" d="M117 649q0 185 29 328.5t92.5 253.5t163.5 189.5t241 135.5v-92q-105 -64 -167.5 -153.5t-94.5 -195.5t-41.5 -225t-9.5 -241t9.5 -241t41.5 -225.5t94.5 -196.5t167.5 -154v-94q-141 56 -241 136t-163.5 190.5t-92.5 255t-29 329.5z" />
<glyph unicode=")" horiz-adv-x="709" d="M66 -168q105 64 167 154t94.5 196.5t42 225.5t9.5 241t-9.5 241t-42 225t-94.5 195.5t-167 153.5v92q141 -56 241 -135.5t163 -189.5t92.5 -253.5t29.5 -328.5t-29.5 -329.5t-92.5 -255t-163 -190.5t-241 -136v94z" />
<glyph unicode="*" horiz-adv-x="1024" d="M84 1063l344 102l-344 103l72 162l315 -199l-53 325h178l-57 -323l317 192l72 -159l-346 -101l346 -100l-72 -158l-317 191l57 -324h-178l51 324l-313 -195z" />
<glyph unicode="+" d="M133 672v121h377v378h123v-378h379v-121h-379v-379h-123v379h-377z" />
<glyph unicode="," horiz-adv-x="512" d="M61 -229q101 32 148 78t47 106q0 20 -11 33.5t-28 24t-36 20.5t-36 24t-28 34.5t-11 51.5q0 59 38.5 90t95.5 31q32 0 60 -11.5t50 -34t34.5 -56t12.5 -76.5q0 -65 -18 -126t-58.5 -113t-104 -93.5t-155.5 -68.5v86z" />
<glyph unicode="-" horiz-adv-x="635" d="M51 481v154h533v-154h-533z" />
<glyph unicode="." horiz-adv-x="586" d="M164 125q0 40 10 66.5t27.5 42.5t41 23t50.5 7q26 0 49.5 -7t41 -23t28 -42.5t10.5 -66.5q0 -39 -10.5 -66t-28 -43t-41 -23t-49.5 -7q-27 0 -50.5 7t-41 23t-27.5 43t-10 66z" />
<glyph unicode="/" horiz-adv-x="590" d="M0 -248l471 1804h119l-469 -1804h-121z" />
<glyph unicode="0" d="M92 735q0 170 28 308t86.5 236t150 151t218.5 53q120 0 209.5 -53t149.5 -151t89.5 -236.5t29.5 -309.5q0 -169 -29.5 -308t-89.5 -238t-150 -153t-211 -54q-126 0 -217 54t-149.5 153t-86.5 238.5t-28 309.5zM305 733q0 -152 14 -271.5t45.5 -202t83 -126t125.5 -43.5 q75 0 126 43.5t82.5 126t45 202t13.5 271.5t-13.5 271t-45 201t-82 124.5t-124.5 42.5q-75 0 -126.5 -42.5t-83.5 -124.5t-46 -201t-14 -271z" />
<glyph unicode="1" d="M135 1206q31 8 62.5 19.5t67 30t77 45t92.5 63.5l144 106h131v-1237q0 -48 13 -77t36 -44.5t53.5 -20.5t65.5 -5h100v-86h-780v86h137q35 0 65.5 5t53 20.5t36 44.5t13.5 77v1076q-39 -48 -74 -87t-67 -67t-62.5 -43.5t-60.5 -15.5q-45 0 -74 30.5t-29 79.5z" />
<glyph unicode="2" d="M104 0v150l342 395q82 95 137.5 170t89.5 141.5t49 130t15 133.5q0 59 -12.5 106.5t-38 82t-65 53t-93.5 18.5q-70 0 -113.5 -25t-68.5 -67t-34 -97t-9 -116q-37 0 -69 6t-56 21.5t-37.5 41t-13.5 64.5q0 59 25.5 109.5t76 87.5t125.5 57.5t174 20.5q97 0 174 -24.5 t131 -69t82.5 -107.5t28.5 -141q0 -72 -23 -140t-67 -139.5t-107.5 -148.5t-144.5 -166l-346 -383h473q46 0 76 13t49 34t29.5 48.5t17.5 57.5l8 37h86l-10 -354h-881z" />
<glyph unicode="3" d="M119 207q0 62 35 96.5t94 34.5q0 -54 17.5 -99.5t50.5 -78.5t81.5 -51.5t110.5 -18.5q61 0 116 17t97 56t67 102t25 155q0 65 -25.5 117.5t-73.5 89.5t-117 57.5t-155 20.5h-65v104h65q68 0 126.5 22.5t102 63.5t68.5 99.5t25 131.5q0 60 -12 107t-38.5 80t-68 50 t-100.5 17q-70 0 -114 -25t-69 -67t-34 -97t-9 -116q-37 0 -69 6t-56 21.5t-37.5 41t-13.5 64.5q0 59 25.5 109.5t76.5 87.5t126 57.5t174 20.5q97 0 176 -22t135.5 -63.5t87.5 -102t31 -138.5q0 -69 -24.5 -130t-68.5 -110.5t-104 -84.5t-131 -52q38 -4 81 -13.5t85 -27.5 t80.5 -45t68 -66t47 -90.5t17.5 -119.5q0 -82 -22 -147t-60.5 -113.5t-89.5 -82.5t-109 -55t-119 -30.5t-120 -9.5q-101 0 -174 18.5t-120.5 49.5t-70 72.5t-22.5 86.5z" />
<glyph unicode="4" d="M35 401v84l633 977h194v-946h254v-115h-254v-168q0 -48 13.5 -77t36 -44.5t53.5 -20.5t65 -5h27v-86h-617v86h58q35 0 65.5 5t53 20.5t36 44.5t13.5 77v168h-631zM182 516h484v379q0 45 1 99t2.5 110t4 111.5t6.5 103.5q-7 -14 -20 -37.5t-29.5 -52.5t-35 -61t-37 -62.5 t-34.5 -57t-28 -44.5z" />
<glyph unicode="5" d="M113 186q0 57 31.5 89t97.5 32q0 -44 15.5 -82t46 -65.5t77 -43.5t108.5 -16q63 0 116.5 17.5t93 58t61.5 107t22 163.5q0 81 -22 141t-63 100t-98 59.5t-128 19.5q-53 0 -91.5 -4t-68 -10.5t-51.5 -14.5t-41 -16l-49 14l66 725h684l10 -309h-86l-8 61q-3 22 -8.5 37.5 t-17.5 26t-32.5 15.5t-52.5 5h-397l-39 -450q31 11 89.5 22t149.5 11q99 0 184.5 -27t148.5 -81t98.5 -135.5t35.5 -189.5q0 -104 -33.5 -190t-97 -147.5t-155.5 -95t-209 -33.5q-114 0 -188.5 19.5t-118.5 49.5t-62 66.5t-18 70.5z" />
<glyph unicode="6" d="M125 737q0 97 14.5 190t43.5 176t73 153t103.5 120.5t134.5 78.5t165 28q86 0 149.5 -18t105.5 -48t62.5 -69t20.5 -80q0 -59 -40 -91t-117 -32q0 50 -9.5 93.5t-31.5 76t-56 51t-84 18.5q-154 0 -233 -151.5t-90 -450.5q25 21 55.5 40.5t66.5 34t78.5 23.5t92.5 9 q94 0 170 -29t129.5 -83t82.5 -132t29 -176q0 -108 -29.5 -198t-86 -154.5t-138 -100.5t-186.5 -36q-102 0 -189 42.5t-150.5 134t-99.5 235t-36 345.5zM334 666q2 -154 21.5 -263t54.5 -178t85 -101t111 -32q110 0 167.5 85.5t57.5 271.5q0 175 -62.5 255t-180.5 80 q-40 0 -77 -10.5t-69.5 -27t-59.5 -38t-48 -42.5z" />
<glyph unicode="7" d="M121 1090l10 370h916v-59l-504 -1401h-154l483 1296h-538q-110 0 -119 -104l-8 -102h-86z" />
<glyph unicode="8" d="M94 367q0 74 23.5 129.5t65.5 99t99 78.5t124 67q-58 33 -107 71.5t-84 84.5t-54.5 100.5t-19.5 118.5q0 71 25 137t78 117t137.5 82t202.5 31q96 0 171 -26.5t126.5 -73.5t78.5 -111.5t27 -141.5q0 -67 -20 -118t-56 -91.5t-87 -73t-113 -63.5q76 -36 138.5 -77 t107.5 -89t69.5 -104t24.5 -123q0 -97 -35 -173.5t-99 -129.5t-155 -80.5t-203 -27.5q-115 0 -202 30t-145.5 82.5t-88 123t-29.5 151.5zM293 358q0 -64 17.5 -116t52 -89.5t86.5 -58t120 -20.5q67 0 121.5 20.5t93 56.5t59.5 86t21 109q0 52 -19 96.5t-62 86t-111.5 81 t-167.5 82.5q-97 -52 -154 -135t-57 -199zM334 1141q0 -55 17.5 -99t52 -80t86.5 -67.5t120 -63.5q58 29 95.5 59.5t59.5 67t31 80t9 97.5q0 47 -12.5 92t-40 80.5t-72 57t-109.5 21.5q-57 0 -101.5 -18.5t-74.5 -51t-45.5 -77.5t-15.5 -98z" />
<glyph unicode="9" d="M104 979q0 111 30 203.5t86.5 159t138 104t184.5 37.5q104 0 191 -40t151 -124t99.5 -214t35.5 -310q0 -107 -13.5 -209.5t-42 -193.5t-73 -167t-106 -131.5t-141.5 -86t-179 -30.5q-87 0 -144.5 15.5t-91 40.5t-47.5 57t-14 64q0 38 19 64t42 34q14 -32 34.5 -61.5 t50 -52t67.5 -35.5t86 -13q170 0 251 152t91 460q-22 -27 -51.5 -52t-67 -44.5t-83 -31t-99.5 -11.5q-89 0 -163.5 26t-128 78t-83 130t-29.5 182zM315 999q0 -84 15 -144t45 -98t74.5 -55.5t103.5 -17.5q50 1 91.5 14.5t73.5 36t55.5 52.5t37.5 63v4q-2 135 -22 232.5 t-55 160.5t-83.5 93t-107.5 30q-109 0 -168.5 -95t-59.5 -276z" />
<glyph unicode=":" horiz-adv-x="588" d="M166 125q0 40 10 66.5t27.5 42.5t41 23t50.5 7q26 0 49.5 -7t41 -23t28 -42.5t10.5 -66.5q0 -39 -10.5 -66t-28 -43t-41 -23t-49.5 -7q-27 0 -50.5 7t-41 23t-27.5 43t-10 66zM166 969q0 40 10 66.5t27.5 42.5t41 23t50.5 7q26 0 49.5 -7t41 -23t28 -42.5t10.5 -66.5 q0 -39 -10.5 -66t-28 -43.5t-41 -23.5t-49.5 -7q-27 0 -50.5 7t-41 23.5t-27.5 43.5t-10 66z" />
<glyph unicode=";" horiz-adv-x="512" d="M61 -229q101 32 148 78t47 106q0 20 -11 33.5t-28 24t-36 20.5t-36 24t-28 34.5t-11 51.5q0 59 38.5 90t95.5 31q32 0 60 -11.5t50 -34t34.5 -56t12.5 -76.5q0 -65 -18 -126t-58.5 -113t-104 -93.5t-155.5 -68.5v86zM129 969q0 40 10 66.5t27.5 42.5t41 23t50.5 7 q26 0 49.5 -7t41 -23t28 -42.5t10.5 -66.5q0 -39 -10.5 -66t-28 -43.5t-41 -23.5t-49.5 -7q-27 0 -50.5 7t-41 23.5t-27.5 43.5t-10 66z" />
<glyph unicode="&#x3c;" d="M133 696v72l879 473v-137l-688 -373l688 -369v-137z" />
<glyph unicode="=" d="M133 469v121h879v-121h-879zM133 872v121h879v-121h-879z" />
<glyph unicode="&#x3e;" d="M133 225v137l688 369l-688 373v137l879 -473v-72z" />
<glyph unicode="?" horiz-adv-x="1024" d="M88 1253q0 49 22.5 91t70 73t119.5 48.5t171 17.5q97 0 179 -25t142 -72.5t94 -116.5t34 -157q0 -84 -26.5 -153t-77.5 -126t-125 -104t-169 -86v-231h-125v311q89 36 149.5 83.5t97 103t52 116t15.5 121.5q0 53 -13 96.5t-40 74t-69.5 47.5t-101.5 17q-64 0 -107.5 -21 t-70.5 -57t-39 -83.5t-12 -100.5q-37 0 -68 8.5t-53.5 25t-35.5 41.5t-13 58zM328 125q0 40 10 66.5t27.5 42.5t41 23t50.5 7q26 0 49.5 -7t41 -23t28 -42.5t10.5 -66.5q0 -39 -10.5 -66t-28 -43t-41 -23t-49.5 -7q-27 0 -50.5 7t-41 23t-27.5 43t-10 66z" />
<glyph unicode="@" horiz-adv-x="1886" d="M133 446q0 145 31.5 276.5t91 244.5t144 204.5t190.5 156t230.5 99.5t264.5 35q172 0 302 -51t217 -139.5t130.5 -209t43.5 -259.5q0 -148 -36 -267.5t-94 -203.5t-129.5 -129t-142.5 -45q-91 0 -151.5 49t-89.5 137h-11q-21 -40 -47.5 -74t-60 -59t-75 -39t-93.5 -14 q-62 0 -118.5 21t-99 64t-68 109t-25.5 156q0 55 12.5 119t39 127.5t68 123t99.5 105t133.5 73t169.5 27.5q66 0 113.5 -18t78.5 -43l82 43h49l-104 -522q-3 -24 -7 -48q-3 -20 -5 -44t-2 -45q0 -36 10.5 -62.5t27.5 -44t39.5 -25.5t47.5 -8q45 0 92 36t85 105.5t62.5 170.5 t24.5 231q0 134 -43 236.5t-119.5 172t-183 105t-234.5 35.5q-100 0 -196.5 -28t-182.5 -82.5t-159.5 -133t-126.5 -179t-83 -222.5t-30 -262q0 -171 49 -291.5t132.5 -197t194 -111.5t234.5 -35q84 0 159 14.5t140.5 38.5t121 54.5t99.5 62.5l48 -74q-51 -38 -114 -74.5 t-136.5 -65t-158 -46t-179.5 -17.5q-165 0 -303 45.5t-237.5 137.5t-155.5 230t-56 324zM727 479q0 -108 43.5 -160.5t112.5 -52.5q52 0 90 22.5t64 58.5t42 82t25 93l78 416q-13 29 -45.5 45t-69.5 16q-61 0 -110.5 -26.5t-87 -69.5t-64.5 -98.5t-44.5 -113.5t-25.5 -113 t-8 -99z" />
<glyph unicode="A" horiz-adv-x="1444" d="M0 0v86h39q30 0 51 6.5t38 24.5t32.5 49t34.5 80l454 1216h160l463 -1267q12 -32 24.5 -53t29.5 -33.5t39 -17.5t52 -5h27v-86h-563v86h47q123 0 123 98q0 17 -4.5 35t-12.5 41l-82 229h-538l-78 -215q-9 -24 -14 -47.5t-5 -40.5q0 -52 33.5 -76t102.5 -24h47v-86h-500z M453 592h462l-127 358q-32 91 -58.5 170.5t-43.5 153.5q-7 -37 -16.5 -71.5t-20.5 -70.5t-25 -75.5t-32 -87.5z" />
<glyph unicode="B" horiz-adv-x="1339" d="M78 0v86h26q35 0 65.5 5t53.5 20.5t36 44.5t13 77v1004q0 45 -13.5 72.5t-36.5 42.5t-53.5 19.5t-64.5 4.5h-26v86h549q266 0 396 -88.5t130 -277.5q0 -69 -19.5 -121t-53.5 -91t-80.5 -65.5t-100.5 -44.5v-8q70 -12 128 -41t99.5 -75.5t64.5 -110t23 -144.5 q0 -198 -130 -296.5t-396 -98.5h-610zM479 102h199q87 0 147 16t98 51.5t55 92.5t17 139q0 80 -15 139t-51.5 98t-96.5 58t-150 19h-203v-613zM479 817h142q90 0 150 16t96 49.5t51.5 86.5t15.5 127q0 75 -17 125.5t-55 81.5t-98.5 44t-147.5 13h-137v-543z" />
<glyph unicode="C" horiz-adv-x="1257" d="M117 733q0 166 42 304t124.5 237t205.5 154t285 55q105 0 182.5 -17.5t129 -48.5t77 -73t25.5 -91q0 -33 -13.5 -59.5t-37.5 -45t-56.5 -28.5t-70.5 -10q0 48 -12.5 95t-41 84.5t-74 61t-112.5 23.5q-116 0 -197 -42.5t-132 -124t-74 -201t-23 -273.5q0 -137 24 -251 t76 -195.5t132.5 -126.5t193.5 -45q75 0 132.5 14.5t101.5 38.5t77.5 55.5t59.5 65.5q17 -11 28 -30t11 -50q0 -39 -26.5 -79.5t-80.5 -73.5t-137 -54.5t-197 -21.5q-153 0 -269 54t-194.5 153t-118.5 238t-40 308z" />
<glyph unicode="D" horiz-adv-x="1489" d="M78 0v86h26q35 0 65.5 5t53.5 20.5t36 44.5t13 77v1004q0 45 -13.5 72.5t-36.5 42.5t-53.5 19.5t-64.5 4.5h-26v86h627q158 0 282 -48.5t209.5 -141.5t130.5 -229t45 -310q0 -168 -42 -303.5t-125 -231t-208 -147t-292 -51.5h-627zM479 104h178q122 0 213.5 41.5 t152.5 121.5t91.5 197t30.5 269q0 305 -121.5 466t-364.5 161h-180v-1256z" />
<glyph unicode="E" horiz-adv-x="1276" d="M78 0v86h26q34 0 64.5 4.5t53.5 18.5t36.5 41.5t13.5 72.5v1006q0 48 -13 77t-36 44.5t-53.5 20.5t-65.5 5h-26v86h1032l10 -358h-106l-10 88q-4 34 -15.5 64.5t-33 53.5t-54 36.5t-78.5 13.5h-344v-545h494v-100h-494v-613h395q49 0 83.5 13.5t57.5 36.5t36 53.5 t18 64.5l14 88h107l-14 -358h-1098z" />
<glyph unicode="F" horiz-adv-x="1208" d="M78 0v86h26q34 0 64.5 4.5t53.5 18.5t36.5 41.5t13.5 72.5v1014q0 45 -13.5 72.5t-36.5 42.5t-53.5 19.5t-64.5 4.5h-26v86h1032l10 -358h-106l-10 88q-4 35 -16 65.5t-34.5 53t-56.5 36t-82 13.5h-336v-592h494v-100h-494v-435q0 -48 13.5 -77t36 -44.5t53.5 -20.5 t65 -5h68v-86h-637z" />
<glyph unicode="G" horiz-adv-x="1462" d="M117 733q0 166 45.5 304t136 237t224.5 154t311 55q114 0 198.5 -17.5t141 -48.5t84.5 -73t28 -91q0 -33 -15 -59.5t-40.5 -45t-60 -28.5t-74.5 -10q0 48 -14 95t-46 84.5t-84 61t-127 23.5q-130 0 -221.5 -42.5t-149.5 -124t-84 -201t-26 -273.5q0 -153 27 -272t88 -200 t158 -123t237 -42q59 0 114.5 6t98.5 19v330q0 45 -13.5 72.5t-36.5 42t-53.5 19.5t-64.5 5h-8v86h532v-86h-8q-29 0 -55 -5t-45 -20.5t-30 -45t-11 -77.5v-368q-103 -48 -212 -71t-241 -23q-178 0 -310.5 54t-220 153t-130.5 238t-43 308z" />
<glyph unicode="H" horiz-adv-x="1624" d="M78 0v86h26q35 0 65.5 5t53.5 20.5t36 44.5t13 77v1004q0 45 -13.5 72.5t-36.5 42.5t-53.5 19.5t-64.5 4.5h-26v86h596v-86h-27q-34 0 -65 -5t-53.5 -20.5t-36 -44.5t-13.5 -77v-414h666v414q0 48 -13.5 77t-36 44.5t-53 20.5t-65.5 5h-27v86h596v-86h-26q-35 0 -65.5 -5 t-53.5 -20.5t-36 -44.5t-13 -77v-1006q0 -45 13.5 -72.5t36.5 -41.5t53.5 -18.5t64.5 -4.5h26v-86h-596v86h27q35 0 65.5 5t53 20.5t36 44.5t13.5 77v480h-666v-480q0 -48 13.5 -77t36 -44.5t53.5 -20.5t65 -5h27v-86h-596z" />
<glyph unicode="I" horiz-adv-x="752" d="M78 0v86h26q35 0 65.5 5t53.5 20.5t36 44.5t13 77v996q0 48 -13 77t-36 44.5t-53.5 20.5t-65.5 5h-26v86h596v-86h-27q-34 0 -65 -5t-53.5 -20.5t-36 -44.5t-13.5 -77v-996q0 -48 13.5 -77t36 -44.5t53.5 -20.5t65 -5h27v-86h-596z" />
<glyph unicode="J" horiz-adv-x="731" d="M-23 -395h19q66 0 117.5 18.5t86.5 62t53.5 116t18.5 180.5v1255q0 45 -13.5 72.5t-36.5 42.5t-53.5 19.5t-64.5 4.5h-26v86h596v-86h-27q-34 0 -65 -5t-53.5 -20.5t-36 -44.5t-13.5 -77v-1245q0 -138 -36 -229.5t-99 -146t-148.5 -77.5t-183.5 -23h-35v97z" />
<glyph unicode="K" horiz-adv-x="1434" d="M78 0v86h26q34 0 64.5 4.5t53.5 18.5t36.5 41.5t13.5 72.5v1014q0 45 -13.5 72.5t-36.5 42.5t-53.5 19.5t-64.5 4.5h-26v86h596v-86h-27q-34 0 -65 -5t-53.5 -20.5t-36 -44.5t-13.5 -77v-578l424 486q33 38 55 67.5t34.5 53.5t18 42t5.5 33q0 26 -25 35.5t-76 9.5v84h453 v-84q-35 0 -67.5 -13.5t-65 -38t-67 -60t-74.5 -80.5l-297 -334l432 -602q59 -81 113.5 -122.5t111.5 -41.5h4v-86h-22q-103 0 -169 8t-111 29t-78.5 56.5t-71.5 90.5l-353 506l-174 -141v-316q0 -48 13.5 -77t36 -44.5t53.5 -20.5t65 -5h27v-86h-596z" />
<glyph unicode="L" horiz-adv-x="1276" d="M78 0v86h26q35 0 65.5 5t53.5 20.5t36 44.5t13 77v996q0 48 -13 77t-36 44.5t-53.5 20.5t-65.5 5h-26v86h596v-86h-27q-34 0 -64.5 -4.5t-53.5 -19.5t-36.5 -42.5t-13.5 -72.5v-1135h404q46 0 78.5 16.5t53.5 43t32.5 59.5t15.5 66l20 153h107l-14 -440h-1098z" />
<glyph unicode="M" horiz-adv-x="1921" d="M78 0v86h26q34 0 64.5 4.5t53.5 18.5t36.5 41.5t13.5 72.5v1014q0 45 -13.5 72.5t-36.5 42.5t-53.5 19.5t-64.5 4.5h-26v86h467l424 -1171l420 1171h454v-86h-26q-35 0 -65.5 -5t-53.5 -20.5t-36 -44.5t-13 -77v-996q0 -48 13 -77t36 -44.5t53.5 -20.5t65.5 -5h26v-86 h-545v86h7q33 0 59.5 4.5t45 18t29.5 39t13 67.5v1094l-469 -1309h-111l-475 1305v-1072q0 -48 10 -77t29.5 -44.5t47 -20.5t61.5 -5h6v-86h-473z" />
<glyph unicode="N" horiz-adv-x="1563" d="M78 0v86h26q35 0 65.5 5t53.5 20.5t36 44.5t13 77v1004q0 45 -13.5 72.5t-36.5 42.5t-53.5 19.5t-64.5 4.5h-26v86h375l733 -1132v907q0 45 -13.5 72.5t-36.5 42.5t-53.5 19.5t-64.5 4.5h-27v86h514v-86h-26q-35 0 -65.5 -5t-53.5 -20.5t-36 -44.5t-13 -77v-1229h-146 l-768 1180v-947q0 -48 13.5 -77t36 -44.5t53.5 -20.5t65 -5h27v-86h-514z" />
<glyph unicode="O" horiz-adv-x="1520" d="M115 735q0 170 40 308.5t120 236.5t202 151.5t285 53.5q155 0 274 -53.5t201 -152t124 -237t42 -309.5q0 -169 -42 -308t-124 -238t-202 -153t-275 -54q-163 0 -284 54t-201 153t-120 238.5t-40 309.5zM342 733q0 -152 22.5 -271.5t72.5 -202t129.5 -126t193.5 -43.5 t193.5 43.5t129 126t71.5 202t22 271.5t-22 271.5t-71.5 201.5t-128 125t-192.5 43t-194 -43t-130.5 -125t-73 -201.5t-22.5 -271.5z" />
<glyph unicode="P" horiz-adv-x="1237" d="M78 0v86h26q35 0 65.5 5t53.5 20.5t36 44.5t13 77v1004q0 45 -13.5 72.5t-36.5 42.5t-53.5 19.5t-64.5 4.5h-26v86h575q129 0 224 -29.5t157 -85t92.5 -134.5t30.5 -179q0 -91 -28.5 -175t-93.5 -148.5t-170 -103t-257 -38.5h-129v-346q0 -45 13.5 -72.5t36.5 -41.5 t53.5 -18.5t64.5 -4.5h68v-86h-637zM479 666h109q93 0 159 19.5t108 63t61.5 112t19.5 165.5q0 86 -17 149.5t-55 105.5t-98.5 62.5t-147.5 20.5h-139v-698z" />
<glyph unicode="Q" horiz-adv-x="1520" d="M115 735q0 170 40 308.5t120 236.5t202 151.5t285 53.5q155 0 274 -53.5t201 -152t124 -237t42 -309.5q0 -150 -33 -276t-97.5 -222t-159 -158.5t-216.5 -84.5q9 -105 34 -175.5t64 -113t91 -60.5t114 -18h33v-96h-88q-81 0 -161.5 21.5t-146.5 74t-110.5 140 t-54.5 219.5q-141 15 -245.5 74.5t-173.5 157t-103.5 229t-34.5 290.5zM342 733q0 -152 22.5 -271.5t72.5 -202t129.5 -126t193.5 -43.5t193.5 43.5t129 126t71.5 202t22 271.5t-22 271.5t-71.5 201.5t-128 125t-192.5 43t-194 -43t-130.5 -125t-73 -201.5t-22.5 -271.5z " />
<glyph unicode="R" horiz-adv-x="1343" d="M78 0v86h26q34 0 64.5 4.5t53.5 18.5t36.5 41.5t13.5 72.5v1014q0 45 -13.5 72.5t-36.5 42.5t-53.5 19.5t-64.5 4.5h-26v86h551q266 0 396 -98.5t130 -296.5q0 -82 -26.5 -143.5t-69.5 -106.5t-97 -75t-108 -48l281 -444q52 -82 101 -123t114 -41h6v-86h-29 q-96 0 -157.5 7t-104.5 27t-73.5 56t-65.5 94l-277 461h-170v-422q0 -45 13.5 -72.5t36.5 -41.5t53.5 -18.5t64.5 -4.5h27v-86h-596zM479 741h144q90 0 150 20t96 60t51.5 100t15.5 140q0 82 -17 139.5t-55 94t-98.5 53t-147.5 16.5h-139v-623z" />
<glyph unicode="S" horiz-adv-x="1114" d="M98 268q0 62 38.5 100t109.5 38q3 -64 19.5 -123t49.5 -104t84 -72t123 -27q138 0 215.5 66.5t77.5 191.5q0 56 -16 99t-53 79.5t-97.5 70t-150.5 70.5q-95 39 -166 83.5t-118 99t-70 121.5t-23 151q0 88 33.5 157t93.5 116.5t142 72.5t179 25q92 0 163 -19t120 -51 t74.5 -73.5t25.5 -86.5q0 -66 -43.5 -99.5t-117.5 -33.5q0 48 -11.5 94.5t-38.5 83t-71 59.5t-109 23q-59 0 -105.5 -16.5t-78.5 -47t-49 -73.5t-17 -96q0 -61 16 -107.5t53.5 -84t98.5 -71t150 -69.5q90 -37 160.5 -78t119.5 -91.5t75 -113t26 -141.5q0 -97 -35.5 -173.5 t-101.5 -129.5t-159 -80.5t-208 -27.5q-100 0 -176.5 21t-128 58.5t-77.5 91t-26 117.5z" />
<glyph unicode="T" horiz-adv-x="1255" d="M41 1104l10 358h1153l10 -358h-106l-10 88q-4 34 -14 64.5t-29 53.5t-50 36.5t-77 13.5h-199v-1127q0 -48 13.5 -77t36 -44.5t53.5 -20.5t65 -5h47v-86h-637v86h47q34 0 64.5 4.5t53.5 18.5t36.5 41.5t13.5 72.5v1137h-196q-45 0 -75.5 -13.5t-50 -36.5t-29 -53.5 t-13.5 -64.5l-11 -88h-106z" />
<glyph unicode="U" horiz-adv-x="1468" d="M31 1376v86h596v-86h-27q-34 0 -65 -5t-53.5 -20.5t-36 -44.5t-13.5 -77v-799q0 -89 25.5 -151.5t71 -101.5t108 -57t137.5 -18q89 0 153.5 24t107 66.5t63 101t20.5 128.5v815q0 45 -13.5 72.5t-36.5 42.5t-53.5 19.5t-64.5 4.5h-26v86h514v-86h-27q-34 0 -65 -5 t-53.5 -20.5t-36 -44.5t-13.5 -77v-811q0 -102 -32.5 -183.5t-96 -138t-157.5 -86.5t-216 -30q-121 0 -217 25.5t-162.5 81t-101.5 143t-35 212.5v795q0 45 -13.5 72.5t-36.5 42.5t-53.5 19.5t-64.5 4.5h-26z" />
<glyph unicode="V" horiz-adv-x="1382" d="M0 1376v86h563v-86h-47q-62 0 -92.5 -23.5t-30.5 -74.5q0 -17 4.5 -35t12.5 -41l225 -665q31 -91 53 -176.5t39 -159.5q16 74 38 157t56 179l226 651q8 25 13 48t5 40q0 53 -33.5 76.5t-101.5 23.5h-47v86h499v-86h-39q-30 0 -51.5 -6t-39 -23.5t-32.5 -48.5t-32 -81 l-424 -1217h-150l-442 1268q-11 32 -24 53t-30 33t-39 17t-52 5h-27z" />
<glyph unicode="W" horiz-adv-x="2144" d="M18 1376v86h564v-86h-47q-62 0 -92.5 -23.5t-30.5 -74.5q0 -17 5 -35t11 -41l188 -655q26 -93 49 -182.5t40 -163.5q15 80 35.5 174.5t47.5 193.5l244 879h148l256 -887q29 -102 51.5 -195.5t36.5 -164.5q15 74 34.5 155.5t47.5 180.5l180 632q3 12 7 27t7 30t5.5 28 t2.5 22q0 53 -33.5 76.5t-101.5 23.5h-47v86h500v-86h-39q-30 0 -52.5 -6t-40.5 -23t-33 -48t-30 -82l-346 -1217h-184l-334 1147l-313 -1147h-189l-375 1268q-10 32 -22.5 53t-29.5 33t-40 17t-53 5h-27z" />
<glyph unicode="X" horiz-adv-x="1352" d="M16 0v86h13q37 0 64.5 7.5t51 24.5t46.5 44t51 67l342 490l-338 549q-37 59 -83.5 83.5t-92.5 24.5h-27v86h555v-86h-6q-35 0 -58 -4.5t-36 -12.5t-18 -19t-5 -23q0 -11 1.5 -21t6.5 -23.5t14.5 -31.5t26.5 -45l185 -299l194 295q23 35 37 66t14 59q0 18 -8.5 29.5 t-23 18t-34.5 9t-44 2.5h-6v86h448v-86h-18q-30 0 -54.5 -7t-47.5 -24.5t-47.5 -45.5t-53.5 -70l-297 -428l377 -606q45 -60 85 -84.5t79 -24.5h26v-86h-553v86h11q122 0 122 68q0 11 -2.5 22t-9.5 26t-20.5 37t-34.5 56l-203 326l-227 -336q-9 -13 -18 -29.5t-17 -34.5 t-13 -36.5t-5 -34.5q0 -35 32.5 -49.5t100.5 -14.5h6v-86h-488z" />
<glyph unicode="Y" horiz-adv-x="1280" d="M-10 1376v86h563v-86h-76q-28 0 -45.5 -5t-27.5 -14t-13.5 -21t-3.5 -25q0 -29 12.5 -58t24.5 -51l151 -274q36 -63 61 -124.5t42 -109.5q9 22 22.5 49t30 57.5t34.5 63t36 64.5l131 235q20 35 28.5 66.5t8.5 56.5q0 45 -32 67.5t-91 22.5h-60v86h500v-86h-24 q-22 0 -41.5 -7.5t-39.5 -26t-41.5 -49t-47.5 -76.5l-344 -607v-377q0 -48 13 -77t36 -44.5t53.5 -20.5t64.5 -5h48v-86h-637v86h47q34 0 64.5 4.5t53.5 18.5t36.5 41.5t13.5 72.5v387l-379 658q-17 29 -32 49.5t-31.5 33.5t-36.5 19t-46 6h-26z" />
<glyph unicode="Z" horiz-adv-x="1212" d="M74 0v82l768 1278h-445q-45 0 -75.5 -13.5t-49.5 -36.5t-29 -53.5t-14 -64.5l-10 -88h-106l10 358h971v-84l-770 -1276h516q46 0 77 13.5t50 36.5t29 53.5t14 64.5l10 88h106l-10 -358h-1042z" />
<glyph unicode="[" horiz-adv-x="735" d="M205 -262v1818h457v-86h-89q-34 0 -64.5 -5t-53.5 -20.5t-36 -44.5t-13 -77v-1352q0 -48 13 -77t36 -44.5t53.5 -20.5t64.5 -5h89v-86h-457z" />
<glyph unicode="\" horiz-adv-x="590" d="M0 1556h119l471 -1804h-121z" />
<glyph unicode="]" horiz-adv-x="737" d="M76 -176h88q35 0 65.5 5t53 20.5t36 44.5t13.5 77v1352q0 48 -13.5 77t-36 44.5t-53 20.5t-65.5 5h-88v86h456v-1818h-456v86z" />
<glyph unicode="^" d="M104 545l431 917h71l432 -917h-137l-332 729l-327 -729h-138z" />
<glyph unicode="_" horiz-adv-x="940" d="M-10 -170h960v-121h-960v121z" />
<glyph unicode="`" horiz-adv-x="1182" d="M393 1548v21h219q16 -34 37.5 -74.5t45.5 -81t49 -78.5t47 -67v-27h-78q-41 28 -89 69.5t-93 85.5t-82 84.5t-56 67.5z" />
<glyph unicode="a" horiz-adv-x="1153" d="M102 307q0 163 116 242t351 86l170 6v123q0 55 -6 101.5t-26 80t-57.5 52t-100.5 18.5q-59 0 -95.5 -16.5t-57 -46.5t-27.5 -71t-7 -89q-85 0 -129.5 29t-44.5 100q0 53 29 90t79.5 60.5t117.5 34.5t143 11q94 0 164 -18.5t117 -60.5t70.5 -109.5t23.5 -165.5v-531 q0 -43 7 -71t22 -45t39.5 -24t58.5 -7h6v-86h-277l-32 176h-17q-32 -43 -62 -79t-66 -62t-81.5 -40.5t-109.5 -14.5q-68 0 -126.5 19.5t-101 60t-66.5 102t-24 145.5zM301 297q0 -96 40.5 -143.5t125.5 -47.5q62 0 112.5 20t86 57t54.5 90t19 118v166l-131 -6 q-87 -4 -145.5 -21.5t-94.5 -49t-51.5 -77.5t-15.5 -106z" />
<glyph unicode="b" horiz-adv-x="1257" d="M37 0v86h16q35 0 65.5 5t53 20.5t36 44.5t13.5 77v1098q0 45 -13.5 72.5t-36.5 42.5t-53.5 19.5t-64.5 4.5h-16v86h377v-376q0 -35 -1 -80.5t-3 -87.5q-2 -48 -4 -99h8q23 47 52 85t67 64.5t86 41t108 14.5q101 0 179 -33.5t131 -103t80.5 -176.5t27.5 -254 q0 -148 -27.5 -256t-80.5 -178t-131 -103.5t-179 -33.5q-59 0 -107 13t-86.5 37t-68 57t-51.5 73h-13l-36 -160h-328zM414 551q0 -107 13.5 -189t46 -138t86 -84.5t134.5 -28.5q68 0 115.5 28.5t78 84.5t44.5 138.5t14 190.5q0 109 -14 190.5t-44.5 135.5t-79 81t-116.5 27 q-80 0 -133.5 -26.5t-85.5 -80.5t-45.5 -136t-13.5 -193z" />
<glyph unicode="c" horiz-adv-x="1008" d="M113 543q0 164 34.5 274.5t96 177.5t145 95t180.5 28q64 0 127.5 -12.5t114.5 -38.5t83 -65.5t32 -92.5q0 -71 -46 -100t-137 -29q0 48 -8 91t-27.5 75.5t-53 51t-85.5 18.5q-59 0 -106.5 -22t-81.5 -76t-52 -145t-18 -228q0 -218 72.5 -325t237.5 -107q95 0 166 40 t106 103q15 -12 25 -32t10 -48q0 -35 -22 -70t-65.5 -63t-108.5 -45.5t-152 -17.5q-102 0 -188 31.5t-148 99.5t-96.5 174.5t-34.5 257.5z" />
<glyph unicode="d" horiz-adv-x="1257" d="M113 547q0 148 27 256t80 178t131 103.5t179 33.5q59 0 107 -13t86.5 -37t68.5 -57t52 -73h12q-3 50 -6 94q-2 38 -4 75.5t-2 55.5v168q0 45 -13.5 72.5t-36.5 42.5t-53.5 19.5t-64.5 4.5h-17v86h377v-1331q0 -45 13.5 -72.5t36.5 -42.5t53.5 -19.5t64.5 -4.5h17v-86 h-347l-22 184h-8q-23 -47 -52.5 -84.5t-67.5 -64t-86 -41t-108 -14.5q-101 0 -179 33.5t-131 103t-80 176.5t-27 254zM311 545q0 -218 59 -326t195 -108q80 0 133.5 26.5t86 80.5t46 136t13.5 193q0 107 -13.5 189t-46 137.5t-86.5 84.5t-135 29q-67 0 -115 -29t-78.5 -85 t-44.5 -138.5t-14 -189.5z" />
<glyph unicode="e" horiz-adv-x="1096" d="M113 541q0 287 118 432t336 145q99 0 178 -31t134 -92.5t84.5 -153t29.5 -212.5v-94h-682q2 -112 22.5 -192.5t59 -132.5t94.5 -76.5t129 -24.5q53 0 98.5 12t82.5 32t65.5 45.5t46.5 53.5q14 -6 26.5 -25t12.5 -45q0 -31 -22 -66.5t-67 -65.5t-112.5 -50t-158.5 -20 q-111 0 -199.5 37.5t-149.5 109.5t-93.5 176.5t-32.5 237.5zM315 645h471q0 81 -12 148t-38 115t-68.5 74t-104.5 26q-114 0 -175.5 -92.5t-72.5 -270.5z" />
<glyph unicode="f" horiz-adv-x="756" d="M55 0v86h27q35 0 65.5 5t53 20.5t36 44.5t13.5 77v768h-187v97h187v102q0 92 25 162t72 118t114 72.5t151 24.5q80 0 135 -10.5t88.5 -29.5t48.5 -45t15 -58q0 -28 -12.5 -49.5t-35 -36t-53 -22t-67.5 -7.5q0 31 -6.5 60.5t-22 52.5t-41.5 37t-65 14q-44 0 -73.5 -17 t-47.5 -50.5t-25.5 -82.5t-7.5 -114v-121h289v-97h-289v-768q0 -48 13.5 -77t36 -44.5t53.5 -20.5t65 -5h78v-86h-633z" />
<glyph unicode="g" horiz-adv-x="1102" d="M47 -193q0 60 21 105t56.5 77t81.5 52t97 29q-21 9 -41 24t-36 36t-26 48t-10 60q0 61 32 105.5t102 86.5q-44 18 -78.5 49.5t-58 72t-36 88.5t-12.5 99q0 89 24 159t72 119t120 75t169 26q37 0 73 -5.5t66.5 -15t55 -21.5t39.5 -25q15 16 35 35.5t45 36t54.5 27.5 t63.5 11q31 0 53.5 -8.5t37.5 -23t22.5 -34t7.5 -40.5q0 -22 -6.5 -41.5t-19.5 -34t-33.5 -23t-48.5 -8.5q0 12 -3 24t-10.5 22.5t-20.5 17t-34 6.5q-26 0 -47 -6t-41 -19q35 -43 57.5 -101.5t22.5 -146.5q0 -76 -23 -140.5t-68.5 -111.5t-115 -73.5t-162.5 -26.5 q-12 0 -27 1h-30q-15 1 -28 2.5t-21 2.5q-20 -10 -38 -22t-31.5 -27t-21.5 -34t-8 -42q0 -25 9.5 -40t26.5 -23.5t40.5 -11t50.5 -2.5h232q92 0 156 -23t104.5 -63.5t59 -97t18.5 -122.5q0 -88 -32.5 -159t-99.5 -120.5t-169.5 -76.5t-241.5 -27q-214 0 -320 79t-106 220z M213 -180q0 -45 12 -84t42 -67t81 -44t129 -16q110 0 181.5 18.5t113.5 51.5t59 78.5t17 99.5q0 47 -13.5 77.5t-40 48t-65.5 24.5t-90 7h-201q-43 0 -83.5 -7.5t-72 -28.5t-50.5 -59t-19 -99zM332 745q0 -131 43.5 -192t142.5 -61q50 0 84.5 15t56.5 46t31.5 79.5 t9.5 115.5q0 138 -42 204t-142 66q-99 0 -141.5 -67.5t-42.5 -205.5z" />
<glyph unicode="h" horiz-adv-x="1300" d="M37 0v86h16q35 0 65.5 5t53 20.5t36 44.5t13.5 77v1098q0 45 -13.5 72.5t-36.5 42.5t-53.5 19.5t-64.5 4.5h-16v86h377v-450q0 -28 -1 -58.5t-3 -56.5q-2 -30 -4 -59h10q92 186 301 186q87 0 154.5 -23.5t113.5 -72t70 -124.5t24 -181v-484q0 -48 12 -77t33 -44.5 t50 -20.5t63 -5h6v-86h-356v707q0 67 -12 119t-38.5 88t-69.5 54.5t-105 18.5q-64 0 -110.5 -23.5t-77 -67t-45.5 -105t-15 -136.5v-432q0 -45 13.5 -72.5t36.5 -41.5t53.5 -18.5t64.5 -4.5h6v-86h-551z" />
<glyph unicode="i" horiz-adv-x="655" d="M47 0v86h27q34 0 64.5 4.5t53.5 18.5t36.5 41.5t13.5 72.5v649q0 45 -13.5 72.5t-36.5 42.5t-53.5 20t-64.5 5h-6v86h366v-865q0 -48 13.5 -77t36 -44.5t53.5 -20.5t65 -5h27v-86h-582zM213 1430q0 36 9 60t25 39t37 21t46 6q24 0 45 -6t36.5 -21t25 -39t9.5 -60 t-9.5 -60t-25 -39t-36.5 -21.5t-45 -6.5q-25 0 -46 6.5t-37 21.5t-25 39t-9 60z" />
<glyph unicode="j" horiz-adv-x="614" d="M-25 -395h15q55 0 98 18.5t72.5 62t45 116t15.5 180.5v890q0 45 -13.5 72.5t-36.5 42.5t-53.5 20t-64.5 5h-6v86h367v-1114q0 -138 -30 -229.5t-84 -146t-128.5 -77.5t-163.5 -23h-33v97zM193 1430q0 36 9 60t24.5 39t37 21t45.5 6t45.5 -6t37 -21t25 -39t9.5 -60 t-9.5 -60t-25 -39t-37 -21.5t-45.5 -6.5t-45.5 6.5t-37 21.5t-24.5 39t-9 60z" />
<glyph unicode="k" horiz-adv-x="1198" d="M37 0v86h16q35 0 65.5 5t53 20.5t36 44.5t13.5 77v1098q0 45 -13.5 72.5t-36.5 42.5t-53.5 19.5t-64.5 4.5h-16v86h377v-790q0 -28 -1 -71.5t-3 -85.5q-2 -48 -4 -101l256 280q33 37 54.5 65t34.5 49t18 37.5t5 31.5q0 26 -24.5 33.5t-75.5 7.5v86h452v-86 q-71 0 -139.5 -50t-148.5 -141l-144 -162l273 -405q53 -82 105.5 -125t121.5 -43h6v-86h-29q-89 0 -146.5 5.5t-99.5 26t-77 60t-78 107.5l-205 321l-151 -112v-185q0 -45 13.5 -72.5t36.5 -41.5t53.5 -18.5t64.5 -4.5h6v-86h-551z" />
<glyph unicode="l" horiz-adv-x="635" d="M27 0v86h26q35 0 65.5 5t53 20.5t36 44.5t13.5 77v1098q0 45 -13.5 72.5t-36.5 42.5t-53.5 19.5t-64.5 4.5h-26v86h387v-1323q0 -48 13 -77t36 -44.5t53.5 -20.5t65.5 -5h26v-86h-581z" />
<glyph unicode="m" horiz-adv-x="1935" d="M57 0v86h27q35 0 64 5t50 20.5t32.5 44.5t11.5 77v639q0 45 -12 72.5t-33 42.5t-50 20t-63 5h-6v86h321l27 -166h10q31 57 65 93.5t72.5 57t81 28t90.5 7.5q50 0 95 -10t83.5 -32t69 -57.5t49.5 -86.5h17q31 57 67 93.5t76.5 57t85 28t92.5 7.5q78 0 140 -23.5t105 -72 t66 -124.5t23 -181v-484q0 -48 12 -77t33 -44.5t50 -20.5t63 -5h6v-86h-356v707q0 67 -11.5 119t-37 88t-66.5 54.5t-100 18.5q-64 0 -107.5 -24.5t-70.5 -66.5t-38.5 -97t-11.5 -117v-449q0 -48 12 -77t33 -44.5t50 -20.5t63 -5h6v-86h-356v707q0 67 -11.5 119t-37 88 t-66.5 54.5t-100 18.5q-67 0 -112.5 -27t-73.5 -73t-40 -106t-12 -126v-432q0 -45 13.5 -72.5t36.5 -41.5t53.5 -18.5t64.5 -4.5h6v-86h-551z" />
<glyph unicode="n" horiz-adv-x="1321" d="M57 0v86h17q35 0 65.5 5t53 20.5t36 44.5t13.5 77v639q0 45 -13.5 72.5t-36.5 42.5t-53.5 20t-64.5 5h-6v86h331l27 -166h10q32 57 67.5 93.5t75 57t84 28t93.5 7.5q81 0 144.5 -23.5t108 -72t68 -124.5t23.5 -181v-484q0 -48 11.5 -77t32.5 -44.5t50 -20.5t63 -5h7v-86 h-357v707q0 67 -12 119t-38.5 88t-69.5 54.5t-105 18.5q-70 0 -117.5 -27t-76.5 -73t-41.5 -106t-12.5 -126v-432q0 -45 13.5 -72.5t36.5 -41.5t53.5 -18.5t64.5 -4.5h6v-86h-551z" />
<glyph unicode="o" horiz-adv-x="1182" d="M113 551q0 287 121.5 427t359.5 140q111 0 199 -34.5t149.5 -105t94 -177t32.5 -250.5q0 -289 -122.5 -430t-358.5 -141q-111 0 -199 35t-149.5 106t-94 178.5t-32.5 251.5zM311 551q0 -114 15 -201t48.5 -145.5t87 -88.5t130.5 -30t130 30t86 88.5t47.5 145.5t14.5 201 t-15 200t-48 143.5t-86.5 86.5t-130.5 29t-130 -29t-86 -86.5t-48 -143.5t-15 -200z" />
<glyph unicode="p" horiz-adv-x="1257" d="M27 1012v86h358l21 -185h8q23 47 52 85t67 64.5t86 41t108 14.5q101 0 179 -33.5t131 -103t80.5 -176.5t27.5 -254q0 -148 -27.5 -256t-80.5 -178t-131 -103.5t-179 -33.5q-59 0 -107 13t-86.5 37t-68 57t-51.5 73h-8q2 -53 4 -99q1 -19 1.5 -39.5t1 -38.5t1 -32.5 t0.5 -22.5v-196q0 -45 13.5 -72.5t36.5 -42t53.5 -19t64.5 -4.5h6v-86h-551v86h16q35 0 65.5 5t53 20.5t36 45t13.5 77.5v1130q0 45 -13.5 72.5t-36.5 42.5t-53.5 20t-64.5 5h-26zM414 551q0 -107 13.5 -189t46 -138t86 -84.5t134.5 -28.5q68 0 115.5 28.5t78 84.5 t44.5 138.5t14 190.5q0 109 -14 190.5t-44.5 135.5t-79 81t-116.5 27q-80 0 -133.5 -26.5t-85.5 -80.5t-45.5 -136t-13.5 -193z" />
<glyph unicode="q" horiz-adv-x="1257" d="M113 547q0 148 27 256t80 178t131 103.5t179 33.5q59 0 107 -13t86.5 -37t68.5 -57t52 -73h12l37 160h328v-86h-17q-34 0 -65 -5t-53.5 -20.5t-36 -45t-13.5 -77.5v-1130q0 -45 13.5 -72.5t36.5 -42.5t53.5 -20t64.5 -5h17v-86h-613v86h68q35 0 65.5 5t53 20.5t36 45 t13.5 77.5v176q0 35 1 80.5t3 87.5q2 48 4 98h-8q-23 -47 -52.5 -84.5t-67.5 -64t-86 -41t-108 -14.5q-101 0 -179 33.5t-131 103t-80 176.5t-27 254zM311 545q0 -218 59 -326t195 -108q80 0 133.5 26.5t86 80.5t46 136t13.5 193q0 107 -13.5 189t-46 137.5t-86.5 84.5 t-135 29q-67 0 -115 -29t-78.5 -85t-44.5 -138.5t-14 -189.5z" />
<glyph unicode="r" horiz-adv-x="965" d="M68 0v86h6q35 0 65.5 5t53 20.5t36 44.5t13.5 77v639q0 45 -13.5 72.5t-36.5 42.5t-53.5 20t-64.5 5h-6v86h315l39 -203h10q20 46 41 86.5t51.5 71t75.5 48t113 17.5q112 0 166.5 -39t54.5 -110q0 -32 -10.5 -59t-33.5 -46.5t-59 -30t-88 -10.5q0 85 -24 122.5t-84 37.5 q-38 0 -68 -21.5t-52.5 -57t-38 -81.5t-25 -94.5t-13.5 -96.5t-4 -87v-322q0 -45 13.5 -72.5t36.5 -41.5t53.5 -18.5t64.5 -4.5h57v-86h-591z" />
<glyph unicode="s" horiz-adv-x="924" d="M92 197q0 41 13.5 68.5t33 43.5t42 22.5t40.5 6.5q0 -54 11 -101t37 -82.5t68.5 -56t104.5 -20.5q55 0 97 13.5t70.5 38t43.5 59t15 75.5q0 38 -11.5 65.5t-40 51.5t-77.5 49t-123 57q-79 35 -137.5 67.5t-96.5 70.5t-57 86.5t-19 115.5q0 70 27.5 124t78.5 90.5 t122 55.5t158 19q73 0 129 -15t94 -40.5t57 -60t19 -72.5q0 -56 -38.5 -89.5t-109.5 -33.5q0 103 -42.5 160t-133.5 57q-52 0 -89 -12t-60.5 -34t-34.5 -52t-11 -66q0 -39 14 -67.5t44.5 -52.5t79 -46.5t116.5 -50.5q81 -34 139 -67t95.5 -72t55.5 -88t18 -113 q0 -80 -29 -140t-82 -100.5t-127.5 -60.5t-165.5 -20q-77 0 -139.5 13.5t-106.5 41t-68 68t-24 94.5z" />
<glyph unicode="t" horiz-adv-x="721" d="M39 981v82q37 0 81.5 15t78.5 50q35 38 56.5 90.5t37.5 131.5h94v-252h268v-117h-268v-690q0 -105 42.5 -154t113.5 -49q37 0 68 4t63 10v-90q-13 -6 -34 -12t-45.5 -10.5t-51.5 -7t-51 -2.5q-78 0 -134 16.5t-92 53.5t-53.5 98t-17.5 149v684h-156z" />
<glyph unicode="u" horiz-adv-x="1300" d="M47 1012v86h367v-707q0 -67 10.5 -119t35 -88t66 -54.5t103.5 -18.5q68 0 116.5 24t80 67.5t46.5 104.5t15 135v422q0 48 -13.5 77.5t-36 45t-53 20.5t-65.5 5h-6v86h366v-875q0 -45 13.5 -72.5t36.5 -41.5t53.5 -18.5t64.5 -4.5h6v-86h-325l-27 166h-10 q-31 -58 -68.5 -94t-79.5 -56.5t-88 -28t-96 -7.5q-81 0 -144 23t-106 72t-65.5 125t-22.5 181v491q0 45 -13.5 72.5t-36.5 42.5t-53.5 20t-64.5 5h-6z" />
<glyph unicode="v" horiz-adv-x="1186" d="M8 1012v86h512v-86h-26q-62 0 -92.5 -24t-30.5 -75q0 -17 4 -34.5t12 -40.5l139 -387q13 -36 27 -79.5t26.5 -85.5t22.5 -79.5t14 -63.5h7q5 22 16.5 54.5t26 71t30 78.5t29.5 77l147 399q10 25 14.5 48t4.5 40q0 53 -33.5 77t-101.5 24h-15v86h439v-86h-25 q-30 0 -51 -6.5t-38 -24.5t-32.5 -49t-34.5 -80l-323 -852h-187l-329 903q-12 32 -25 53t-30 33.5t-39 17.5t-52 5h-6z" />
<glyph unicode="w" horiz-adv-x="1765" d="M2 1012v86h506v-86h-27q-61 0 -92 -18t-31 -68q0 -17 5.5 -41t11.5 -47l96 -344q10 -37 21 -81t20.5 -87.5t17.5 -81.5t13 -64h6q5 26 13.5 60.5t20 74t24.5 80.5t26 78l213 619h129l205 -607q12 -37 25.5 -79.5t25.5 -84t22 -78.5t15 -63h6q9 51 29 125.5t51 173.5 l102 330q8 26 13.5 55.5t5.5 46.5q0 53 -33.5 77t-102.5 24h-14v86h438v-86h-26q-30 0 -52 -6t-39.5 -23.5t-32.5 -48.5t-30 -82l-264 -852h-164l-244 721l-37 135l-290 -856h-162l-268 903q-12 32 -25 53t-30 33.5t-39 17.5t-52 5h-6z" />
<glyph unicode="x" horiz-adv-x="1184" d="M10 0v86h19q37 0 65 6t53 21t50 40.5t55 63.5l258 334l-258 352q-45 53 -87.5 81t-88.5 28h-27v86h520v-86h-6q-35 0 -58 -4.5t-36 -13t-18 -19.5t-5 -23q0 -21 12.5 -41.5t35.5 -52.5l135 -184l106 153q23 35 37 66t14 59q0 37 -31.5 48.5t-78.5 11.5h-6v86h448v-86h-18 q-30 0 -54.5 -5t-48 -19t-48.5 -40t-56 -67l-211 -281l301 -405q45 -60 85.5 -84.5t78.5 -24.5h27v-86h-529v86h10q123 0 123 68q0 11 -3 22.5t-12 27t-24 37.5t-39 54l-137 184l-143 -200q-9 -12 -19 -28t-18 -33t-13 -34.5t-5 -33.5q0 -35 29 -49.5t98 -14.5h6v-86h-488z " />
<glyph unicode="y" horiz-adv-x="1157" d="M8 1012v86h492v-86h-6q-62 0 -92.5 -24t-30.5 -75q0 -17 3.5 -34.5t12.5 -40.5l150 -365q14 -35 29.5 -76.5t29 -82t24.5 -76.5t15 -62h6q11 45 30.5 109.5t45.5 138.5l137 399q9 25 13.5 48t4.5 40q0 53 -33.5 77t-101.5 24h-6v86h426v-86h-6q-30 0 -51.5 -6.5 t-39 -24.5t-32.5 -49t-33 -80l-311 -860q-36 -99 -68 -174t-67 -128.5t-76.5 -88.5t-94.5 -56t-122 -29t-160 -8h-18v97q104 0 179 31t129.5 85t91 127.5t61.5 159.5l-379 895q-14 32 -27 52.5t-29.5 33.5t-38 18t-51.5 5h-6z" />
<glyph unicode="z" horiz-adv-x="1047" d="M86 0v82l594 899h-320q-40 0 -66 -10.5t-42.5 -31.5t-27 -52t-21.5 -72l-2 -8h-86l20 291h785v-84l-596 -897h372q36 0 59.5 14t39 37t25 53.5t16.5 63.5l10 47h86l-10 -332h-836z" />
<glyph unicode="{" horiz-adv-x="877" d="M102 606v86q51 2 95 12t77 34.5t51.5 65.5t18.5 103v357q0 140 74.5 216t220.5 76h135v-88h-61q-91 0 -129.5 -54t-38.5 -161v-350q0 -100 -56.5 -166.5t-171.5 -85.5v-2q118 -20 173 -86t55 -168v-354q0 -105 38.5 -160t129.5 -55h61v-88h-135q-72 0 -127.5 21t-92.5 59 t-56 92.5t-19 122.5v356q0 63 -18.5 104t-51.5 65.5t-77 35t-95 12.5z" />
<glyph unicode="|" d="M510 -492v2048h123v-2048h-123z" />
<glyph unicode="}" horiz-adv-x="877" d="M102 -174h62q91 0 129.5 55t38.5 160v354q0 102 54.5 168t172.5 86v2q-114 19 -170.5 85.5t-56.5 166.5v350q0 107 -38.5 161t-129.5 54h-62v88h136q145 0 219.5 -76t74.5 -216v-357q0 -62 19 -103t51.5 -65.5t76.5 -34.5t95 -12v-86q-51 -2 -95 -12.5t-76.5 -35 t-51.5 -65.5t-19 -104v-356q0 -68 -19 -122.5t-56 -92.5t-92 -59t-127 -21h-136v88z" />
<glyph unicode="~" horiz-adv-x="1149" d="M113 551q6 64 18.5 128t40.5 115t75.5 83t123.5 32q34 0 68 -13t66 -33t60.5 -44t52.5 -45q22 -20 43 -38.5t41.5 -32.5t41.5 -22.5t42 -8.5q57 0 84 61.5t41 175.5h123q-7 -64 -21 -128t-42.5 -115t-75 -83t-119.5 -32q-30 0 -62 12.5t-63.5 31.5t-60 41.5t-51.5 43.5 t-45 40.5t-43.5 34.5t-43.5 24t-45 9q-60 0 -89 -58t-40 -179h-120z" />
<glyph unicode="&#xa2;" d="M162 739q0 152 33 258t90 173.5t134 101t165 41.5v149h102v-149q59 -5 118 -19.5t106 -40t76.5 -62.5t29.5 -85q0 -71 -45.5 -100t-136.5 -29q0 42 -9 80.5t-27 69t-46 51.5t-66 28v-909q42 0 84.5 6t81.5 15.5t73 21t58 22.5v-112q-53 -28 -129.5 -50t-167.5 -24v-176 h-102v180q-93 10 -170.5 45.5t-133.5 102t-87 168t-31 243.5zM360 741q0 -183 54.5 -292t169.5 -140v897q-49 -9 -90 -37.5t-71 -83t-46.5 -139t-16.5 -205.5z" />
<glyph unicode="&#xa3;" d="M100 690v96h189q-14 32 -28 71t-25 81.5t-18 87t-7 86.5q0 88 29 157t83 116.5t131.5 72.5t174.5 25q99 0 168 -17.5t112 -48.5t62.5 -73t19.5 -91q0 -66 -43.5 -99.5t-118.5 -33.5q0 48 -8.5 94.5t-31 83t-63 59.5t-105.5 23q-119 0 -174.5 -68t-55.5 -196q0 -48 8 -94 t20 -88.5t26 -80t26 -67.5h348v-96h-319q15 -51 28 -104t13 -115q0 -88 -49.5 -155.5t-131.5 -122.5l5 -9q42 20 78.5 28.5t70.5 8.5q41 0 90 -12t97.5 -27t93 -27t75.5 -12q36 0 66.5 10.5t57.5 27.5t49.5 38.5t41.5 44.5v-133q-18 -25 -43 -52t-58 -49t-74.5 -36 t-92.5 -14t-100 14.5t-99 31.5t-101.5 31.5t-106.5 14.5q-68 0 -127 -19.5t-125 -50.5l-27 -12v108l37 23q38 23 75.5 55.5t67.5 75t49 94.5t19 113q0 60 -15 117.5t-36 113.5h-228z" />
<glyph unicode="&#xa5;" d="M10 1376v86h498v-86h-14q-62 0 -89.5 -19t-27.5 -61q0 -24 8 -54.5t25 -65.5l98 -218q15 -32 29 -69t26.5 -73t22.5 -67t16 -51q4 11 13 32.5t20.5 47t24 52t22.5 47.5l117 249q24 54 36.5 99.5t12.5 68.5q0 42 -28.5 62t-96.5 20h-6v86h418v-86h-19q-26 0 -45 -7 t-35.5 -25t-34 -49t-40.5 -78l-250 -519h254v-96h-287v-143h287v-97h-287v-129q0 -48 13.5 -77t36 -44.5t53 -20.5t65.5 -5h47v-86h-629v86h47q34 0 64 4.5t52.5 18.5t36 41.5t15.5 72.5v139h-286v97h286v143h-286v96h247l-278 570q-15 30 -28 50.5t-29.5 33.5t-37.5 18.5 t-51 5.5h-6z" />
<glyph unicode="&#xa8;" horiz-adv-x="1182" d="M291 1409q0 32 8 54t22 35.5t33 19.5t41 6t41 -6t33.5 -19.5t22.5 -35.5t8 -54q0 -31 -8 -53t-22.5 -36t-33.5 -20t-41 -6q-45 0 -74.5 26t-29.5 89zM680 1409q0 32 8 54t22 35.5t33 19.5t41 6t41 -6t33.5 -19.5t22.5 -35.5t8 -54q0 -31 -8 -53t-22.5 -36t-33.5 -20 t-41 -6q-45 0 -74.5 26t-29.5 89z" />
<glyph unicode="&#xa9;" horiz-adv-x="1731" d="M113 731q0 104 27 200.5t75.5 180t117 152.5t152 118t179.5 76t200 27t200.5 -27t180 -76t152.5 -118t118 -152.5t76 -180t27 -200.5t-27 -200t-76 -179.5t-118 -152t-152.5 -117.5t-180 -75.5t-200.5 -26.5t-200 26.5t-179.5 75.5t-152 117.5t-117 152t-75.5 179.5 t-27 200zM225 731q0 -88 23 -169.5t64.5 -152.5t100 -129.5t129.5 -100t152.5 -64.5t169.5 -23q89 0 171 23t153 64.5t129.5 100t100 129.5t64.5 152.5t23 169.5t-23 170t-64.5 153.5t-100 130t-129.5 100t-153 64.5t-171 23q-88 0 -169.5 -23t-152.5 -64.5t-129.5 -100 t-100 -130t-64.5 -153t-23 -170.5zM465 733q0 100 28 183t83.5 143t137 93.5t189.5 33.5q71 0 123.5 -11.5t87.5 -31t52.5 -46t17.5 -57.5q0 -22 -11 -40t-30 -30.5t-44.5 -19t-54.5 -6.5q0 29 -7.5 56.5t-24.5 50t-44.5 36t-68.5 13.5q-72 0 -122.5 -24t-82.5 -71 t-46.5 -115t-14.5 -157q0 -177 69 -272.5t199 -95.5q47 0 87 12t72 32t55.5 45t37.5 50q12 -9 20.5 -25.5t8.5 -38.5q0 -28 -19.5 -57t-58 -53t-96 -39t-134.5 -15q-102 0 -178.5 33t-128 93t-77 144t-25.5 187z" />
<glyph unicode="&#xab;" horiz-adv-x="1053" d="M133 520v66l313 356h103l-207 -389l207 -389h-103zM504 520v66l313 356h103l-207 -389l207 -389h-103z" />
<glyph unicode="&#xad;" horiz-adv-x="635" d="M51 481v154h533v-154h-533z" />
<glyph unicode="&#xae;" horiz-adv-x="1731" d="M113 731q0 104 27 200.5t75.5 180t117 152.5t152 118t179.5 76t200 27t200.5 -27t180 -76t152.5 -118t118 -152.5t76 -180t27 -200.5t-27 -200t-76 -179.5t-118 -152t-152.5 -117.5t-180 -75.5t-200.5 -26.5t-200 26.5t-179.5 75.5t-152 117.5t-117 152t-75.5 179.5 t-27 200zM225 731q0 -88 23 -169.5t64.5 -152.5t100 -129.5t129.5 -100t152.5 -64.5t169.5 -23q89 0 171 23t153 64.5t129.5 100t100 129.5t64.5 152.5t23 169.5t-23 170t-64.5 153.5t-100 130t-129.5 100t-153 64.5t-171 23q-88 0 -169.5 -23t-152.5 -64.5t-129.5 -100 t-100 -130t-64.5 -153t-23 -170.5zM477 289v69h27q20 0 38 2.5t31.5 10t21.5 21.5t9 38v600q-1 24 -9 38.5t-21.5 22t-31.5 9.5t-38 2h-27v72h369q352 0 352 -244q0 -49 -16 -86t-42 -64t-59.5 -45.5t-68.5 -29.5l182 -293q10 -17 19.5 -27.5t22.5 -16.5t30.5 -8t42.5 -2 v-69h-217l-226 381h-108v-240q2 -24 10 -38t21.5 -21.5t31 -10t37.5 -2.5h29v-69h-410zM758 748h86q55 0 92 11t59 33t31.5 56t9.5 80q0 45 -11 77t-34.5 51.5t-61 28.5t-91.5 9h-80v-346z" />
<glyph unicode="&#xb4;" horiz-adv-x="1182" d="M391 1241v27q23 29 47.5 67t48 78.5t45 81t37.5 74.5h219v-21q-19 -27 -56 -67.5t-82 -84.5t-92.5 -85.5t-88.5 -69.5h-78z" />
<glyph unicode="&#xb8;" horiz-adv-x="682" d="M123 -365q37 -8 74 -12t65 -4q59 0 92 31t33 84q0 60 -43.5 90t-110.5 35l43 159h97l-21 -88q100 -8 149.5 -57.5t49.5 -130.5q0 -109 -69.5 -171.5t-200.5 -62.5q-16 0 -36 1.5t-41 4.5t-42 7.5t-39 9.5v104z" />
<glyph unicode="&#xbb;" horiz-adv-x="1053" d="M133 164l207 389l-207 389h103l313 -356v-66l-313 -356h-103zM504 164l207 389l-207 389h102l314 -356v-66l-314 -356h-102z" />
<glyph unicode="&#xc6;" horiz-adv-x="1948" d="M0 0v86h33q54 0 96.5 38t85.5 122l592 1120l-160 10v86h1135l10 -358h-106l-11 88q-4 34 -15 64t-32.5 52.5t-54 36.5t-78.5 15h-344v-545h494v-100h-494v-613h395q48 0 82.5 13.5t57.5 36.5t36 53.5t19 64.5l14 88h107l-15 -358h-1097v86h26q34 0 64 4.5t52.5 18.5 t36.5 41.5t15 72.5v266h-471l-113 -215q-17 -32 -24.5 -61t-7.5 -47q0 -42 31.5 -61t91.5 -19h47v-86h-498zM526 592h418v768h-29q-25 -56 -66 -139t-92.5 -183.5t-110.5 -214.5t-120 -231z" />
<glyph unicode="&#xe6;" horiz-adv-x="1722" d="M102 307q0 163 116 242t351 86l170 6v123q0 55 -6 101.5t-26 80t-57.5 52t-100.5 18.5q-59 0 -95.5 -16.5t-57 -46.5t-27.5 -71t-7 -89q-85 0 -129.5 29t-44.5 100q0 53 29 90t79.5 60.5t117.5 34.5t143 11q116 0 195.5 -29.5t124.5 -95.5q114 125 317 125q99 0 178 -31 t134 -92.5t84.5 -153t29.5 -212.5v-94h-682q2 -112 21.5 -192.5t58 -132.5t97.5 -76.5t140 -24.5q45 0 87 11t78.5 30.5t66 45.5t49.5 56q14 -6 26.5 -25t12.5 -45q0 -31 -22 -66.5t-66 -65.5t-110.5 -50t-155.5 -20q-150 0 -254.5 59t-161.5 174q-19 -46 -53 -88 t-82.5 -74.5t-111 -51.5t-138.5 -19q-68 0 -126.5 19.5t-101 60t-66.5 102t-24 145.5zM301 297q0 -96 40.5 -143.5t125.5 -47.5q62 0 112.5 20t86 57t54.5 90t19 118v123v27v16l-131 -6q-87 -4 -145.5 -21.5t-94.5 -49t-51.5 -77.5t-15.5 -106zM942 645h471q0 81 -12 148 t-38 115t-68.5 74t-104.5 26q-115 0 -176 -92.5t-72 -270.5z" />
<glyph unicode="&#x127;" horiz-adv-x="1300" d="M35 1214v97h186v20q0 45 -13.5 72.5t-36.5 42.5t-53.5 19.5t-64.5 4.5h-16v86h377v-245h350v-97h-350v-149q0 -28 -1 -58.5t-3 -56.5q-2 -30 -4 -59h10q92 186 301 186q87 0 154.5 -23.5t113.5 -72t70 -124.5t24 -181v-443q0 -48 12 -77t33 -44.5t50 -20.5t63 -5h6v-86 h-356v666q0 67 -12 119t-38.5 88t-69.5 54.5t-105 18.5q-64 0 -110.5 -23.5t-77 -67t-45.5 -105t-15 -136.5v-391q0 -45 13.5 -72.5t36.5 -41.5t53.5 -18.5t64.5 -4.5h6v-86h-551v86h16q35 0 65.5 5t53 20.5t36 44.5t13.5 77v981h-186z" />
<glyph unicode="&#x131;" horiz-adv-x="655" d="M47 0v86h27q34 0 64.5 4.5t53.5 18.5t36.5 41.5t13.5 72.5v649q0 45 -13.5 72.5t-36.5 42.5t-53.5 20t-64.5 5h-6v86h366v-865q0 -48 13.5 -77t36 -44.5t53.5 -20.5t65 -5h27v-86h-582z" />
<glyph unicode="&#x2c6;" horiz-adv-x="1182" d="M289 1241v27q24 29 53 67t57.5 78.5t53.5 81t41 74.5h194q16 -34 41 -74.5t53.5 -81t57.5 -78.5t53 -67v-27h-80q-59 34 -118 84.5t-105 99.5q-47 -49 -105 -99.5t-116 -84.5h-80z" />
<glyph unicode="&#x2c9;" horiz-adv-x="1024" d="M215 1241v121h594v-121h-594z" />
<glyph unicode="&#x2da;" horiz-adv-x="682" d="M94 1444q0 54 19 96t52.5 70t78.5 42.5t96 14.5t96 -14.5t78.5 -42.5t52.5 -70t19 -96q0 -55 -19 -96.5t-52.5 -69.5t-78.5 -42.5t-96 -14.5t-96 14.5t-78.5 42.5t-52.5 69.5t-19 96.5zM205 1444q0 -33 10.5 -56.5t29 -38t43 -21.5t52.5 -7t52.5 7t43 21.5t29 38 t10.5 56.5t-10.5 56.5t-29 38t-43 21.5t-52.5 7t-52.5 -7t-43 -21.5t-29 -38t-10.5 -56.5z" />
<glyph unicode="&#x2dc;" horiz-adv-x="1182" d="M225 1262q3 47 16.5 90t40 77t66 54t94.5 20t99.5 -20t83 -44.5t72 -44.5t65.5 -20q30 0 48.5 9t29 24.5t15 35t7.5 40.5h92q-3 -47 -16.5 -90.5t-39.5 -77.5t-65 -54t-94 -20t-99.5 20t-83 44.5t-72 44.5t-66.5 20q-31 0 -49 -9t-28.5 -24t-15.5 -34.5t-8 -40.5h-92z " />
<glyph unicode="&#x2dd;" horiz-adv-x="1182" d="M209 1241v27q21 33 45 71t47.5 78t44.5 79t37 73h219v-21q-11 -18 -30.5 -42.5t-44.5 -52.5t-53.5 -57.5t-57.5 -57.5t-56.5 -53t-50.5 -44h-100zM578 1241v27q21 33 45 71t47.5 78t44.5 79t37 73h219v-21q-11 -18 -30.5 -42.5t-44.5 -52.5t-53.5 -57.5t-57.5 -57.5 t-56.5 -53t-50.5 -44h-100z" />
<glyph unicode="&#x30f;" horiz-adv-x="0" d="M-1061 1548v21h199q80 -168 174 -301v-27h-100q-161 135 -273 307zM-698 1548v21h198q80 -168 174 -301v-27h-100q-160 134 -272 307z" />
<glyph unicode="&#x393;" horiz-adv-x="1149" d="M78 0v86h26q35 0 65.5 5t53.5 20.5t36 44.5t13 77v996q0 48 -13 77t-36 44.5t-53.5 20.5t-65.5 5h-26v86h1018l12 -358h-107l-8 72q-5 43 -15.5 77t-32.5 58t-59.5 36.5t-97.5 12.5h-309v-1135q0 -45 13.5 -72.5t36.5 -42.5t53.5 -19.5t64.5 -4.5h68v-86h-637z" />
<glyph unicode="&#x3a0;" horiz-adv-x="1563" d="M78 0v86h26q35 0 65.5 5t53.5 20.5t36 44.5t13 77v1004q0 45 -13.5 72.5t-36.5 42.5t-53.5 19.5t-64.5 4.5h-26v86h1407v-86h-27q-34 0 -65 -5t-53.5 -20.5t-36 -44.5t-13.5 -77v-1006q0 -45 13.5 -72.5t36.5 -41.5t53.5 -18.5t64.5 -4.5h27v-86h-596v86h26q35 0 65.5 5 t53.5 20.5t36 44.5t13 77v1127h-604v-1127q0 -48 13.5 -77t36 -44.5t53.5 -20.5t65 -5h27v-86h-596z" />
<glyph unicode="&#x3a6;" horiz-adv-x="1571" d="M68 760q0 100 30 182.5t92.5 141.5t157 91.5t223.5 32.5h113v21q0 48 -13.5 77t-36 44.5t-53 20.5t-65.5 5h-27v86h586v-86h-26q-35 0 -65.5 -5t-53.5 -20.5t-36 -44.5t-13 -77v-21h112q129 0 224 -32.5t157 -91.5t92.5 -141.5t30.5 -182.5q0 -61 -12.5 -120.5 t-39.5 -113.5t-70 -100.5t-104 -80t-141 -52.5t-182 -19h-67v-41q0 -48 13 -77t36 -44.5t53.5 -20.5t65.5 -5h26v-86h-586v86h27q35 0 65.5 5t53 20.5t36 44.5t13.5 77v41h-68q-101 0 -181 19t-141 52.5t-104 80t-70 100.5t-39.5 113.5t-12.5 120.5zM289 752 q0 -97 19.5 -169t61.5 -119t108 -70t159 -23h47v739h-78q-87 0 -147 -23.5t-98 -69.5t-55 -112.5t-17 -152.5zM881 371h47q93 0 159 23t108 70t61.5 119t19.5 169q0 86 -17 152.5t-55 112.5t-98.5 69.5t-147.5 23.5h-77v-739z" />
<glyph unicode="&#x3a8;" horiz-adv-x="1696" d="M25 1376v86h370v-483q0 -97 13 -167.5t47.5 -116.5t94 -67.5t152.5 -21.5h48v623q0 48 -13.5 77t-36 44.5t-53 20.5t-65.5 5h-27v86h586v-86h-27q-34 0 -65 -5t-53.5 -20.5t-36 -44.5t-13.5 -77v-623h47q93 0 152.5 21.5t94 67.5t47.5 116.5t13 167.5v483h371v-86 q-34 0 -65 -5t-53.5 -20.5t-36 -44.5t-13.5 -77v-254q0 -61 -8 -119t-28.5 -110t-56 -95t-90 -74.5t-130 -49t-176.5 -17.5h-68v-277q0 -48 13.5 -77t36 -44.5t53.5 -20.5t65 -5h27v-86h-586v86h27q35 0 65.5 5t53 20.5t36 44.5t13.5 77v277h-68q-101 0 -177 17.5t-130.5 49 t-89.5 74.5t-55.5 95t-28.5 110t-8 119v254q0 48 -13.5 77t-36 44.5t-53 20.5t-65.5 5z" />
<glyph unicode="&#x3c8;" horiz-adv-x="1421" d="M37 1012v86h377v-672q0 -146 78 -226t225 -89v1445h123v-1441q96 13 162.5 54t108.5 103.5t60.5 144t18.5 175.5q0 86 -13 151t-36 113t-55.5 80t-71.5 51q0 30 9.5 53t26 38.5t38 23.5t45.5 8q81 0 128.5 -114.5t47.5 -344.5q0 -79 -9.5 -155.5t-31 -146t-57.5 -130.5 t-88 -108t-122 -79t-161 -44v-480h-123v472q-125 1 -218.5 30.5t-155 84.5t-92 134t-30.5 179v464q0 45 -15 72.5t-40 42.5t-57 20t-66 5h-6z" />
<glyph unicode="&#x400;" horiz-adv-x="1276" d="M78 0v86h26q34 0 64.5 4.5t53.5 18.5t36.5 41.5t13.5 72.5v1006q0 48 -13 77t-36 44.5t-53.5 20.5t-65.5 5h-26v86h1032l10 -358h-106l-10 88q-4 34 -15.5 64.5t-33 53.5t-54 36.5t-78.5 13.5h-344v-545h494v-100h-494v-613h395q49 0 83.5 13.5t57.5 36.5t36 53.5 t18 64.5l14 88h107l-14 -358h-1098zM345 1886v21h219q16 -34 37.5 -74.5t45.5 -81t49 -78.5t47 -67v-27h-78q-41 28 -89 69.5t-93 85.5t-82 84.5t-56 67.5z" />
<glyph unicode="&#x401;" horiz-adv-x="1276" d="M78 0v86h26q34 0 64.5 4.5t53.5 18.5t36.5 41.5t13.5 72.5v1006q0 48 -13 77t-36 44.5t-53.5 20.5t-65.5 5h-26v86h1032l10 -358h-106l-10 88q-4 34 -15.5 64.5t-33 53.5t-54 36.5t-78.5 13.5h-344v-545h494v-100h-494v-613h395q49 0 83.5 13.5t57.5 36.5t36 53.5 t18 64.5l14 88h107l-14 -358h-1098zM342 1747q0 32 8 54t22 35.5t33 19.5t41 6t41 -6t33.5 -19.5t22.5 -35.5t8 -54q0 -31 -8 -53t-22.5 -36t-33.5 -20t-41 -6q-45 0 -74.5 26t-29.5 89zM731 1747q0 32 8 54t22 35.5t33 19.5t41 6t41 -6t33.5 -19.5t22.5 -35.5t8 -54 q0 -31 -8 -53t-22.5 -36t-33.5 -20t-41 -6q-45 0 -74.5 26t-29.5 89z" />
<glyph unicode="&#x402;" horiz-adv-x="1565" d="M41 1104l10 358h1067l10 -358h-106l-10 88q-4 34 -14 64.5t-29 53.5t-50 36.5t-77 13.5h-154v-522q24 9 57 19.5t72.5 19t85 14.5t94.5 6q112 0 198.5 -21t146 -72t90 -136t30.5 -213q0 -132 -26.5 -220t-77 -140t-123.5 -73.5t-166 -21.5h-47v96h29q49 0 87 16.5t64 57 t39.5 108t13.5 168.5q0 102 -20.5 166t-58 100t-88.5 49t-113 13q-45 0 -87.5 -5t-80 -12t-68 -15.5t-51.5 -16.5v-492q0 -48 13.5 -77t36 -44.5t53.5 -20.5t65 -5h27v-86h-617v86h47q34 0 64.5 4.5t53.5 18.5t36.5 41.5t13.5 72.5v1137h-155q-45 0 -75.5 -13.5t-50 -36.5 t-29 -53.5t-13.5 -64.5l-11 -88h-106z" />
<glyph unicode="&#x403;" horiz-adv-x="1149" d="M78 0v86h26q35 0 65.5 5t53.5 20.5t36 44.5t13 77v996q0 48 -13 77t-36 44.5t-53.5 20.5t-65.5 5h-26v86h1018l12 -358h-107l-8 72q-5 43 -15.5 77t-32.5 58t-59.5 36.5t-97.5 12.5h-309v-1135q0 -45 13.5 -72.5t36.5 -42.5t53.5 -19.5t64.5 -4.5h68v-86h-637zM516 1579 v27q23 29 47.5 67t48 78.5t45 81t37.5 74.5h219v-21q-19 -27 -56 -67.5t-82 -84.5t-92.5 -85.5t-88.5 -69.5h-78z" />
<glyph unicode="&#x404;" horiz-adv-x="1257" d="M117 733q0 166 42 304t124.5 237t205.5 154t285 55q105 0 182.5 -17.5t129 -48.5t77 -73t25.5 -91q0 -33 -13.5 -59.5t-37.5 -45t-56.5 -28.5t-70.5 -10q0 48 -12.5 95t-41 84.5t-74 61t-112.5 23.5q-111 0 -190 -39t-130 -113.5t-76.5 -183.5t-29.5 -250h565v-100h-565 q4 -128 30.5 -233.5t78 -181t130.5 -117t187 -41.5q75 0 132.5 14.5t101.5 38.5t77.5 55.5t59.5 65.5q17 -11 28 -30t11 -50q0 -39 -26.5 -79.5t-80.5 -73.5t-137 -54.5t-197 -21.5q-153 0 -269 54t-194.5 153t-118.5 238t-40 308z" />
<glyph unicode="&#x405;" horiz-adv-x="1114" d="M98 268q0 62 38.5 100t109.5 38q3 -64 19.5 -123t49.5 -104t84 -72t123 -27q138 0 215.5 66.5t77.5 191.5q0 56 -16 99t-53 79.5t-97.5 70t-150.5 70.5q-95 39 -166 83.5t-118 99t-70 121.5t-23 151q0 88 33.5 157t93.5 116.5t142 72.5t179 25q92 0 163 -19t120 -51 t74.5 -73.5t25.5 -86.5q0 -66 -43.5 -99.5t-117.5 -33.5q0 48 -11.5 94.5t-38.5 83t-71 59.5t-109 23q-59 0 -105.5 -16.5t-78.5 -47t-49 -73.5t-17 -96q0 -61 16 -107.5t53.5 -84t98.5 -71t150 -69.5q90 -37 160.5 -78t119.5 -91.5t75 -113t26 -141.5q0 -97 -35.5 -173.5 t-101.5 -129.5t-159 -80.5t-208 -27.5q-100 0 -176.5 21t-128 58.5t-77.5 91t-26 117.5z" />
<glyph unicode="&#x406;" horiz-adv-x="752" d="M78 0v86h26q35 0 65.5 5t53.5 20.5t36 44.5t13 77v996q0 48 -13 77t-36 44.5t-53.5 20.5t-65.5 5h-26v86h596v-86h-27q-34 0 -65 -5t-53.5 -20.5t-36 -44.5t-13.5 -77v-996q0 -48 13.5 -77t36 -44.5t53.5 -20.5t65 -5h27v-86h-596z" />
<glyph unicode="&#x407;" horiz-adv-x="752" d="M78 0v86h26q35 0 65.5 5t53.5 20.5t36 44.5t13 77v996q0 48 -13 77t-36 44.5t-53.5 20.5t-65.5 5h-26v86h596v-86h-27q-34 0 -65 -5t-53.5 -20.5t-36 -44.5t-13.5 -77v-996q0 -48 13.5 -77t36 -44.5t53.5 -20.5t65 -5h27v-86h-596zM73 1747q0 32 8 54t22 35.5t33 19.5 t41 6t41 -6t33.5 -19.5t22.5 -35.5t8 -54q0 -31 -8 -53t-22.5 -36t-33.5 -20t-41 -6q-45 0 -74.5 26t-29.5 89zM462 1747q0 32 8 54t22 35.5t33 19.5t41 6t41 -6t33.5 -19.5t22.5 -35.5t8 -54q0 -31 -8 -53t-22.5 -36t-33.5 -20t-41 -6q-45 0 -74.5 26t-29.5 89z" />
<glyph unicode="&#x408;" horiz-adv-x="731" d="M-23 -395h19q66 0 117.5 18.5t86.5 62t53.5 116t18.5 180.5v1255q0 45 -13.5 72.5t-36.5 42.5t-53.5 19.5t-64.5 4.5h-26v86h596v-86h-27q-34 0 -65 -5t-53.5 -20.5t-36 -44.5t-13.5 -77v-1245q0 -138 -36 -229.5t-99 -146t-148.5 -77.5t-183.5 -23h-35v97z" />
<glyph unicode="&#x409;" horiz-adv-x="1821" d="M0 129q0 53 24 89t66 36q0 -14 6 -30.5t18.5 -31t31.5 -24.5t44 -10q28 0 54 8.5t51 38.5t49.5 87t50.5 154q18 66 33 145t27.5 161t22 163.5t16 153.5t9.5 130t3 93q0 28 -13 45t-35.5 25.5t-52 11t-63.5 2.5h-31v86h1008v-86h-47q-33 0 -63.5 -4.5t-53.5 -18t-37 -39 t-14 -67.5v-438h88q148 0 252.5 -29.5t170.5 -83t96 -127.5t30 -163q0 -90 -30.5 -164.5t-92.5 -128.5t-157 -83.5t-224 -29.5h-535v86h27q33 0 63.5 4.5t53.5 18t37 39t14 67.5v1145h-272q-6 -128 -19 -268.5t-31.5 -279t-43 -266t-54.5 -229.5q-28 -93 -58.5 -156.5 t-68 -102.5t-83.5 -55.5t-103 -16.5q-82 0 -123 37.5t-41 105.5zM1104 98h98q87 0 147.5 18.5t98.5 55t55 92.5t17 131q0 86 -19.5 146.5t-62 98.5t-108.5 55.5t-159 17.5h-67v-615z" />
<glyph unicode="&#x40a;" horiz-adv-x="1987" d="M78 0v86h26q35 0 65.5 5t53.5 20.5t36 44.5t13 77v1004q0 45 -13.5 72.5t-36.5 42.5t-53.5 19.5t-64.5 4.5h-26v86h596v-86h-27q-34 0 -65 -5t-53.5 -20.5t-36 -44.5t-13.5 -77v-414h584v414q0 48 -13.5 77t-36 44.5t-53 20.5t-65.5 5h-27v86h596v-86h-26 q-33 0 -63.5 -4.5t-53.5 -18t-37 -39t-14 -67.5v-438h88q148 0 252.5 -29.5t170.5 -83t96 -127.5t30 -163q0 -90 -30.5 -164.5t-92.5 -128.5t-157 -83.5t-224 -29.5h-535v86h27q33 0 63.5 4.5t53.5 18t37 39t14 67.5v498h-584v-480q0 -48 13.5 -77t36 -44.5t53.5 -20.5 t65 -5h27v-86h-596zM1270 98h98q87 0 147.5 18.5t98.5 55t55 92.5t17 131q0 86 -19.5 146.5t-62 98.5t-108.5 55.5t-159 17.5h-67v-615z" />
<glyph unicode="&#x40b;" horiz-adv-x="1688" d="M41 1104l10 358h1067l10 -358h-106l-10 88q-4 34 -14 64.5t-29 53.5t-50 36.5t-77 13.5h-154v-522q24 9 57 19.5t72.5 19t85 14.5t94.5 6q112 0 198.5 -21t146 -72t90 -136t30.5 -213v-222q0 -48 13.5 -77t36 -44.5t53.5 -20.5t65 -5h27v-86h-596v86h26q35 0 65.5 5 t53.5 20.5t36 44.5t13 77v213q0 102 -20.5 166t-58 100t-88.5 49t-113 13q-45 0 -87.5 -5t-80 -12t-68 -15.5t-51.5 -16.5v-492q0 -48 13.5 -77t36 -44.5t53.5 -20.5t65 -5h27v-86h-617v86h47q34 0 64.5 4.5t53.5 18.5t36.5 41.5t13.5 72.5v1137h-155q-45 0 -75.5 -13.5 t-50 -36.5t-29 -53.5t-13.5 -64.5l-11 -88h-106z" />
<glyph unicode="&#x40c;" horiz-adv-x="1434" d="M78 0v86h26q34 0 64.5 4.5t53.5 18.5t36.5 41.5t13.5 72.5v1014q0 45 -13.5 72.5t-36.5 42.5t-53.5 19.5t-64.5 4.5h-26v86h596v-86h-27q-34 0 -65 -5t-53.5 -20.5t-36 -44.5t-13.5 -77v-447q48 0 78 3.5t49.5 11t32 19.5t25.5 28q26 32 64 108t95 189q39 77 78.5 138.5 t83 105t93.5 67t110 23.5q45 0 77 -10t51.5 -27t28.5 -41t9 -51q0 -29 -8 -53t-22 -41.5t-31.5 -28.5t-37.5 -15q-4 23 -13 44t-23.5 37t-35.5 25t-48 9q-60 0 -114.5 -59t-117.5 -183q-32 -63 -56.5 -111t-45.5 -84.5t-40.5 -63.5t-43.5 -48q54 -2 92.5 -14.5t67.5 -34.5 t52 -54.5t46 -74.5l192 -346q48 -87 104.5 -125.5t125.5 -38.5h6v-86h-29q-98 0 -163 8t-109 29.5t-75 59t-62 96.5l-187 356q-24 46 -47 73.5t-54.5 42t-78.5 19t-119 4.5v-455q0 -48 13.5 -77t36 -44.5t53.5 -20.5t65 -5h27v-86h-596zM672 1579v27q23 29 47.5 67t48 78.5 t45 81t37.5 74.5h219v-21q-19 -27 -56 -67.5t-82 -84.5t-92.5 -85.5t-88.5 -69.5h-78z" />
<glyph unicode="&#x40d;" horiz-adv-x="1645" d="M78 0v86h26q35 0 65.5 5t53.5 20.5t36 44.5t13 77v1004q0 45 -13.5 72.5t-36.5 42.5t-53.5 19.5t-64.5 4.5h-26v86h596v-86h-27q-34 0 -65 -5t-53.5 -20.5t-36 -44.5t-13.5 -77v-811l686 770v41q0 48 -13 77t-36 44.5t-53.5 20.5t-65.5 5h-26v86h596v-86h-27 q-34 0 -65 -5t-53.5 -20.5t-36 -44.5t-13.5 -77v-1006q0 -45 13.5 -72.5t36.5 -41.5t53.5 -18.5t64.5 -4.5h27v-86h-596v86h26q35 0 65.5 5t53.5 20.5t36 44.5t13 77v811l-686 -770v-41q0 -48 13.5 -77t36 -44.5t53.5 -20.5t65 -5h27v-86h-596zM502 1886v21h219 q16 -34 37.5 -74.5t45.5 -81t49 -78.5t47 -67v-27h-78q-41 28 -89 69.5t-93 85.5t-82 84.5t-56 67.5z" />
<glyph unicode="&#x40e;" horiz-adv-x="1372" d="M0 1376v86h573v-86h-32q-62 0 -92.5 -23.5t-30.5 -74.5q0 -17 4 -35t12 -41l225 -485q35 -72 60.5 -144t42.5 -135q7 32 16.5 63t21 63t25.5 67.5t31 77.5l193 479q9 25 13.5 48t4.5 40q0 53 -33.5 76.5t-101.5 23.5h-43v86h493v-86h-39q-30 0 -50.5 -6.5t-37 -24.5 t-32 -49t-35.5 -79l-346 -842q-33 -80 -62 -139.5t-58.5 -101t-63 -68t-76.5 -41t-98 -20t-128 -5.5h-149v96h112q52 0 101.5 15t92 42.5t75 65.5t49.5 84l-465 965q-15 31 -28 51.5t-29.5 33t-37 18t-50.5 5.5h-27zM324 1856h170q5 -57 18.5 -93.5t38.5 -57t63 -28.5t91 -8 q44 0 80.5 9.5t63.5 31t44 57.5t23 89h174q-6 -62 -30.5 -113t-71 -87.5t-117 -56.5t-170.5 -20q-103 0 -173 19t-114 55t-64.5 87.5t-25.5 115.5z" />
<glyph unicode="&#x40f;" horiz-adv-x="1563" d="M78 0v86h26q34 0 64.5 4.5t53.5 19.5t36.5 42.5t13.5 72.5v1004q0 48 -13 77t-36 44.5t-53.5 20.5t-65.5 5h-26v86h596v-86h-27q-34 0 -65 -5t-53.5 -20.5t-36 -44.5t-13.5 -77v-1127h604v1127q0 48 -13 77t-36 44.5t-53.5 20.5t-65.5 5h-26v86h596v-86h-27 q-34 0 -64.5 -4.5t-53.5 -18.5t-36.5 -41.5t-13.5 -72.5v-1006q0 -48 13.5 -77t36 -44.5t53.5 -20.5t65 -5h27v-86h-426q-55 0 -98 -24.5t-72.5 -77t-44.5 -133.5t-15 -195h-94q0 114 -18 195t-51 133.5t-79 77t-102 24.5h-407z" />
<glyph unicode="&#x410;" horiz-adv-x="1444" d="M0 0v86h39q30 0 51 6.5t38 24.5t32.5 49t34.5 80l454 1216h160l463 -1267q12 -32 24.5 -53t29.5 -33.5t39 -17.5t52 -5h27v-86h-563v86h47q123 0 123 98q0 17 -4.5 35t-12.5 41l-82 229h-538l-78 -215q-9 -24 -14 -47.5t-5 -40.5q0 -52 33.5 -76t102.5 -24h47v-86h-500z M453 592h462l-127 358q-32 91 -58.5 170.5t-43.5 153.5q-7 -37 -16.5 -71.5t-20.5 -70.5t-25 -75.5t-32 -87.5z" />
<glyph unicode="&#x411;" horiz-adv-x="1237" d="M78 0v86h26q34 0 64.5 4.5t53.5 19.5t36.5 42.5t13.5 72.5v1004q0 48 -13 77t-36 44.5t-53.5 20.5t-65.5 5h-26v86h987l10 -358h-106l-11 88q-4 34 -13.5 64.5t-29 53.5t-50.5 36.5t-77 13.5h-309v-551h129q149 0 253 -29.5t170 -83t96 -127.5t30 -163 q0 -90 -30.5 -164.5t-92.5 -128.5t-157 -83.5t-224 -29.5h-575zM479 98h139q87 0 147.5 18.5t98.5 55t55 92.5t17 131q0 86 -19.5 146.5t-61.5 98.5t-108 55.5t-159 17.5h-109v-615z" />
<glyph unicode="&#x412;" horiz-adv-x="1339" d="M78 0v86h26q35 0 65.5 5t53.5 20.5t36 44.5t13 77v1004q0 45 -13.5 72.5t-36.5 42.5t-53.5 19.5t-64.5 4.5h-26v86h549q266 0 396 -88.5t130 -277.5q0 -69 -19.5 -121t-53.5 -91t-80.5 -65.5t-100.5 -44.5v-8q70 -12 128 -41t99.5 -75.5t64.5 -110t23 -144.5 q0 -198 -130 -296.5t-396 -98.5h-610zM479 102h199q87 0 147 16t98 51.5t55 92.5t17 139q0 80 -15 139t-51.5 98t-96.5 58t-150 19h-203v-613zM479 817h142q90 0 150 16t96 49.5t51.5 86.5t15.5 127q0 75 -17 125.5t-55 81.5t-98.5 44t-147.5 13h-137v-543z" />
<glyph unicode="&#x413;" horiz-adv-x="1149" d="M78 0v86h26q35 0 65.5 5t53.5 20.5t36 44.5t13 77v996q0 48 -13 77t-36 44.5t-53.5 20.5t-65.5 5h-26v86h1018l12 -358h-107l-8 72q-5 43 -15.5 77t-32.5 58t-59.5 36.5t-97.5 12.5h-309v-1135q0 -45 13.5 -72.5t36.5 -42.5t53.5 -19.5t64.5 -4.5h68v-86h-637z" />
<glyph unicode="&#x414;" horiz-adv-x="1397" d="M29 102h125q73 152 142 312.5t122.5 316t86 299t32.5 262.5q0 29 -15 45.5t-40 25t-57.5 11t-66.5 2.5h-6v86h942v-86h-26q-28 0 -54.5 -4.5t-46 -18.5t-31.5 -41.5t-12 -72.5v-989q0 -48 13.5 -77.5t36 -45t53.5 -20.5t65 -5h41v-532h-94q0 114 -21 195t-60 133.5 t-95 77t-127 24.5h-510q-70 0 -126.5 -24.5t-95.5 -77t-60 -133.5t-21 -195h-94v532zM281 102h639v1258h-265q0 -101 -16.5 -211t-45 -222.5t-66 -225t-79 -218.5t-84.5 -202.5t-83 -178.5z" />
<glyph unicode="&#x415;" horiz-adv-x="1276" d="M78 0v86h26q34 0 64.5 4.5t53.5 18.5t36.5 41.5t13.5 72.5v1006q0 48 -13 77t-36 44.5t-53.5 20.5t-65.5 5h-26v86h1032l10 -358h-106l-10 88q-4 34 -15.5 64.5t-33 53.5t-54 36.5t-78.5 13.5h-344v-545h494v-100h-494v-613h395q49 0 83.5 13.5t57.5 36.5t36 53.5 t18 64.5l14 88h107l-14 -358h-1098z" />
<glyph unicode="&#x416;" horiz-adv-x="2005" d="M0 0v86h6q69 0 125.5 38.5t104.5 125.5l192 346q23 42 45.5 74.5t52 54.5t68 34.5t92.5 14.5q-24 21 -43.5 48t-40.5 63.5t-45.5 84.5t-56.5 111q-63 124 -117.5 183t-114.5 59q-27 0 -48 -9t-36 -25t-24 -37t-13 -44q-19 4 -37 15t-31.5 28.5t-21.5 41.5t-8 53 q0 27 9 51t28.5 41t51.5 27t77 10q60 0 110 -23.5t93.5 -67t83 -105t78.5 -138.5q57 -113 95 -189t64 -108q13 -16 26 -28t31 -19.5t44.5 -11t66.5 -3.5v455q0 45 -13.5 72.5t-36.5 42.5t-53.5 19.5t-64.5 4.5h-6v86h539v-86h-6q-34 0 -65 -5t-53.5 -20.5t-36 -44.5 t-13.5 -77v-447q41 0 67 3.5t44 11t31 19.5t26 28q26 32 64 108t95 189q39 77 78.5 138.5t83 105t93.5 67t110 23.5q45 0 77 -10t51.5 -27t28.5 -41t9 -51q0 -29 -8 -53t-21.5 -41.5t-31.5 -28.5t-37 -15q-4 23 -13 44t-24 37t-36 25t-48 9q-60 0 -114.5 -59t-117.5 -183 q-32 -63 -56.5 -111t-45.5 -84.5t-40.5 -63.5t-43.5 -48q54 -2 92.5 -14.5t68 -34.5t52 -54.5t45.5 -74.5l192 -346q48 -87 104.5 -125.5t125.5 -38.5h6v-86h-29q-98 0 -163 8t-109 29.5t-75 59t-62 96.5l-187 356q-24 46 -44.5 73.5t-49 42t-72.5 19t-116 4.5v-455 q0 -48 13.5 -77t36 -44.5t53.5 -20.5t65 -5h6v-86h-539v86h6q34 0 64.5 4.5t53.5 18.5t36.5 41.5t13.5 72.5v465q-72 0 -116 -4.5t-72.5 -19t-49 -42t-44.5 -73.5l-187 -356q-31 -59 -62 -96.5t-75 -59t-109 -29.5t-163 -8h-29z" />
<glyph unicode="&#x417;" horiz-adv-x="1235" d="M92 231q0 76 46 114t126 38q0 -54 17.5 -106.5t53.5 -94t91.5 -67t132.5 -25.5q72 0 132 17t102.5 56t66 102t23.5 155q0 64 -22.5 117t-67 90t-110 57.5t-151.5 20.5h-174v104h174q68 0 126.5 22t102 63.5t68.5 100t25 131.5q0 60 -15 107t-47.5 80t-84.5 50t-125 17 q-86 0 -140.5 -25t-85.5 -67t-42 -97t-11 -116q-37 0 -69 6t-56 21.5t-37.5 41t-13.5 64.5q0 59 29 109.5t86.5 87t142.5 57.5t197 21q107 0 196.5 -20t154 -62t100.5 -106.5t36 -153.5q0 -80 -26 -141t-70.5 -106t-104.5 -74.5t-129 -45.5v-10q57 -7 122 -25t120.5 -56.5 t92 -102.5t36.5 -162q0 -119 -44.5 -202.5t-120 -136.5t-175 -77.5t-209.5 -24.5q-130 0 -219.5 23.5t-145 60t-80 81.5t-24.5 89z" />
<glyph unicode="&#x418;" horiz-adv-x="1645" d="M78 0v86h26q35 0 65.5 5t53.5 20.5t36 44.5t13 77v1004q0 45 -13.5 72.5t-36.5 42.5t-53.5 19.5t-64.5 4.5h-26v86h596v-86h-27q-34 0 -65 -5t-53.5 -20.5t-36 -44.5t-13.5 -77v-811l686 770v41q0 48 -13 77t-36 44.5t-53.5 20.5t-65.5 5h-26v86h596v-86h-27 q-34 0 -65 -5t-53.5 -20.5t-36 -44.5t-13.5 -77v-1006q0 -45 13.5 -72.5t36.5 -41.5t53.5 -18.5t64.5 -4.5h27v-86h-596v86h26q35 0 65.5 5t53.5 20.5t36 44.5t13 77v811l-686 -770v-41q0 -48 13.5 -77t36 -44.5t53.5 -20.5t65 -5h27v-86h-596z" />
<glyph unicode="&#x419;" horiz-adv-x="1645" d="M78 0v86h26q35 0 65.5 5t53.5 20.5t36 44.5t13 77v1004q0 45 -13.5 72.5t-36.5 42.5t-53.5 19.5t-64.5 4.5h-26v86h596v-86h-27q-34 0 -65 -5t-53.5 -20.5t-36 -44.5t-13.5 -77v-811l686 770v41q0 48 -13 77t-36 44.5t-53.5 20.5t-65.5 5h-26v86h596v-86h-27 q-34 0 -65 -5t-53.5 -20.5t-36 -44.5t-13.5 -77v-1006q0 -45 13.5 -72.5t36.5 -41.5t53.5 -18.5t64.5 -4.5h27v-86h-596v86h26q35 0 65.5 5t53.5 20.5t36 44.5t13 77v811l-686 -770v-41q0 -48 13.5 -77t36 -44.5t53.5 -20.5t65 -5h27v-86h-596zM440 1856h170 q5 -57 18.5 -93.5t38.5 -57t63 -28.5t91 -8q44 0 80.5 9.5t63.5 31t44 57.5t23 89h174q-6 -62 -30.5 -113t-71 -87.5t-117 -56.5t-170.5 -20q-103 0 -173 19t-114 55t-64.5 87.5t-25.5 115.5z" />
<glyph unicode="&#x41a;" horiz-adv-x="1434" d="M78 0v86h26q34 0 64.5 4.5t53.5 18.5t36.5 41.5t13.5 72.5v1014q0 45 -13.5 72.5t-36.5 42.5t-53.5 19.5t-64.5 4.5h-26v86h596v-86h-27q-34 0 -65 -5t-53.5 -20.5t-36 -44.5t-13.5 -77v-447q48 0 78 3.5t49.5 11t32 19.5t25.5 28q26 32 64 108t95 189q39 77 78.5 138.5 t83 105t93.5 67t110 23.5q45 0 77 -10t51.5 -27t28.5 -41t9 -51q0 -29 -8 -53t-22 -41.5t-31.5 -28.5t-37.5 -15q-4 23 -13 44t-23.5 37t-35.5 25t-48 9q-60 0 -114.5 -59t-117.5 -183q-32 -63 -56.5 -111t-45.5 -84.5t-40.5 -63.5t-43.5 -48q54 -2 92.5 -14.5t67.5 -34.5 t52 -54.5t46 -74.5l192 -346q48 -87 104.5 -125.5t125.5 -38.5h6v-86h-29q-98 0 -163 8t-109 29.5t-75 59t-62 96.5l-187 356q-24 46 -47 73.5t-54.5 42t-78.5 19t-119 4.5v-455q0 -48 13.5 -77t36 -44.5t53.5 -20.5t65 -5h27v-86h-596z" />
<glyph unicode="&#x41b;" horiz-adv-x="1438" d="M0 129q0 53 24 89t66 36q0 -14 6 -30.5t18.5 -31t31.5 -24.5t44 -10q28 0 54 8.5t51 38.5t49.5 87t50.5 154q18 66 33 144t27.5 160t22 162.5t16 152.5t9.5 131t3 96q0 28 -13 45t-35.5 25.5t-52 11t-63.5 2.5h-31v86h1049v-86h-27q-35 0 -65.5 -5t-53 -20.5t-36 -44.5 t-13.5 -77v-996q0 -48 13.5 -77t36 -44.5t53 -20.5t65.5 -5h27v-86h-596v86h27q34 0 64.5 5t53.5 20.5t36 44.5t13 77v1127h-333q-6 -128 -19 -268.5t-31.5 -279t-43 -266t-54.5 -229.5q-28 -93 -58.5 -156.5t-68 -102.5t-83.5 -55.5t-103 -16.5q-82 0 -123 37.5t-41 105.5z " />
<glyph unicode="&#x41c;" horiz-adv-x="1921" d="M78 0v86h26q34 0 64.5 4.5t53.5 18.5t36.5 41.5t13.5 72.5v1014q0 45 -13.5 72.5t-36.5 42.5t-53.5 19.5t-64.5 4.5h-26v86h467l424 -1171l420 1171h454v-86h-26q-35 0 -65.5 -5t-53.5 -20.5t-36 -44.5t-13 -77v-996q0 -48 13 -77t36 -44.5t53.5 -20.5t65.5 -5h26v-86 h-545v86h7q33 0 59.5 4.5t45 18t29.5 39t13 67.5v1094l-469 -1309h-111l-475 1305v-1072q0 -48 10 -77t29.5 -44.5t47 -20.5t61.5 -5h6v-86h-473z" />
<glyph unicode="&#x41d;" horiz-adv-x="1624" d="M78 0v86h26q35 0 65.5 5t53.5 20.5t36 44.5t13 77v1004q0 45 -13.5 72.5t-36.5 42.5t-53.5 19.5t-64.5 4.5h-26v86h596v-86h-27q-34 0 -65 -5t-53.5 -20.5t-36 -44.5t-13.5 -77v-414h666v414q0 48 -13.5 77t-36 44.5t-53 20.5t-65.5 5h-27v86h596v-86h-26q-35 0 -65.5 -5 t-53.5 -20.5t-36 -44.5t-13 -77v-1006q0 -45 13.5 -72.5t36.5 -41.5t53.5 -18.5t64.5 -4.5h26v-86h-596v86h27q35 0 65.5 5t53 20.5t36 44.5t13.5 77v480h-666v-480q0 -48 13.5 -77t36 -44.5t53.5 -20.5t65 -5h27v-86h-596z" />
<glyph unicode="&#x41e;" horiz-adv-x="1520" d="M115 735q0 170 40 308.5t120 236.5t202 151.5t285 53.5q155 0 274 -53.5t201 -152t124 -237t42 -309.5q0 -169 -42 -308t-124 -238t-202 -153t-275 -54q-163 0 -284 54t-201 153t-120 238.5t-40 309.5zM342 733q0 -152 22.5 -271.5t72.5 -202t129.5 -126t193.5 -43.5 t193.5 43.5t129 126t71.5 202t22 271.5t-22 271.5t-71.5 201.5t-128 125t-192.5 43t-194 -43t-130.5 -125t-73 -201.5t-22.5 -271.5z" />
<glyph unicode="&#x41f;" horiz-adv-x="1563" d="M78 0v86h26q35 0 65.5 5t53.5 20.5t36 44.5t13 77v1004q0 45 -13.5 72.5t-36.5 42.5t-53.5 19.5t-64.5 4.5h-26v86h1407v-86h-27q-34 0 -65 -5t-53.5 -20.5t-36 -44.5t-13.5 -77v-1006q0 -45 13.5 -72.5t36.5 -41.5t53.5 -18.5t64.5 -4.5h27v-86h-596v86h26q35 0 65.5 5 t53.5 20.5t36 44.5t13 77v1127h-604v-1127q0 -48 13.5 -77t36 -44.5t53.5 -20.5t65 -5h27v-86h-596z" />
<glyph unicode="&#x420;" horiz-adv-x="1237" d="M78 0v86h26q35 0 65.5 5t53.5 20.5t36 44.5t13 77v1004q0 45 -13.5 72.5t-36.5 42.5t-53.5 19.5t-64.5 4.5h-26v86h575q129 0 224 -29.5t157 -85t92.5 -134.5t30.5 -179q0 -91 -28.5 -175t-93.5 -148.5t-170 -103t-257 -38.5h-129v-346q0 -45 13.5 -72.5t36.5 -41.5 t53.5 -18.5t64.5 -4.5h68v-86h-637zM479 666h109q93 0 159 19.5t108 63t61.5 112t19.5 165.5q0 86 -17 149.5t-55 105.5t-98.5 62.5t-147.5 20.5h-139v-698z" />
<glyph unicode="&#x421;" horiz-adv-x="1257" d="M117 733q0 166 42 304t124.5 237t205.5 154t285 55q105 0 182.5 -17.5t129 -48.5t77 -73t25.5 -91q0 -33 -13.5 -59.5t-37.5 -45t-56.5 -28.5t-70.5 -10q0 48 -12.5 95t-41 84.5t-74 61t-112.5 23.5q-116 0 -197 -42.5t-132 -124t-74 -201t-23 -273.5q0 -137 24 -251 t76 -195.5t132.5 -126.5t193.5 -45q75 0 132.5 14.5t101.5 38.5t77.5 55.5t59.5 65.5q17 -11 28 -30t11 -50q0 -39 -26.5 -79.5t-80.5 -73.5t-137 -54.5t-197 -21.5q-153 0 -269 54t-194.5 153t-118.5 238t-40 308z" />
<glyph unicode="&#x422;" horiz-adv-x="1255" d="M41 1104l10 358h1153l10 -358h-106l-10 88q-4 34 -14 64.5t-29 53.5t-50 36.5t-77 13.5h-199v-1127q0 -48 13.5 -77t36 -44.5t53.5 -20.5t65 -5h47v-86h-637v86h47q34 0 64.5 4.5t53.5 18.5t36.5 41.5t13.5 72.5v1137h-196q-45 0 -75.5 -13.5t-50 -36.5t-29 -53.5 t-13.5 -64.5l-11 -88h-106z" />
<glyph unicode="&#x423;" horiz-adv-x="1372" d="M0 1376v86h573v-86h-32q-62 0 -92.5 -23.5t-30.5 -74.5q0 -17 4 -35t12 -41l225 -485q35 -72 60.5 -144t42.5 -135q7 32 16.5 63t21 63t25.5 67.5t31 77.5l193 479q9 25 13.5 48t4.5 40q0 53 -33.5 76.5t-101.5 23.5h-43v86h493v-86h-39q-30 0 -50.5 -6.5t-37 -24.5 t-32 -49t-35.5 -79l-346 -842q-33 -80 -62 -139.5t-58.5 -101t-63 -68t-76.5 -41t-98 -20t-128 -5.5h-149v96h112q52 0 101.5 15t92 42.5t75 65.5t49.5 84l-465 965q-15 31 -28 51.5t-29.5 33t-37 18t-50.5 5.5h-27z" />
<glyph unicode="&#x424;" horiz-adv-x="1571" d="M68 760q0 100 30 182.5t92.5 141.5t157 91.5t223.5 32.5h113v21q0 48 -13.5 77t-36 44.5t-53 20.5t-65.5 5h-27v86h586v-86h-26q-35 0 -65.5 -5t-53.5 -20.5t-36 -44.5t-13 -77v-21h112q129 0 224 -32.5t157 -91.5t92.5 -141.5t30.5 -182.5q0 -61 -12.5 -120.5 t-39.5 -113.5t-70 -100.5t-104 -80t-141 -52.5t-182 -19h-67v-41q0 -48 13 -77t36 -44.5t53.5 -20.5t65.5 -5h26v-86h-586v86h27q35 0 65.5 5t53 20.5t36 44.5t13.5 77v41h-68q-101 0 -181 19t-141 52.5t-104 80t-70 100.5t-39.5 113.5t-12.5 120.5zM289 752 q0 -97 19.5 -169t61.5 -119t108 -70t159 -23h47v739h-78q-87 0 -147 -23.5t-98 -69.5t-55 -112.5t-17 -152.5zM881 371h47q93 0 159 23t108 70t61.5 119t19.5 169q0 86 -17 152.5t-55 112.5t-98.5 69.5t-147.5 23.5h-77v-739z" />
<glyph unicode="&#x425;" horiz-adv-x="1352" d="M16 0v86h13q37 0 64.5 7.5t51 24.5t46.5 44t51 67l342 490l-338 549q-37 59 -83.5 83.5t-92.5 24.5h-27v86h555v-86h-6q-35 0 -58 -4.5t-36 -12.5t-18 -19t-5 -23q0 -11 1.5 -21t6.5 -23.5t14.5 -31.5t26.5 -45l185 -299l194 295q23 35 37 66t14 59q0 18 -8.5 29.5 t-23 18t-34.5 9t-44 2.5h-6v86h448v-86h-18q-30 0 -54.5 -7t-47.5 -24.5t-47.5 -45.5t-53.5 -70l-297 -428l377 -606q45 -60 85 -84.5t79 -24.5h26v-86h-553v86h11q122 0 122 68q0 11 -2.5 22t-9.5 26t-20.5 37t-34.5 56l-203 326l-227 -336q-9 -13 -18 -29.5t-17 -34.5 t-13 -36.5t-5 -34.5q0 -35 32.5 -49.5t100.5 -14.5h6v-86h-488z" />
<glyph unicode="&#x426;" horiz-adv-x="1563" d="M78 0v86h26q34 0 64.5 4.5t53.5 19.5t36.5 42.5t13.5 72.5v1004q0 48 -13 77t-36 44.5t-53.5 20.5t-65.5 5h-26v86h596v-86h-27q-34 0 -65 -5t-53.5 -20.5t-36 -44.5t-13.5 -77v-1127h604v1127q0 48 -13 77t-36 44.5t-53.5 20.5t-65.5 5h-26v86h596v-86h-27 q-34 0 -64.5 -4.5t-53.5 -18.5t-36.5 -41.5t-13.5 -72.5v-1006q0 -48 13.5 -77t36 -44.5t53.5 -20.5t65 -5h41v-516h-94q0 114 -21 195t-61.5 133.5t-99 77t-133.5 24.5h-1012z" />
<glyph unicode="&#x427;" horiz-adv-x="1548" d="M43 1376v86h596v-86h-27q-34 0 -65 -5t-53.5 -20.5t-36 -44.5t-13.5 -77v-320q0 -125 64 -183t176 -58q51 0 97 7t92.5 20.5t94 33.5t101.5 45v455q0 48 -13.5 77t-36 44.5t-53 20.5t-65.5 5h-27v86h596v-86h-26q-34 0 -65 -5t-53.5 -20.5t-36 -44.5t-13.5 -77v-1006 q0 -45 13.5 -72.5t36.5 -41.5t53.5 -18.5t64.5 -4.5h26v-86h-596v86h27q35 0 65.5 5t53 20.5t36 44.5t13.5 77v431q-55 -27 -105 -50t-102.5 -40.5t-111.5 -27t-132 -9.5q-188 0 -284 92.5t-96 277.5v330q0 45 -13.5 72.5t-36.5 42.5t-53.5 19.5t-64.5 4.5h-27z" />
<glyph unicode="&#x428;" horiz-adv-x="2210" d="M78 0v86h26q34 0 64.5 4.5t53.5 19.5t36.5 42.5t13.5 72.5v1004q0 48 -13 77t-36 44.5t-53.5 20.5t-65.5 5h-26v86h596v-86h-27q-34 0 -65 -5t-53.5 -20.5t-36 -44.5t-13.5 -77v-1127h522v1135q0 42 -11.5 69t-32 42.5t-47 21.5t-56.5 6h-6v86h514v-86h-6q-31 0 -58.5 -6 t-47 -22.5t-31 -45t-11.5 -73.5v-1127h523v1127q0 48 -13.5 77t-36 44.5t-53 20.5t-65.5 5h-27v86h596v-86h-27q-34 0 -65 -5t-53.5 -20.5t-36 -44.5t-13.5 -77v-1004q0 -45 13.5 -72.5t36.5 -42.5t53.5 -19.5t64.5 -4.5h27v-86h-2054z" />
<glyph unicode="&#x429;" horiz-adv-x="2210" d="M78 0v86h26q34 0 64.5 4.5t53.5 19.5t36.5 42.5t13.5 72.5v1004q0 48 -13 77t-36 44.5t-53.5 20.5t-65.5 5h-26v86h596v-86h-27q-34 0 -65 -5t-53.5 -20.5t-36 -44.5t-13.5 -77v-1127h522v1135q0 42 -11.5 69t-32 42.5t-47 21.5t-56.5 6h-6v86h514v-86h-6q-31 0 -58.5 -6 t-47 -22.5t-31 -45t-11.5 -73.5v-1127h523v1127q0 48 -13.5 77t-36 44.5t-53 20.5t-65.5 5h-27v86h596v-86h-27q-34 0 -65 -5t-53.5 -20.5t-36 -44.5t-13.5 -77v-996q0 -48 13.5 -77t36 -44.5t53.5 -20.5t65 -5h41v-516h-94q0 217 -79 323.5t-222 106.5h-1673z" />
<glyph unicode="&#x42a;" horiz-adv-x="1446" d="M41 1104l10 358h873v-86h-68q-34 0 -64.5 -4.5t-53.5 -18.5t-36.5 -41.5t-13.5 -72.5v-430h129q148 0 252.5 -29.5t170.5 -83t96 -127.5t30 -163q0 -90 -30.5 -164.5t-92.5 -128.5t-157 -83.5t-224 -29.5h-575v86h26q34 0 64.5 4.5t53.5 19.5t36.5 42.5t13.5 72.5v1135 h-155q-45 0 -75.5 -13.5t-50 -36.5t-29 -53.5t-13.5 -64.5l-11 -88h-106zM688 98h139q87 0 147.5 18.5t98.5 55t55 92.5t17 131q0 86 -19.5 146.5t-61.5 98.5t-108 55.5t-159 17.5h-109v-615z" />
<glyph unicode="&#x42b;" horiz-adv-x="1858" d="M78 0v86h26q34 0 64.5 4.5t53.5 19.5t36.5 42.5t13.5 72.5v1004q0 48 -13 77t-36 44.5t-53.5 20.5t-65.5 5h-26v86h637v-86h-68q-34 0 -64.5 -4.5t-53.5 -18.5t-36.5 -41.5t-13.5 -72.5v-430h88q149 0 253 -29.5t170 -83t96 -127.5t30 -163q0 -90 -30.5 -164.5 t-92.5 -128.5t-157 -83.5t-224 -29.5h-534zM479 98h99q87 0 147 18.5t98 55t55 92.5t17 131q0 86 -19.5 146.5t-61.5 98.5t-108 55.5t-159 17.5h-68v-615zM1184 0v86h26q35 0 65.5 5t53.5 20.5t36 44.5t13 77v996q0 48 -13 77t-36 44.5t-53.5 20.5t-65.5 5h-26v86h596v-86 h-27q-34 0 -65 -5t-53.5 -20.5t-36 -44.5t-13.5 -77v-996q0 -48 13.5 -77t36 -44.5t53.5 -20.5t65 -5h27v-86h-596z" />
<glyph unicode="&#x42c;" horiz-adv-x="1237" d="M78 0v86h26q34 0 64.5 4.5t53.5 19.5t36.5 42.5t13.5 72.5v1004q0 48 -13 77t-36 44.5t-53.5 20.5t-65.5 5h-26v86h637v-86h-68q-34 0 -64.5 -4.5t-53.5 -18.5t-36.5 -41.5t-13.5 -72.5v-430h129q149 0 253 -29.5t170 -83t96 -127.5t30 -163q0 -90 -30.5 -164.5 t-92.5 -128.5t-157 -83.5t-224 -29.5h-575zM479 98h139q87 0 147.5 18.5t98.5 55t55 92.5t17 131q0 86 -19.5 146.5t-61.5 98.5t-108 55.5t-159 17.5h-109v-615z" />
<glyph unicode="&#x42d;" horiz-adv-x="1255" d="M92 231q0 76 46 114t126 38q0 -54 15 -106.5t47.5 -94.5t84 -68t124.5 -26q93 0 162 45.5t115.5 126t70.5 190.5t28 238h-565v100h565q-4 141 -25 250t-63 183.5t-107.5 113.5t-158.5 39q-67 0 -118.5 -23.5t-86.5 -62.5t-53 -89.5t-18 -104.5q-76 0 -122 33t-46 96 q0 51 27.5 98t83 83t139.5 57.5t198 21.5q136 0 243.5 -47.5t181.5 -141t113.5 -232t39.5 -319.5q0 -173 -40.5 -314t-118 -241t-191 -154t-259.5 -54q-125 0 -209 23t-135 59t-72.5 80.5t-21.5 88.5z" />
<glyph unicode="&#x42e;" horiz-adv-x="2130" d="M78 0v86h26q35 0 65.5 5t53.5 20.5t36 44.5t13 77v1004q0 45 -13.5 72.5t-36.5 42.5t-53.5 19.5t-64.5 4.5h-26v86h596v-86h-27q-34 0 -65 -5t-53.5 -20.5t-36 -44.5t-13.5 -77v-414h309q9 153 51 277t118.5 211t187.5 134.5t258 47.5t260.5 -53.5t191 -152t118 -237 t40.5 -309.5q0 -169 -40.5 -308t-118.5 -238t-192 -153t-261 -54q-153 0 -267 52t-190.5 148t-115.5 231.5t-42 301.5h-307v-480q0 -48 13.5 -77t36 -44.5t53.5 -20.5t65 -5h27v-86h-596zM1014 733q0 -152 21 -271.5t67 -202t120 -126t179 -43.5q106 0 179.5 43.5t119 126 t66 202t20.5 271.5t-20.5 271.5t-66 201.5t-118.5 125t-178 43q-106 0 -180 -43t-120.5 -125t-67.5 -201.5t-21 -271.5z" />
<glyph unicode="&#x42f;" horiz-adv-x="1343" d="M-23 0v86h7q32 0 60 10t53.5 30.5t50.5 51t51 72.5l264 422q-51 18 -100 48t-88 76.5t-63 113.5t-24 159q0 202 139.5 297.5t403.5 95.5h535v-86h-27q-34 0 -64.5 -4.5t-53.5 -19.5t-36.5 -42.5t-13.5 -72.5v-1014q0 -45 13.5 -72.5t36.5 -41.5t53.5 -18.5t64.5 -4.5h27 v-86h-596v86h26q34 0 64.5 4.5t53.5 18.5t36.5 41.5t13.5 72.5v408h-202l-265 -447q-34 -57 -64.5 -92.5t-72.5 -56t-102 -28t-152 -7.5h-29zM408 1042q0 -73 18.5 -131t57 -99t96.5 -63t137 -22h147v637h-100q-95 0 -162.5 -18.5t-110.5 -57.5t-63 -100t-20 -146z" />
<glyph unicode="&#x430;" horiz-adv-x="1153" d="M102 307q0 163 116 242t351 86l170 6v123q0 55 -6 101.5t-26 80t-57.5 52t-100.5 18.5q-59 0 -95.5 -16.5t-57 -46.5t-27.5 -71t-7 -89q-85 0 -129.5 29t-44.5 100q0 53 29 90t79.5 60.5t117.5 34.5t143 11q94 0 164 -18.5t117 -60.5t70.5 -109.5t23.5 -165.5v-531 q0 -43 7 -71t22 -45t39.5 -24t58.5 -7h6v-86h-277l-32 176h-17q-32 -43 -62 -79t-66 -62t-81.5 -40.5t-109.5 -14.5q-68 0 -126.5 19.5t-101 60t-66.5 102t-24 145.5zM301 297q0 -96 40.5 -143.5t125.5 -47.5q62 0 112.5 20t86 57t54.5 90t19 118v166l-131 -6 q-87 -4 -145.5 -21.5t-94.5 -49t-51.5 -77.5t-15.5 -106z" />
<glyph unicode="&#x431;" horiz-adv-x="1180" d="M113 635q0 113 8 214.5t28.5 189t56 160t90 126.5t131 88.5t179.5 46.5q68 9 130 16t111 18t82.5 28t45.5 45h65q-2 -85 -31.5 -134.5t-85 -77.5t-137 -41t-188.5 -26q-114 -13 -182 -39.5t-105.5 -77t-51.5 -131.5t-19 -204h8q16 47 46.5 88t75 71.5t101.5 48t127 17.5 q233 0 351 -136.5t118 -402.5q0 -131 -29 -232t-89 -170t-151 -104.5t-214 -35.5q-234 0 -352.5 160t-118.5 495zM309 522q0 -213 65 -324.5t210 -111.5q81 0 135.5 28t88 83.5t48 137t14.5 187.5q0 108 -14.5 189t-48 135.5t-88 82t-135.5 27.5t-134.5 -27.5t-84.5 -82 t-43.5 -135.5t-12.5 -189z" />
<glyph unicode="&#x432;" horiz-adv-x="1219" d="M47 0v86h27q34 0 64.5 4.5t53.5 18.5t36.5 41.5t13.5 72.5v649q0 45 -13.5 72.5t-36.5 42.5t-53.5 20t-64.5 5h-27v86h596q215 0 314.5 -68t99.5 -196q0 -61 -16.5 -106.5t-47 -77t-73 -50t-95.5 -25.5v-10q65 -8 116.5 -27t88.5 -49.5t56.5 -74t19.5 -101.5 q0 -67 -26 -124.5t-78.5 -99.5t-132 -65.5t-187.5 -23.5h-635zM434 94h209q68 0 116.5 12.5t79.5 39.5t45.5 70t14.5 103q0 108 -69.5 152.5t-198.5 44.5h-197v-422zM434 614h199q62 0 105.5 14.5t70.5 41t39 63t12 80.5q0 40 -12 75t-38.5 60.5t-70 40.5t-106.5 15h-199 v-390z" />
<glyph unicode="&#x433;" horiz-adv-x="938" d="M47 0v86h27q34 0 64.5 4.5t53.5 18.5t36.5 41.5t13.5 72.5v649q0 45 -13.5 72.5t-36.5 42.5t-53.5 20t-64.5 5h-27v86h850v-328h-100l-11 68q-7 48 -17.5 80t-26.5 51t-40 27t-59 8h-209v-781q0 -45 13.5 -72.5t36.5 -41.5t53.5 -18.5t64.5 -4.5h47v-86h-602z" />
<glyph unicode="&#x434;" horiz-adv-x="1190" d="M27 94h141q32 50 64.5 138.5t66.5 213.5q12 42 25 101.5t24.5 121.5t19 119.5t7.5 96.5q0 41 -13.5 65.5t-36.5 38.5t-53.5 18.5t-64.5 4.5h-27v86h963v-86h-27q-34 0 -64.5 -4.5t-53.5 -19t-36.5 -42t-13.5 -72.5v-651q0 -62 24 -91t62 -38h115v-524h-100l-11 149 q-5 78 -24 131t-46.5 85.5t-60.5 47.5t-67 17h-504q-48 0 -83.5 -15t-59.5 -48.5t-37.5 -87t-18.5 -130.5l-10 -149h-100v524zM289 94h467v910h-264q-10 -94 -23 -187.5t-28 -181.5t-32.5 -168.5t-37.5 -149.5q-26 -87 -44 -140.5t-38 -82.5z" />
<glyph unicode="&#x435;" horiz-adv-x="1096" d="M113 541q0 287 118 432t336 145q99 0 178 -31t134 -92.5t84.5 -153t29.5 -212.5v-94h-682q2 -112 22.5 -192.5t59 -132.5t94.5 -76.5t129 -24.5q53 0 98.5 12t82.5 32t65.5 45.5t46.5 53.5q14 -6 26.5 -25t12.5 -45q0 -31 -22 -66.5t-67 -65.5t-112.5 -50t-158.5 -20 q-111 0 -199.5 37.5t-149.5 109.5t-93.5 176.5t-32.5 237.5zM315 645h471q0 81 -12 148t-38 115t-68.5 74t-104.5 26q-114 0 -175.5 -92.5t-72.5 -270.5z" />
<glyph unicode="&#x436;" horiz-adv-x="1802" d="M6 0v86h6q69 0 119.5 39t97.5 125l107 188q46 85 110 129t160 49q-20 14 -38 31.5t-37 41.5t-41 55t-50 71q-26 39 -48.5 68.5t-44.5 49t-44.5 29t-48.5 9.5q-25 0 -45 -9t-34 -25t-23 -37t-13 -44q-19 4 -37 14t-31.5 26t-21.5 38.5t-8 50.5q0 56 44.5 90.5t131.5 34.5 q59 0 101.5 -16.5t76 -46.5t64 -73t65.5 -97q53 -79 88.5 -132t61.5 -77q12 -12 24 -20t27 -13t35.5 -7.5t50.5 -2.5v247q0 45 -12 72.5t-32.5 42.5t-47 20t-55.5 5h-9v86h490v-86h-6q-29 0 -56 -4.5t-47.5 -18t-32.5 -39t-12 -67.5v-258q30 0 50.5 2.5t36 7.5t27 13 t23.5 20q26 24 61.5 77t88.5 132q35 54 65.5 97t64 73t76 46.5t101.5 16.5q87 0 131.5 -34.5t44.5 -90.5q0 -28 -8 -50.5t-21.5 -38.5t-31.5 -26t-37 -14q-4 23 -12.5 44t-23 37t-34 25t-45.5 9q-25 0 -47.5 -9.5t-44.5 -29t-45 -49t-49 -68.5q-28 -40 -50 -71t-41 -55 t-37 -41.5t-38 -31.5q96 -5 160 -49t110 -129l107 -188q47 -86 97.5 -125t119.5 -39h6v-86h-72q-78 0 -130.5 8t-90.5 29.5t-67 59t-60 96.5l-100 198q-23 45 -48.5 72t-58.5 42t-76 20t-102 5v-307q0 -45 12 -72.5t32.5 -41.5t47.5 -18.5t56 -4.5h6v-86h-490v86h9 q30 0 56.5 5t46.5 20.5t32 44.5t12 77v297q-58 0 -101.5 -5t-76.5 -20t-58.5 -42t-48.5 -72l-100 -198q-31 -59 -59.5 -96.5t-66.5 -59t-91 -29.5t-131 -8h-72z" />
<glyph unicode="&#x437;" horiz-adv-x="1001" d="M82 201q0 131 151 131q0 -54 14 -100.5t42 -80.5t70.5 -53.5t99.5 -19.5q118 0 174.5 64.5t56.5 176.5q0 104 -63.5 152.5t-175.5 48.5h-191v111h193q52 0 91 15.5t64.5 42t38 62t12.5 76.5q0 40 -9.5 75.5t-31 62t-57 42t-86.5 15.5q-103 0 -157 -59t-54 -162 q-81 0 -121.5 29t-40.5 94q0 37 22 72t68 61.5t117.5 42.5t169.5 16q88 0 157.5 -18.5t118 -53t74 -84.5t25.5 -112q0 -49 -15 -91.5t-42.5 -76t-65.5 -58.5t-84 -40v-11q53 -13 97.5 -33.5t76.5 -51.5t50 -72.5t18 -96.5q0 -71 -25 -132t-78.5 -107t-136.5 -72t-200 -26 q-110 0 -181 21t-112.5 53.5t-57.5 71.5t-16 75z" />
<glyph unicode="&#x438;" horiz-adv-x="1409" d="M47 0v86h27q34 0 64.5 4.5t53.5 18.5t36.5 41.5t13.5 72.5v649q0 45 -13.5 72.5t-36.5 42.5t-53.5 20t-64.5 5h-27v86h582v-86h-27q-34 0 -64.5 -4.5t-53.5 -19t-36.5 -42t-13.5 -72.5v-512l541 504v6q0 45 -13.5 72.5t-36.5 42.5t-53.5 20t-64.5 5h-6v86h561v-86h-27 q-34 0 -64.5 -4.5t-53.5 -19t-36.5 -42t-13.5 -72.5v-651q0 -45 13.5 -72.5t36.5 -41.5t53.5 -18.5t64.5 -4.5h27v-86h-582v86h27q34 0 64.5 4.5t53.5 18.5t36.5 41.5t13.5 72.5v510l-541 -500v-10q0 -45 13.5 -72.5t36.5 -41.5t53.5 -18.5t64.5 -4.5h27v-86h-582z" />
<glyph unicode="&#x439;" horiz-adv-x="1409" d="M47 0v86h27q34 0 64.5 4.5t53.5 18.5t36.5 41.5t13.5 72.5v649q0 45 -13.5 72.5t-36.5 42.5t-53.5 20t-64.5 5h-27v86h582v-86h-27q-34 0 -64.5 -4.5t-53.5 -19t-36.5 -42t-13.5 -72.5v-512l541 504v6q0 45 -13.5 72.5t-36.5 42.5t-53.5 20t-64.5 5h-6v86h561v-86h-27 q-34 0 -64.5 -4.5t-53.5 -19t-36.5 -42t-13.5 -72.5v-651q0 -45 13.5 -72.5t36.5 -41.5t53.5 -18.5t64.5 -4.5h27v-86h-582v86h27q34 0 64.5 4.5t53.5 18.5t36.5 41.5t13.5 72.5v510l-541 -500v-10q0 -45 13.5 -72.5t36.5 -41.5t53.5 -18.5t64.5 -4.5h27v-86h-582zM332 1518 h170q5 -57 18.5 -93.5t38.5 -57t63 -28.5t91 -8q44 0 80.5 9.5t63.5 31t44 57.5t23 89h174q-6 -62 -30.5 -113t-71 -87.5t-117 -56.5t-170.5 -20q-103 0 -173 19t-114 55t-64.5 87.5t-25.5 115.5z" />
<glyph unicode="&#x43a;" horiz-adv-x="1260" d="M37 0v86h37q34 0 65 5t53.5 20.5t36 44.5t13.5 77v639q0 45 -13.5 72.5t-36.5 42.5t-53.5 20t-64.5 5h-37v86h571v-86h-6q-33 0 -63.5 -4.5t-53.5 -18t-37 -39t-14 -67.5v-258q30 0 52 2.5t38.5 7.5t30 13t25.5 20q26 24 61 77t88 132q35 54 65.5 97t64.5 73t76 46.5 t101 16.5q87 0 131.5 -34.5t44.5 -90.5q0 -29 -8 -51t-21.5 -38t-31.5 -26t-37 -14q-4 23 -13 44t-23 36.5t-34 25t-45 9.5q-50 0 -92 -38.5t-94 -117.5q-28 -41 -50 -71.5t-41 -54.5t-37 -41.5t-38 -31.5q48 -2 84 -14.5t65.5 -34.5t53.5 -54.5t47 -74.5l107 -188 q48 -87 104 -125.5t125 -38.5h6v-86h-72q-78 0 -134 8t-97.5 29.5t-73.5 59t-63 96.5l-101 198q-23 45 -45 72t-51.5 42t-69.5 20t-98 5v-307q0 -45 13.5 -72.5t36.5 -41.5t53.5 -18.5t64.5 -4.5h6v-86h-571z" />
<glyph unicode="&#x43b;" horiz-adv-x="1286" d="M0 129q0 53 24 89t66 36q0 -14 6 -30.5t18.5 -31t31.5 -24.5t44 -10q29 0 54.5 8.5t50.5 38.5t49.5 87t50.5 154q12 42 25 101.5t24.5 121.5t19 119.5t7.5 96.5q0 41 -13.5 65.5t-36.5 38.5t-53.5 18.5t-64.5 4.5h-27v86h963v-86h-27q-34 0 -64.5 -4.5t-53.5 -19 t-36.5 -42t-13.5 -72.5v-651q0 -45 13.5 -72.5t36.5 -41.5t53.5 -18.5t64.5 -4.5h27v-86h-561v86h6q34 0 64.5 4.5t53.5 18.5t36.5 41.5t13.5 72.5v781h-264q-10 -94 -23 -187.5t-28 -181.5t-32.5 -168.5t-37.5 -149.5q-28 -93 -57 -156.5t-64.5 -102.5t-80 -55.5 t-101.5 -16.5q-82 0 -123 37.5t-41 105.5z" />
<glyph unicode="&#x43c;" horiz-adv-x="1612" d="M47 0v86h27q34 0 64.5 4.5t53.5 18.5t36.5 41.5t13.5 72.5v649q0 45 -13.5 72.5t-36.5 42.5t-53.5 20t-64.5 5h-27v86h438l324 -828l338 828h418v-86h-27q-34 0 -64.5 -4.5t-53.5 -19t-36.5 -42t-13.5 -72.5v-651q0 -45 13.5 -72.5t36.5 -41.5t53.5 -18.5t64.5 -4.5h27 v-86h-561v86h6q34 0 64.5 4.5t53.5 18.5t36.5 41.5t13.5 72.5v656h-15l-356 -879h-94l-346 879h-15v-656q0 -45 13.5 -72.5t36.5 -41.5t53.5 -18.5t64.5 -4.5h6v-86h-479z" />
<glyph unicode="&#x43d;" horiz-adv-x="1409" d="M47 0v86h27q34 0 64.5 4.5t53.5 18.5t36.5 41.5t13.5 72.5v649q0 45 -13.5 72.5t-36.5 42.5t-53.5 20t-64.5 5h-27v86h561v-86h-6q-34 0 -64.5 -4.5t-53.5 -19t-36.5 -42t-13.5 -72.5v-264h541v262q0 45 -13.5 72.5t-36.5 42.5t-53.5 20t-64.5 5h-6v86h561v-86h-27 q-34 0 -64.5 -4.5t-53.5 -19t-36.5 -42t-13.5 -72.5v-651q0 -45 13.5 -72.5t36.5 -41.5t53.5 -18.5t64.5 -4.5h27v-86h-561v86h6q34 0 64.5 4.5t53.5 18.5t36.5 41.5t13.5 72.5v293h-541v-293q0 -45 13.5 -72.5t36.5 -41.5t53.5 -18.5t64.5 -4.5h6v-86h-561z" />
<glyph unicode="&#x43e;" horiz-adv-x="1182" d="M113 551q0 287 121.5 427t359.5 140q111 0 199 -34.5t149.5 -105t94 -177t32.5 -250.5q0 -289 -122.5 -430t-358.5 -141q-111 0 -199 35t-149.5 106t-94 178.5t-32.5 251.5zM311 551q0 -114 15 -201t48.5 -145.5t87 -88.5t130.5 -30t130 30t86 88.5t47.5 145.5t14.5 201 t-15 200t-48 143.5t-86.5 86.5t-130.5 29t-130 -29t-86 -86.5t-48 -143.5t-15 -200z" />
<glyph unicode="&#x43f;" horiz-adv-x="1368" d="M47 0v86h27q34 0 64.5 4.5t53.5 18.5t36.5 41.5t13.5 72.5v649q0 45 -13.5 72.5t-36.5 42.5t-53.5 20t-64.5 5h-27v86h1274v-86h-27q-34 0 -64.5 -4.5t-53.5 -19t-36.5 -42t-13.5 -72.5v-651q0 -45 13.5 -72.5t36.5 -41.5t53.5 -18.5t64.5 -4.5h27v-86h-561v86h6 q34 0 64.5 4.5t53.5 18.5t36.5 41.5t13.5 72.5v781h-500v-781q0 -45 13.5 -72.5t36.5 -41.5t53.5 -18.5t64.5 -4.5h6v-86h-561z" />
<glyph unicode="&#x440;" horiz-adv-x="1257" d="M27 1012v86h358l21 -185h8q23 47 52 85t67 64.5t86 41t108 14.5q101 0 179 -33.5t131 -103t80.5 -176.5t27.5 -254q0 -148 -27.5 -256t-80.5 -178t-131 -103.5t-179 -33.5q-59 0 -107 13t-86.5 37t-68 57t-51.5 73h-8q2 -53 4 -99q1 -19 1.5 -39.5t1 -38.5t1 -32.5 t0.5 -22.5v-196q0 -45 13.5 -72.5t36.5 -42t53.5 -19t64.5 -4.5h6v-86h-551v86h16q35 0 65.5 5t53 20.5t36 45t13.5 77.5v1130q0 45 -13.5 72.5t-36.5 42.5t-53.5 20t-64.5 5h-26zM414 551q0 -107 13.5 -189t46 -138t86 -84.5t134.5 -28.5q68 0 115.5 28.5t78 84.5 t44.5 138.5t14 190.5q0 109 -14 190.5t-44.5 135.5t-79 81t-116.5 27q-80 0 -133.5 -26.5t-85.5 -80.5t-45.5 -136t-13.5 -193z" />
<glyph unicode="&#x441;" horiz-adv-x="1008" d="M113 543q0 164 34.5 274.5t96 177.5t145 95t180.5 28q64 0 127.5 -12.5t114.5 -38.5t83 -65.5t32 -92.5q0 -71 -46 -100t-137 -29q0 48 -8 91t-27.5 75.5t-53 51t-85.5 18.5q-59 0 -106.5 -22t-81.5 -76t-52 -145t-18 -228q0 -218 72.5 -325t237.5 -107q95 0 166 40 t106 103q15 -12 25 -32t10 -48q0 -35 -22 -70t-65.5 -63t-108.5 -45.5t-152 -17.5q-102 0 -188 31.5t-148 99.5t-96.5 174.5t-34.5 257.5z" />
<glyph unicode="&#x442;" horiz-adv-x="1120" d="M41 770l12 328h1014l12 -328h-100l-10 68q-8 48 -18 80t-26 51t-40 27t-60 8h-168v-781q0 -45 13.5 -72.5t36.5 -41.5t53.5 -18.5t64.5 -4.5h47v-86h-602v86h27q34 0 64.5 4.5t53.5 18.5t36.5 41.5t13.5 72.5v781h-170q-35 0 -59 -8t-40 -27t-26 -51t-18 -80l-11 -68 h-100z" />
<glyph unicode="&#x443;" horiz-adv-x="1157" d="M8 1012v86h492v-86h-6q-62 0 -92.5 -24t-30.5 -75q0 -17 3.5 -34.5t12.5 -40.5l150 -365q14 -35 29.5 -76.5t29 -82t24.5 -76.5t15 -62h6q11 45 30.5 109.5t45.5 138.5l137 399q9 25 13.5 48t4.5 40q0 53 -33.5 77t-101.5 24h-6v86h426v-86h-6q-30 0 -51.5 -6.5 t-39 -24.5t-32.5 -49t-33 -80l-311 -860q-36 -99 -68 -174t-67 -128.5t-76.5 -88.5t-94.5 -56t-122 -29t-160 -8h-18v97q104 0 179 31t129.5 85t91 127.5t61.5 159.5l-379 895q-14 32 -27 52.5t-29.5 33.5t-38 18t-51.5 5h-6z" />
<glyph unicode="&#x444;" horiz-adv-x="1468" d="M113 551q0 266 135 405.5t399 157.5v217q0 45 -13.5 72.5t-36.5 42.5t-53.5 19.5t-64.5 4.5h-26v86h370v-442q125 -10 224 -50t167.5 -110t105 -170.5t36.5 -232.5q0 -267 -135 -408t-398 -159v-244q0 -48 13.5 -77.5t36 -45t53.5 -20.5t65 -5h27v-86h-565v86h26 q35 0 65.5 5t53 20.5t36 45t13.5 77.5v244q-126 9 -225 48.5t-168 110.5t-105 173t-36 235zM317 551q0 -103 17.5 -184t56.5 -139t102 -92.5t154 -45.5v916q-91 -11 -154 -45t-102 -91t-56.5 -136.5t-17.5 -182.5zM823 90q91 11 153.5 45.5t101.5 92.5t56 139t17 184 q0 102 -17.5 182t-56.5 137t-101.5 91t-152.5 45v-916z" />
<glyph unicode="&#x445;" horiz-adv-x="1184" d="M10 0v86h19q37 0 65 6t53 21t50 40.5t55 63.5l258 334l-258 352q-45 53 -87.5 81t-88.5 28h-27v86h520v-86h-6q-35 0 -58 -4.5t-36 -13t-18 -19.5t-5 -23q0 -21 12.5 -41.5t35.5 -52.5l135 -184l106 153q23 35 37 66t14 59q0 37 -31.5 48.5t-78.5 11.5h-6v86h448v-86h-18 q-30 0 -54.5 -5t-48 -19t-48.5 -40t-56 -67l-211 -281l301 -405q45 -60 85.5 -84.5t78.5 -24.5h27v-86h-529v86h10q123 0 123 68q0 11 -3 22.5t-12 27t-24 37.5t-39 54l-137 184l-143 -200q-9 -12 -19 -28t-18 -33t-13 -34.5t-5 -33.5q0 -35 29 -49.5t98 -14.5h6v-86h-488z " />
<glyph unicode="&#x446;" horiz-adv-x="1389" d="M47 1012v86h582v-86h-27q-34 0 -64.5 -4.5t-53.5 -19t-36.5 -42t-13.5 -72.5v-780h520v780q0 45 -13.5 72.5t-36.5 42t-53.5 19t-64.5 4.5h-26v86h581v-86h-26q-34 0 -64.5 -4.5t-53.5 -19t-36.5 -42t-13.5 -72.5v-645q0 -42 11.5 -68t31.5 -40.5t46.5 -20t57.5 -6.5h47 v-524h-100l-10 149q-5 78 -24 132t-47 87t-61 47.5t-67 14.5h-964v86h6q34 0 64.5 4.5t53.5 19.5t36.5 42.5t13.5 72.5v649q0 45 -13.5 72.5t-36.5 42t-53.5 19t-64.5 4.5h-27z" />
<glyph unicode="&#x447;" horiz-adv-x="1311" d="M31 1012v86h540v-86h-6q-34 0 -64.5 -4.5t-53.5 -19t-36.5 -42t-13.5 -72.5v-215q0 -71 41.5 -109t122.5 -38q39 0 75.5 5t73.5 16t78 28t89 41v270q0 45 -13.5 72.5t-36.5 42.5t-53.5 20t-64.5 5h-7v86h562v-86h-27q-34 0 -64.5 -4.5t-53.5 -19t-36.5 -42t-13.5 -72.5 v-651q0 -45 13.5 -72.5t36.5 -41.5t53.5 -18.5t64.5 -4.5h27v-86h-582v86h27q34 0 64.5 4.5t53.5 18.5t36.5 41.5t13.5 72.5v291q-49 -31 -94 -56t-91 -43t-95 -28t-108 -10q-68 0 -121 18.5t-89 52.5t-55 82.5t-19 108.5v233q0 45 -13.5 72.5t-36.5 42.5t-53.5 20t-64.5 5 h-6z" />
<glyph unicode="&#x448;" horiz-adv-x="1937" d="M47 0v86h27q34 0 64.5 4.5t53.5 19.5t36.5 42.5t13.5 72.5v649q0 45 -13.5 72.5t-36.5 42t-53.5 19t-64.5 4.5h-27v86h549v-86h-6q-34 0 -64.5 -4.5t-53.5 -19t-36.5 -42t-13.5 -72.5v-780h457v780q0 45 -13.5 72.5t-36.5 42t-53.5 19t-64.5 4.5h-6v86h528v-86h-6 q-34 0 -64.5 -4.5t-53.5 -19t-36.5 -42t-13.5 -72.5v-780h457v780q0 45 -13.5 72.5t-36.5 42t-53.5 19t-64.5 4.5h-7v86h549v-86h-26q-34 0 -64.5 -4.5t-53.5 -19t-36.5 -42t-13.5 -72.5v-649q0 -45 13.5 -72.5t36.5 -42.5t53.5 -19.5t64.5 -4.5h26v-86h-1843z" />
<glyph unicode="&#x449;" horiz-adv-x="1937" d="M47 0v86h27q34 0 64.5 4.5t53.5 19.5t36.5 42.5t13.5 72.5v649q0 45 -13.5 72.5t-36.5 42t-53.5 19t-64.5 4.5h-27v86h549v-86h-6q-34 0 -64.5 -4.5t-53.5 -19t-36.5 -42t-13.5 -72.5v-780h457v780q0 45 -13.5 72.5t-36.5 42t-53.5 19t-64.5 4.5h-6v86h528v-86h-6 q-34 0 -64.5 -4.5t-53.5 -19t-36.5 -42t-13.5 -72.5v-780h457v780q0 45 -13.5 72.5t-36.5 42t-53.5 19t-64.5 4.5h-7v86h549v-86h-26q-34 0 -64.5 -4.5t-53.5 -19t-36.5 -42t-13.5 -72.5v-663q0 -36 12 -58.5t32.5 -35t47 -17.5t55.5 -6h47v-524h-100l-10 149q-6 78 -25 132 t-46.5 87t-60.5 47.5t-67 14.5h-1534z" />
<glyph unicode="&#x44a;" horiz-adv-x="1442" d="M61 770l13 328h798v-86h-26q-34 0 -64.5 -5t-53.5 -20t-36.5 -42.5t-13.5 -72.5v-262h178q95 0 180.5 -11t150.5 -43t103.5 -90t38.5 -153q0 -67 -26 -124.5t-78.5 -99.5t-132 -65.5t-187.5 -23.5h-614v86h26q34 0 64.5 4.5t53.5 18.5t36.5 41.5t13.5 72.5v781h-170 q-35 0 -59 -8t-40 -27t-26 -51t-18 -80l-10 -68h-101zM678 94h188q69 0 117.5 12.5t79 40t45 71.5t14.5 106q0 104 -69.5 148t-198.5 44h-176v-422z" />
<glyph unicode="&#x44b;" horiz-adv-x="1692" d="M47 0v86h27q34 0 64.5 4.5t53.5 18.5t36.5 41.5t13.5 72.5v649q0 45 -13.5 72.5t-36.5 42.5t-53.5 20t-64.5 5h-27v86h582v-86h-27q-34 0 -64.5 -5t-53.5 -20t-36.5 -42.5t-13.5 -72.5v-262h137q95 0 180.5 -11t150.5 -43t103.5 -90t38.5 -153q0 -67 -26 -124.5 t-78.5 -99.5t-132 -65.5t-186.5 -23.5h-574zM434 94h148q68 0 116.5 12.5t79.5 40t45.5 71.5t14.5 106q0 104 -70 148t-199 44h-135v-422zM1083 0v86h7q34 0 64 4.5t53 18.5t36.5 41.5t13.5 72.5v649q0 45 -13.5 72.5t-36.5 42.5t-53 20t-64 5h-7v86h541v-86h-6 q-34 0 -64.5 -4.5t-53.5 -19t-36.5 -42t-13.5 -72.5v-651q0 -45 13.5 -72.5t36.5 -41.5t53.5 -18.5t64.5 -4.5h6v-86h-541z" />
<glyph unicode="&#x44c;" horiz-adv-x="1219" d="M47 0v86h27q34 0 64.5 4.5t53.5 18.5t36.5 41.5t13.5 72.5v649q0 45 -13.5 72.5t-36.5 42.5t-53.5 20t-64.5 5h-27v86h582v-86h-27q-34 0 -64.5 -5t-53.5 -20t-36.5 -42.5t-13.5 -72.5v-262h199q95 0 180.5 -11t150.5 -43t103.5 -90t38.5 -153q0 -67 -26 -124.5 t-78.5 -99.5t-132 -65.5t-187.5 -23.5h-635zM434 94h209q68 0 116.5 12.5t79.5 40t45.5 71.5t14.5 106q0 104 -69.5 148t-198.5 44h-197v-422z" />
<glyph unicode="&#x44d;" horiz-adv-x="1006" d="M82 201q0 131 151 131q0 -54 11.5 -100t37 -80t65.5 -53t97 -19q121 0 180.5 106t67.5 314h-454v110h454q-4 117 -23 195t-51 125t-75 66.5t-94 19.5q-46 0 -82.5 -16t-61.5 -45t-38 -68.5t-13 -87.5q-71 0 -110.5 27.5t-39.5 88.5q0 35 19 71t61.5 65.5t110.5 48 t166 18.5q100 0 180 -31.5t136 -99.5t86 -174t30 -256q0 -156 -33.5 -265.5t-93.5 -179t-142.5 -101t-181.5 -31.5q-110 0 -179.5 21t-110 53.5t-55.5 71.5t-15 75z" />
<glyph unicode="&#x44e;" horiz-adv-x="1759" d="M47 0v86h27q34 0 64.5 4.5t53.5 18.5t36.5 41.5t13.5 72.5v649q0 45 -13.5 72.5t-36.5 42.5t-53.5 20t-64.5 5h-27v86h561v-86h-6q-34 0 -64.5 -4.5t-53.5 -19t-36.5 -42t-13.5 -72.5v-264h297q13 257 129.5 382.5t331.5 125.5q106 0 190.5 -34.5t143 -105t90 -177 t31.5 -250.5q0 -289 -117.5 -430t-343.5 -141q-103 0 -185.5 33t-141 99.5t-91.5 167t-37 236.5h-297v-293q0 -45 13.5 -72.5t36.5 -41.5t53.5 -18.5t64.5 -4.5h6v-86h-561zM930 551q0 -114 14 -201t44.5 -145.5t80 -88.5t121.5 -30q71 0 120.5 30t80 88.5t44 145.5 t13.5 201t-14 200t-45 143.5t-80.5 86.5t-120.5 29q-72 0 -121 -29t-79.5 -86.5t-44 -143.5t-13.5 -200z" />
<glyph unicode="&#x44f;" horiz-adv-x="1139" d="M16 0v86h7q27 0 49.5 7t42 21.5t38 38t37.5 56.5l181 311q-47 9 -95 30.5t-86.5 57t-63 85t-24.5 114.5q0 68 24.5 122t75 91.5t128.5 57.5t186 20h576v-86h-7q-34 0 -64 -5t-53 -20t-36.5 -42.5t-13.5 -72.5v-649q0 -45 13.5 -72.5t36.5 -41.5t53 -18.5t64 -4.5h27v-86 h-582v86h27q34 0 64.5 4.5t53.5 18.5t36.5 41.5t13.5 72.5v260h-170l-170 -317q-22 -42 -47.5 -73t-65.5 -51.5t-101 -31t-155 -10.5zM301 799q0 -44 12 -83.5t38.5 -69t69.5 -47t105 -17.5h199v422h-199q-63 0 -106 -17t-69.5 -45.5t-38 -65.5t-11.5 -77z" />
<glyph unicode="&#x450;" horiz-adv-x="1096" d="M113 541q0 287 118 432t336 145q99 0 178 -31t134 -92.5t84.5 -153t29.5 -212.5v-94h-682q2 -112 22.5 -192.5t59 -132.5t94.5 -76.5t129 -24.5q53 0 98.5 12t82.5 32t65.5 45.5t46.5 53.5q14 -6 26.5 -25t12.5 -45q0 -31 -22 -66.5t-67 -65.5t-112.5 -50t-158.5 -20 q-111 0 -199.5 37.5t-149.5 109.5t-93.5 176.5t-32.5 237.5zM315 645h471q0 81 -12 148t-38 115t-68.5 74t-104.5 26q-114 0 -175.5 -92.5t-72.5 -270.5zM285 1548v21h219q16 -34 37.5 -74.5t45.5 -81t49 -78.5t47 -67v-27h-78q-41 28 -89 69.5t-93 85.5t-82 84.5t-56 67.5z " />
<glyph unicode="&#x451;" horiz-adv-x="1096" d="M113 541q0 287 118 432t336 145q99 0 178 -31t134 -92.5t84.5 -153t29.5 -212.5v-94h-682q2 -112 22.5 -192.5t59 -132.5t94.5 -76.5t129 -24.5q53 0 98.5 12t82.5 32t65.5 45.5t46.5 53.5q14 -6 26.5 -25t12.5 -45q0 -31 -22 -66.5t-67 -65.5t-112.5 -50t-158.5 -20 q-111 0 -199.5 37.5t-149.5 109.5t-93.5 176.5t-32.5 237.5zM315 645h471q0 81 -12 148t-38 115t-68.5 74t-104.5 26q-114 0 -175.5 -92.5t-72.5 -270.5zM253 1409q0 32 8 54t22 35.5t33 19.5t41 6t41 -6t33.5 -19.5t22.5 -35.5t8 -54q0 -31 -8 -53t-22.5 -36t-33.5 -20 t-41 -6q-45 0 -74.5 26t-29.5 89zM642 1409q0 32 8 54t22 35.5t33 19.5t41 6t41 -6t33.5 -19.5t22.5 -35.5t8 -54q0 -31 -8 -53t-22.5 -36t-33.5 -20t-41 -6q-45 0 -74.5 26t-29.5 89z" />
<glyph unicode="&#x452;" horiz-adv-x="1253" d="M35 1214v97h186v20q0 45 -13.5 72.5t-36.5 42.5t-53.5 19.5t-64.5 4.5h-16v86h377v-245h350v-97h-350v-149q0 -28 -1 -58.5t-3 -56.5q-2 -30 -4 -59h10q92 186 301 186q87 0 154.5 -23.5t113.5 -72t70 -124.5t24 -181v-692q0 -138 -28 -229.5t-78 -146t-120 -77.5 t-153 -23h-30v97h12q49 0 87 18.5t64.5 62t40 116t13.5 180.5v684q0 67 -12 119t-38.5 88t-69.5 54.5t-105 18.5q-64 0 -110.5 -23.5t-77 -67t-45.5 -105t-15 -136.5v-391q0 -45 13.5 -72.5t36.5 -41.5t53.5 -18.5t64.5 -4.5h6v-86h-551v86h16q35 0 65.5 5t53 20.5t36 44.5 t13.5 77v981h-186z" />
<glyph unicode="&#x453;" horiz-adv-x="938" d="M47 0v86h27q34 0 64.5 4.5t53.5 18.5t36.5 41.5t13.5 72.5v649q0 45 -13.5 72.5t-36.5 42.5t-53.5 20t-64.5 5h-27v86h850v-328h-100l-11 68q-7 48 -17.5 80t-26.5 51t-40 27t-59 8h-209v-781q0 -45 13.5 -72.5t36.5 -41.5t53.5 -18.5t64.5 -4.5h47v-86h-602zM353 1241 v27q23 29 47.5 67t48 78.5t45 81t37.5 74.5h219v-21q-19 -27 -56 -67.5t-82 -84.5t-92.5 -85.5t-88.5 -69.5h-78z" />
<glyph unicode="&#x454;" horiz-adv-x="1008" d="M113 543q0 164 34.5 274.5t96 177.5t145 95t180.5 28q64 0 127.5 -12.5t114.5 -38.5t83 -65.5t32 -92.5q0 -71 -46 -100t-137 -29q0 48 -8 91t-27.5 75.5t-53 51t-85.5 18.5q-55 0 -100.5 -19.5t-78.5 -66t-53 -124.5t-24 -196h455v-110h-457q4 -98 23.5 -171t57 -121 t94.5 -71.5t135 -23.5q95 0 166 40t106 103q15 -12 25 -32t10 -48q0 -35 -22 -70t-65.5 -63t-108.5 -45.5t-152 -17.5q-102 0 -188 31.5t-148 99.5t-96.5 174.5t-34.5 257.5z" />
<glyph unicode="&#x455;" horiz-adv-x="924" d="M92 197q0 41 13.5 68.5t33 43.5t42 22.5t40.5 6.5q0 -54 11 -101t37 -82.5t68.5 -56t104.5 -20.5q55 0 97 13.5t70.5 38t43.5 59t15 75.5q0 38 -11.5 65.5t-40 51.5t-77.5 49t-123 57q-79 35 -137.5 67.5t-96.5 70.5t-57 86.5t-19 115.5q0 70 27.5 124t78.5 90.5 t122 55.5t158 19q73 0 129 -15t94 -40.5t57 -60t19 -72.5q0 -56 -38.5 -89.5t-109.5 -33.5q0 103 -42.5 160t-133.5 57q-52 0 -89 -12t-60.5 -34t-34.5 -52t-11 -66q0 -39 14 -67.5t44.5 -52.5t79 -46.5t116.5 -50.5q81 -34 139 -67t95.5 -72t55.5 -88t18 -113 q0 -80 -29 -140t-82 -100.5t-127.5 -60.5t-165.5 -20q-77 0 -139.5 13.5t-106.5 41t-68 68t-24 94.5z" />
<glyph unicode="&#x456;" horiz-adv-x="655" d="M47 0v86h27q34 0 64.5 4.5t53.5 18.5t36.5 41.5t13.5 72.5v649q0 45 -13.5 72.5t-36.5 42.5t-53.5 20t-64.5 5h-6v86h366v-865q0 -48 13.5 -77t36 -44.5t53.5 -20.5t65 -5h27v-86h-582zM213 1430q0 36 9 60t25 39t37 21t46 6q24 0 45 -6t36.5 -21t25 -39t9.5 -60 t-9.5 -60t-25 -39t-36.5 -21.5t-45 -6.5q-25 0 -46 6.5t-37 21.5t-25 39t-9 60z" />
<glyph unicode="&#x457;" horiz-adv-x="655" d="M47 0v86h27q34 0 64.5 4.5t53.5 18.5t36.5 41.5t13.5 72.5v649q0 45 -13.5 72.5t-36.5 42.5t-53.5 20t-64.5 5h-6v86h366v-865q0 -48 13.5 -77t36 -44.5t53.5 -20.5t65 -5h27v-86h-582zM32 1409q0 32 8 54t22 35.5t33 19.5t41 6t41 -6t33.5 -19.5t22.5 -35.5t8 -54 q0 -31 -8 -53t-22.5 -36t-33.5 -20t-41 -6q-45 0 -74.5 26t-29.5 89zM421 1409q0 32 8 54t22 35.5t33 19.5t41 6t41 -6t33.5 -19.5t22.5 -35.5t8 -54q0 -31 -8 -53t-22.5 -36t-33.5 -20t-41 -6q-45 0 -74.5 26t-29.5 89z" />
<glyph unicode="&#x458;" horiz-adv-x="614" d="M-25 -395h15q55 0 98 18.5t72.5 62t45 116t15.5 180.5v890q0 45 -13.5 72.5t-36.5 42.5t-53.5 20t-64.5 5h-6v86h367v-1114q0 -138 -30 -229.5t-84 -146t-128.5 -77.5t-163.5 -23h-33v97zM193 1430q0 36 9 60t24.5 39t37 21t45.5 6t45.5 -6t37 -21t25 -39t9.5 -60 t-9.5 -60t-25 -39t-37 -21.5t-45.5 -6.5t-45.5 6.5t-37 21.5t-24.5 39t-9 60z" />
<glyph unicode="&#x459;" horiz-adv-x="1751" d="M0 129q0 53 24 89t66 36q0 -14 6 -30.5t18.5 -31t31.5 -24.5t44 -10q29 0 54.5 8.5t50.5 38.5t49.5 87t50.5 154q12 42 25 101.5t24.5 121.5t19 119.5t7.5 96.5q0 41 -13.5 65.5t-36.5 38.5t-53.5 18.5t-64.5 4.5h-27v86h947v-86h-27q-34 0 -64.5 -5t-53.5 -20 t-36.5 -42.5t-13.5 -72.5v-262h137q95 0 180.5 -11t150.5 -43t103.5 -90t38.5 -153q0 -67 -26 -124.5t-78.5 -99.5t-132 -65.5t-187.5 -23.5h-573v86h27q34 0 64.5 4.5t53.5 18.5t36.5 41.5t13.5 72.5v781h-248q-10 -94 -23 -187.5t-28 -181.5t-32.5 -168.5t-37.5 -149.5 q-28 -93 -57 -156.5t-64.5 -102.5t-80 -55.5t-101.5 -16.5q-82 0 -123 37.5t-41 105.5zM1028 94h148q68 0 116.5 12.5t79.5 40t45.5 71.5t14.5 106q0 104 -70 148t-199 44h-135v-422z" />
<glyph unicode="&#x45a;" horiz-adv-x="1862" d="M47 0v86h27q34 0 64.5 4.5t53.5 18.5t36.5 41.5t13.5 72.5v649q0 45 -13.5 72.5t-36.5 42.5t-53.5 20t-64.5 5h-27v86h561v-86h-6q-34 0 -64.5 -4.5t-53.5 -19t-36.5 -42t-13.5 -72.5v-264h512v262q0 45 -13.5 72.5t-36.5 42.5t-53.5 20t-64.5 5h-6v86h561v-86h-26 q-34 0 -64.5 -5t-53.5 -20t-36.5 -42.5t-13.5 -72.5v-262h137q95 0 180.5 -11t150.5 -43t103.5 -90t38.5 -153q0 -67 -26 -124.5t-78.5 -99.5t-132 -65.5t-187.5 -23.5h-553v86h6q34 0 64.5 4.5t53.5 18.5t36.5 41.5t13.5 72.5v293h-512v-293q0 -45 13.5 -72.5t36.5 -41.5 t53.5 -18.5t64.5 -4.5h6v-86h-561zM1139 94h147q68 0 116.5 12.5t79.5 40t45.5 71.5t14.5 106q0 104 -69.5 148t-198.5 44h-135v-422z" />
<glyph unicode="&#x45b;" horiz-adv-x="1300" d="M35 1214v97h186v20q0 45 -13.5 72.5t-36.5 42.5t-53.5 19.5t-64.5 4.5h-16v86h377v-245h350v-97h-350v-149q0 -28 -1 -58.5t-3 -56.5q-2 -30 -4 -59h10q92 186 301 186q87 0 154.5 -23.5t113.5 -72t70 -124.5t24 -181v-443q0 -48 12 -77t33 -44.5t50 -20.5t63 -5h6v-86 h-356v666q0 67 -12 119t-38.5 88t-69.5 54.5t-105 18.5q-64 0 -110.5 -23.5t-77 -67t-45.5 -105t-15 -136.5v-391q0 -45 13.5 -72.5t36.5 -41.5t53.5 -18.5t64.5 -4.5h6v-86h-551v86h16q35 0 65.5 5t53 20.5t36 44.5t13.5 77v981h-186z" />
<glyph unicode="&#x45c;" horiz-adv-x="1239" d="M18 0v86h37q34 0 65 5t53.5 20.5t36 44.5t13.5 77v639q0 45 -13.5 72.5t-36.5 42.5t-53.5 20t-64.5 5h-37v86h571v-86h-6q-33 0 -63.5 -4.5t-53.5 -18t-37 -39t-14 -67.5v-258q30 0 52 2.5t38.5 7.5t30 13t25.5 20q26 24 61 77t88 132q35 54 65.5 97t64.5 73t76 46.5 t101 16.5q87 0 131.5 -34.5t44.5 -90.5q0 -29 -8 -51t-21.5 -38t-31.5 -26t-37 -14q-4 23 -13 44t-23 36.5t-34 25t-45 9.5q-50 0 -92 -38.5t-94 -117.5q-28 -41 -50 -71.5t-41 -54.5t-37 -41.5t-38 -31.5q48 -2 84 -14.5t65.5 -34.5t53.5 -54.5t47 -74.5l107 -188 q48 -87 104 -125.5t125 -38.5h6v-86h-72q-78 0 -134 8t-97.5 29.5t-73.5 59t-63 96.5l-101 198q-23 45 -45 72t-51.5 42t-69.5 20t-98 5v-307q0 -45 13.5 -72.5t36.5 -41.5t53.5 -18.5t64.5 -4.5h6v-86h-571zM522 1241v27q23 29 47.5 67t48 78.5t45 81t37.5 74.5h219v-21 q-19 -27 -56 -67.5t-82 -84.5t-92.5 -85.5t-88.5 -69.5h-78z" />
<glyph unicode="&#x45d;" horiz-adv-x="1409" d="M47 0v86h27q34 0 64.5 4.5t53.5 18.5t36.5 41.5t13.5 72.5v649q0 45 -13.5 72.5t-36.5 42.5t-53.5 20t-64.5 5h-27v86h582v-86h-27q-34 0 -64.5 -4.5t-53.5 -19t-36.5 -42t-13.5 -72.5v-512l541 504v6q0 45 -13.5 72.5t-36.5 42.5t-53.5 20t-64.5 5h-6v86h561v-86h-27 q-34 0 -64.5 -4.5t-53.5 -19t-36.5 -42t-13.5 -72.5v-651q0 -45 13.5 -72.5t36.5 -41.5t53.5 -18.5t64.5 -4.5h27v-86h-582v86h27q34 0 64.5 4.5t53.5 18.5t36.5 41.5t13.5 72.5v510l-541 -500v-10q0 -45 13.5 -72.5t36.5 -41.5t53.5 -18.5t64.5 -4.5h27v-86h-582zM376 1548 v21h219q16 -34 37.5 -74.5t45.5 -81t49 -78.5t47 -67v-27h-78q-41 28 -89 69.5t-93 85.5t-82 84.5t-56 67.5z" />
<glyph unicode="&#x45e;" horiz-adv-x="1157" d="M8 1012v86h492v-86h-6q-62 0 -92.5 -24t-30.5 -75q0 -17 3.5 -34.5t12.5 -40.5l150 -365q14 -35 29.5 -76.5t29 -82t24.5 -76.5t15 -62h6q11 45 30.5 109.5t45.5 138.5l137 399q9 25 13.5 48t4.5 40q0 53 -33.5 77t-101.5 24h-6v86h426v-86h-6q-30 0 -51.5 -6.5 t-39 -24.5t-32.5 -49t-33 -80l-311 -860q-36 -99 -68 -174t-67 -128.5t-76.5 -88.5t-94.5 -56t-122 -29t-160 -8h-18v97q104 0 179 31t129.5 85t91 127.5t61.5 159.5l-379 895q-14 32 -27 52.5t-29.5 33.5t-38 18t-51.5 5h-6zM206 1518h170q5 -57 18.5 -93.5t38.5 -57 t63 -28.5t91 -8q44 0 80.5 9.5t63.5 31t44 57.5t23 89h174q-6 -62 -30.5 -113t-71 -87.5t-117 -56.5t-170.5 -20q-103 0 -173 19t-114 55t-64.5 87.5t-25.5 115.5z" />
<glyph unicode="&#x45f;" horiz-adv-x="1389" d="M47 0v86h27q34 0 64.5 4.5t53.5 19.5t36.5 42.5t13.5 72.5v649q0 45 -13.5 72.5t-36.5 42t-53.5 19t-64.5 4.5h-27v86h582v-86h-27q-34 0 -64.5 -4.5t-53.5 -19t-36.5 -42t-13.5 -72.5v-780h520v780q0 45 -13.5 72.5t-36.5 42t-53.5 19t-64.5 4.5h-26v86h581v-86h-26 q-34 0 -64.5 -4.5t-53.5 -19t-36.5 -42t-13.5 -72.5v-651q0 -45 13.5 -72.5t36.5 -41.5t53.5 -18.5t64.5 -4.5h26v-86h-432q-55 0 -88 -24.5t-51 -77t-23.5 -133.5t-5.5 -195h-94q0 114 -8.5 195t-30 133.5t-58 77t-91.5 24.5h-412z" />
<glyph unicode="&#x460;" horiz-adv-x="2011" d="M117 723q0 365 137 562.5t381 197.5q123 0 205 -57t82 -130q0 -127 -136 -127q-61 205 -194 205q-248 0 -248 -641q0 -618 328 -618q139 0 227 65v482h211v-463q117 -84 248 -84q307 0 307 618q0 641 -250 641q-136 0 -190 -205q-131 0 -131 115q0 80 95 139.5t243 59.5 q460 0 460 -738q0 -765 -555 -765q-208 0 -350 120q-153 -120 -360 -120q-510 0 -510 743z" />
<glyph unicode="&#x461;" horiz-adv-x="1665" d="M0 1018q92 86 186 86q116 0 194 -148.5t263 -769.5l176 402q-93 295 -180 510h195q119 -311 299 -916q115 126 191.5 317t76.5 330t-105 166q0 123 115 123q141 0 141 -198q0 -206 -132 -479.5t-318 -440.5h-107q-62 224 -135 459l-201 -459h-149q-174 596 -255 785.5 t-146 189.5q-38 0 -72 -21z" />
<glyph unicode="&#x462;" horiz-adv-x="1364" d="M41 920l8 245h350v72q0 139 -168 139h-26v86h606v-86h-37q-168 0 -168 -137v-74h367l10 -245h-96l-4 22q-15 81 -48 105t-137 24h-92v-262h129q549 0 549 -403q0 -190 -129 -298t-375 -108h-575v86h26q168 0 168 139v846h-73q-89 0 -128 -17.5t-57 -111.5l-4 -22h-96z M606 98h139q163 0 240.5 68t77.5 229q0 172 -80.5 245t-267.5 73h-109v-615z" />
<glyph unicode="&#x463;" horiz-adv-x="1219" d="M47 0v86h27q168 0 168 137v721h-195v96h195v291q0 139 -168 139h-27v86h387v-516h299v-96h-299v-334h199q257 0 365 -73t108 -224q0 -143 -110 -228t-314 -85h-635zM434 94h209q139 0 197.5 53.5t58.5 176.5q0 192 -268 192h-197v-422z" />
<glyph unicode="&#x464;" horiz-adv-x="1866" d="M78 0v86h26q168 0 168 147v1004q0 139 -168 139h-26v86h596v-86h-27q-168 0 -168 -147v-414h309q23 318 186.5 493t432.5 175q185 0 287 -63t102 -167q0 -128 -172 -143q-21 264 -227 264q-368 0 -383 -559h504v-100h-504q19 -600 393 -600q222 0 342 174q39 -25 39 -80 q0 -92 -112.5 -160.5t-303.5 -68.5q-271 0 -425.5 191t-160.5 542h-307v-480q0 -147 168 -147h27v-86h-596z" />
<glyph unicode="&#x465;" horiz-adv-x="1626" d="M47 0v86h27q168 0 168 137v649q0 140 -168 140h-27v86h561v-86h-6q-168 0 -168 -138v-264h297q27 508 457 508q150 0 253 -57t103 -152q0 -129 -182 -129q0 236 -174 236q-243 0 -256 -406h454v-110h-456q12 -387 309 -387q187 0 272 143q35 -27 35 -80 q0 -79 -94.5 -137.5t-253.5 -58.5q-454 0 -467 536h-297v-293q0 -137 168 -137h6v-86h-561z" />
<glyph unicode="&#x466;" horiz-adv-x="1415" d="M0 0v86h18q96 0 156 160l465 1216h149l492 -1265q43 -111 129 -111h6v-86h-483v86q131 3 131 84q0 33 -23 90l-170 453h-100v-713h-192v713h-101l-162 -439q-18 -49 -18 -88q0 -92 123 -100v-86h-420zM516 815h318l-43 117q-62 169 -113 336q-22 -76 -119 -336z" />
<glyph unicode="&#x467;" horiz-adv-x="1206" d="M6 0v86h4q78 0 146 160l364 852h180l375 -901q46 -111 117 -111h6v-86h-399v86q73 7 73 74q0 40 -24 100l-103 256h-100v-516h-172v516h-90l-100 -242q-28 -68 -28 -112q0 -66 67 -76v-86h-316zM422 610h287l-17 41q-63 152 -112 322h-7q-4 -11 -124 -299z" />
<glyph unicode="&#x468;" horiz-adv-x="2122" d="M78 0v86h26q168 0 168 147v1004q0 139 -168 139h-26v86h596v-86h-27q-168 0 -168 -147v-414h619l248 647h149l492 -1265q43 -111 129 -111h6v-86h-484v86q131 3 131 84q0 29 -22 90l-170 453h-100v-713h-193v713h-100l-162 -439q-18 -49 -18 -88q0 -92 122 -100v-86h-409 v86h8q96 0 156 160l178 467h-580v-480q0 -147 168 -147h27v-86h-596zM1223 815h317l-43 117q-62 169 -113 336q-29 -98 -118 -336z" />
<glyph unicode="&#x469;" horiz-adv-x="1702" d="M47 0v86h27q168 0 168 137v649q0 140 -168 140h-27v86h561v-86h-6q-168 0 -168 -138v-264h373l209 488h180l375 -901q46 -111 117 -111h6v-86h-400v86q73 7 73 74q0 40 -24 100l-102 256h-100v-516h-172v516h-90l-101 -242q-28 -68 -28 -112q0 -66 67 -76v-86h-315v86h4 q77 0 145 160l115 270h-332v-516h-387zM918 610h286l-16 41q-74 191 -113 322h-6z" />
<glyph unicode="&#x46a;" horiz-adv-x="1612" d="M0 0v86h6q69 0 107 33.5t69 130.5l111 346q69 215 301 215h45l-401 543v108h1138v-108l-422 -543h64q231 0 301 -215l111 -346q33 -101 71 -132.5t105 -31.5h6v-86h-17q-203 0 -268.5 40.5t-99.5 156.5l-105 352q-31 102 -77 136t-144 34v-486q0 -147 168 -147h6v-86 h-538v86h6q168 0 168 137v496q-100 0 -146 -35.5t-76 -134.5l-104 -352q-34 -116 -100 -156.5t-269 -40.5h-16zM465 1325l362 -491l373 491h-735z" />
<glyph unicode="&#x46b;" horiz-adv-x="1438" d="M6 0v86h6q60 0 89.5 34.5t66.5 129.5l76 188q71 177 301 187l-324 372v101h1002v-101l-338 -372q237 -7 309 -187l76 -188q46 -113 75 -138.5t80 -25.5h7v-86h-43q-157 0 -209 35t-97 158l-71 198q-33 91 -74 117.5t-129 26.5v-312q0 -67 23 -102t104 -35h6v-86h-448v86 h8q80 0 103.5 35.5t23.5 111.5v302q-96 0 -133 -28.5t-70 -115.5l-72 -198q-48 -132 -103.5 -162.5t-201.5 -30.5h-43zM442 971l291 -346h10l310 346h-611z" />
<glyph unicode="&#x46c;" horiz-adv-x="2329" d="M78 0v86h26q168 0 168 147v1004q0 139 -168 139h-26v86h596v-86h-27q-168 0 -168 -147v-414h873l-398 539v108h1139v-108l-422 -543h64q231 0 301 -215l110 -346q31 -97 69.5 -130.5t106.5 -33.5h7v-86h-17q-203 0 -268.5 40.5t-99.5 156.5l-105 352q-31 102 -77 136 t-144 34v-486q0 -147 168 -147h6v-86h-539v86h7q167 0 167 137v496q-100 0 -145.5 -35.5t-75.5 -134.5l-104 -352q-34 -116 -100 -156.5t-269 -40.5h-16v86h6q69 0 107 33.5t69 130.5l111 346q24 75 61 117h-592v-480q0 -147 168 -147h27v-86h-596zM1182 1325l362 -491 l373 491h-735z" />
<glyph unicode="&#x46d;" horiz-adv-x="1933" d="M47 0v86h27q168 0 168 137v649q0 140 -168 140h-27v86h561v-86h-6q-168 0 -168 -138v-264h606l-323 387v101h1001v-101l-338 -387q235 -11 310 -186l75 -174q39 -91 68 -127.5t88 -36.5h6v-86h-43q-136 0 -192.5 27.5t-112.5 165.5l-72 184q-34 86 -77 114.5t-125 28.5 v-297q0 -67 23 -102t104 -35h6v-86h-449v86h8q80 0 103.5 35.5t23.5 111.5v287q-106 0 -142 -31t-60 -98l-72 -198q-48 -132 -103.5 -162.5t-201.5 -30.5h-43v86h6q53 0 84.5 31t71.5 133l75 188q21 52 45 78h-350v-516h-387zM938 971l291 -361h10l309 361h-610z" />
<glyph unicode="&#x46e;" horiz-adv-x="1235" d="M127 1208q0 237 369 271q-67 98 -179 233v27h80q101 -62 228 -195q125 197 264 197q90 0 90 -72q0 -25 -14 -53q-38 12 -70 12q-109 0 -190 -153q364 -48 364 -334q0 -287 -330 -367v-10q371 -47 371 -346q0 -189 -122.5 -293t-426.5 -125q-211 -14 -211 -147 q0 -129 152 -129q90 0 227.5 55t224.5 55q176 0 176 -143q0 -96 -120 -121q-31 96 -127 96q-52 0 -187.5 -26.5t-214.5 -26.5q-346 0 -346 237q0 114 91.5 179t310 81.5t282.5 91.5t64 218q0 135 -92.5 210t-258.5 75h-174v104h174q138 0 230 88t92 229q0 254 -272 254 q-279 0 -279 -305q-176 0 -176 133z" />
<glyph unicode="&#x46f;" horiz-adv-x="1001" d="M43 -152q0 101 80 160t323.5 79t243.5 232q0 201 -239 201h-191v111h193q96 0 151 53.5t55 142.5q0 195 -184 195q-211 0 -211 -221q-162 0 -162 123q0 148 250 184q-48 70 -166 217v27h80q101 -62 228 -195q125 197 264 197q90 0 90 -72q0 -25 -14 -53q-38 12 -70 12 q-103 0 -180 -133q270 -45 270 -260q0 -194 -207 -266v-11q242 -58 242 -254q0 -297 -463 -333q-188 -17 -188 -134q0 -118 135 -118q80 0 210 53t208 53q151 0 151 -133q0 -84 -111 -108q-23 86 -114 86q-51 0 -167 -24t-194 -24q-313 0 -313 213z" />
<glyph unicode="&#x470;" horiz-adv-x="1696" d="M25 1376v86h370v-483q0 -97 13 -167.5t47.5 -116.5t94 -67.5t152.5 -21.5h48v623q0 48 -13.5 77t-36 44.5t-53 20.5t-65.5 5h-27v86h586v-86h-27q-34 0 -65 -5t-53.5 -20.5t-36 -44.5t-13.5 -77v-623h47q93 0 152.5 21.5t94 67.5t47.5 116.5t13 167.5v483h371v-86 q-34 0 -65 -5t-53.5 -20.5t-36 -44.5t-13.5 -77v-254q0 -61 -8 -119t-28.5 -110t-56 -95t-90 -74.5t-130 -49t-176.5 -17.5h-68v-277q0 -48 13.5 -77t36 -44.5t53.5 -20.5t65 -5h27v-86h-586v86h27q35 0 65.5 5t53 20.5t36 44.5t13.5 77v277h-68q-101 0 -177 17.5t-130.5 49 t-89.5 74.5t-55.5 95t-28.5 110t-8 119v254q0 48 -13.5 77t-36 44.5t-53 20.5t-65.5 5z" />
<glyph unicode="&#x471;" horiz-adv-x="1421" d="M37 1012v86h377v-672q0 -146 78 -226t225 -89v1445h123v-1441q96 13 162.5 54t108.5 103.5t60.5 144t18.5 175.5q0 86 -13 151t-36 113t-55.5 80t-71.5 51q0 30 9.5 53t26 38.5t38 23.5t45.5 8q81 0 128.5 -114.5t47.5 -344.5q0 -79 -9.5 -155.5t-31 -146t-57.5 -130.5 t-88 -108t-122 -79t-161 -44v-480h-123v472q-125 1 -218.5 30.5t-155 84.5t-92 134t-30.5 179v464q0 45 -15 72.5t-40 42.5t-57 20t-66 5h-6z" />
<glyph unicode="&#x472;" horiz-adv-x="1520" d="M115 735q0 357 167.5 553.5t479.5 196.5q299 0 470 -200.5t171 -551.5q0 -350 -171.5 -551.5t-471.5 -201.5q-311 0 -478 199.5t-167 555.5zM340 713q7 -623 420 -623q408 0 418 623q-123 -76 -240 -76q-79 0 -222.5 65.5t-223.5 65.5q-79 0 -152 -55zM342 815 q121 76 240 76q77 0 219 -65.5t223 -65.5q79 0 152 55q-25 559 -414 559q-399 0 -420 -559z" />
<glyph unicode="&#x473;" horiz-adv-x="1182" d="M113 551q0 567 481 567q475 0 475 -567q0 -571 -481 -571q-475 0 -475 571zM309 518q9 -432 283 -432q271 0 280 432q-84 -47 -145 -47q-62 0 -160.5 43t-152.5 43q-55 0 -105 -39zM311 621q85 47 144 47q62 0 161 -43t152 -43q55 0 102 39q-18 389 -280 389t-279 -389z " />
<glyph unicode="&#x474;" horiz-adv-x="1421" d="M0 1376v86h563v-86h-47q-123 0 -123 -98q0 -27 17 -76l225 -665q46 -136 92 -336q48 224 80 336l160 561q63 221 143 299t201 78t121 -105q0 -67 -68 -94q-29 47 -82 47q-60 0 -102 -52t-88 -194l-328 -1077h-150l-442 1268q-38 108 -145 108h-27z" />
<glyph unicode="&#x475;" horiz-adv-x="1200" d="M8 1012v86h512v-86h-26q-123 0 -123 -99q0 -29 16 -75l139 -387q72 -199 90 -308h7q63 281 98 394l61 202q66 219 129.5 295t186.5 76t123 -104q0 -66 -68 -95q-36 60 -82 60q-50 0 -84 -38.5t-86 -207.5l-225 -725h-187l-329 903q-40 109 -146 109h-6z" />
<glyph unicode="&#x476;" horiz-adv-x="1421" d="M0 1376v86h563v-86h-47q-123 0 -123 -98q0 -27 17 -76l225 -665q46 -136 92 -336q48 224 80 336l160 561q63 221 143 299t201 78t121 -105q0 -67 -68 -94q-29 47 -82 47q-60 0 -102 -52t-88 -194l-328 -1077h-150l-442 1268q-38 108 -145 108h-27zM280 1886v21h199 q80 -168 174 -301v-27h-100q-161 135 -273 307zM643 1886v21h198q80 -168 174 -301v-27h-100q-160 134 -272 307z" />
<glyph unicode="&#x477;" horiz-adv-x="1200" d="M8 1012v86h512v-86h-26q-123 0 -123 -99q0 -29 16 -75l139 -387q72 -199 90 -308h7q63 281 98 394l61 202q66 219 129.5 295t186.5 76t123 -104q0 -66 -68 -95q-36 60 -82 60q-50 0 -84 -38.5t-86 -207.5l-225 -725h-187l-329 903q-40 109 -146 109h-6zM145 1548v21h199 q80 -168 174 -301v-27h-100q-161 135 -273 307zM508 1548v21h198q80 -168 174 -301v-27h-100q-160 134 -272 307z" />
<glyph unicode="&#x478;" horiz-adv-x="2517" d="M115 735q0 359 156.5 554.5t449.5 195.5q280 0 440 -200.5t160 -551.5q0 -349 -160 -551t-442 -202q-291 0 -447.5 198t-156.5 557zM342 733q0 -643 377 -643q375 0 375 643q0 641 -373 641q-379 0 -379 -641zM1389 1012v86h491v-86h-6q-123 0 -123 -99q0 -34 16 -75 l146 -373q76 -194 92 -289h6q11 45 32 109t44 139l127 399q18 57 18 88q0 101 -135 101h-6v86h426v-86h-6q-61 0 -90 -30t-66 -130l-301 -860q-121 -345 -228.5 -414.5t-348.5 -69.5h-19v97q340 0 451 403l-369 895q-45 109 -145 109h-6z" />
<glyph unicode="&#x479;" horiz-adv-x="2134" d="M113 551q0 567 460 567q455 0 455 -567q0 -571 -461 -571q-454 0 -454 571zM311 551q0 -465 260 -465q134 0 196 110t62 355q0 239 -61 349t-199 110q-134 0 -196 -107.5t-62 -351.5zM1006 1012v86h491v-86h-6q-123 0 -123 -99q0 -34 16 -75l146 -373q76 -194 92 -289h6 q11 45 32 109t44 139l127 399q18 57 18 88q0 101 -135 101h-6v86h426v-86h-6q-61 0 -90 -30t-66 -130l-301 -860q-121 -345 -228.5 -414.5t-348.5 -69.5h-19v97q340 0 451 403l-369 895q-45 109 -145 109h-6z" />
<glyph unicode="&#x47a;" horiz-adv-x="1602" d="M115 735q0 640 542 738q21 112 144 112q119 0 143 -112q256 -46 398.5 -241t142.5 -499q0 -301 -141 -497t-400 -244q-25 -117 -143 -117q-121 0 -144 117q-542 95 -542 743zM342 733q0 -537 322 -624q28 86 137 86q104 0 135 -86q321 85 321 624q0 538 -321 623 q-27 -90 -135 -90t-137 88q-322 -89 -322 -621z" />
<glyph unicode="&#x47b;" horiz-adv-x="1305" d="M113 551q0 497 417 559q10 96 125 96q111 0 123 -98q414 -68 414 -557q0 -497 -412 -561q-18 -101 -125 -101q-113 0 -125 99q-417 68 -417 563zM311 551q0 -392 224 -451q16 76 120 76q101 0 119 -74q219 59 219 449q0 381 -219 442q-18 -73 -119 -73q-104 0 -120 75 q-224 -57 -224 -444z" />
<glyph unicode="&#x47c;" horiz-adv-x="2011" d="M119 737q0 360 136 553t382 193q123 0 203 -56.5t80 -130.5q0 -127 -136 -127q-39 125 -80.5 165t-109.5 40q-248 0 -248 -641q0 -618 328 -618q164 0 325 202h13q161 -202 325 -202q328 0 328 618q0 641 -248 641q-70 0 -111 -43t-79 -162q-135 0 -135 127 q0 73 79.5 130t202.5 57q246 0 382 -193t136 -553q0 -757 -510 -757q-209 0 -376 141q-168 -141 -377 -141q-510 0 -510 757zM676 1864q18 241 233 241q71 0 229.5 -56t270.5 -56h14v-129h-41q-125 0 -285 56t-218 56q-96 0 -107 -86l-4 -26h-92zM901 1546v64 q129 37 129 100q0 22 -49 47.5t-49 67.5q0 71 96 71q115 0 115 -106q0 -181 -242 -244z" />
<glyph unicode="&#x47d;" horiz-adv-x="1616" d="M104 543q0 575 385 575q131 0 205 -51.5t74 -124.5q0 -111 -141 -111q0 103 -30 144t-110 41q-102 0 -143 -108t-41 -363q0 -453 232 -453q180 0 270 178h12q90 -178 270 -178q230 0 230 453q0 255 -41 363t-143 108q-80 0 -110 -41t-30 -144q-141 0 -141 111 q0 74 74.5 125t203.5 51q386 0 386 -575q0 -268 -108.5 -415.5t-309.5 -147.5q-177 0 -287 102q-107 -102 -287 -102q-201 0 -310.5 146.5t-109.5 416.5zM426 1559q18 241 233 241q71 0 229.5 -56t270.5 -56h15v-129h-41q-126 0 -286 56t-218 56q-96 0 -107 -86l-4 -26h-92z M651 1241v64q129 37 129 100q0 22 -49 47.5t-49 67.5q0 71 96 71q115 0 115 -106q0 -181 -242 -244z" />
<glyph unicode="&#x47e;" horiz-adv-x="2011" d="M117 723q0 365 137 562.5t381 197.5q123 0 205 -57t82 -130q0 -127 -136 -127q-61 205 -194 205q-248 0 -248 -641q0 -618 328 -618q139 0 227 65v482h211v-463q117 -84 248 -84q307 0 307 618q0 641 -250 641q-136 0 -190 -205q-131 0 -131 115q0 80 95 139.5t243 59.5 q460 0 460 -738q0 -765 -555 -765q-208 0 -350 120q-153 -120 -360 -120q-510 0 -510 743zM588 1769v27h831v-27l-82 -172h-34l-50 103h-184l-49 -103h-35l-49 103h-184l-50 -103h-34z" />
<glyph unicode="&#x47f;" horiz-adv-x="1665" d="M0 1018q92 86 186 86q116 0 194 -148.5t263 -769.5l176 402q-93 295 -180 510h195q119 -311 299 -916q115 126 191.5 317t76.5 330t-105 166q0 123 115 123q141 0 141 -198q0 -206 -132 -479.5t-318 -440.5h-107q-62 224 -135 459l-201 -459h-149q-174 596 -255 785.5 t-146 189.5q-38 0 -72 -21zM416 1417v27h831v-27l-82 -172h-35l-49 103h-184l-49 -103h-35l-49 103h-184l-50 -103h-34z" />
<glyph unicode="&#x480;" horiz-adv-x="1257" d="M117 733q0 347 174 548.5t483 201.5q198 0 306 -63t108 -167q0 -64 -50 -103.5t-128 -39.5q0 118 -63 191t-177 73q-426 0 -426 -641q0 -618 426 -618q100 0 186 37h9v-408q0 -147 168 -147h26v-86h-596v86h27q168 0 168 147v236h-19q-295 0 -458.5 201.5t-163.5 551.5z " />
<glyph unicode="&#x481;" horiz-adv-x="1008" d="M113 543q0 575 456 575q150 0 253.5 -57.5t103.5 -151.5q0 -129 -183 -129q0 236 -174 236q-138 0 -198 -115t-60 -356q0 -432 310 -432q96 0 170 45h4v-647h-193v469h-22q-467 0 -467 563z" />
<glyph unicode="&#x482;" horiz-adv-x="1247" d="M104 547l70 123l287 -164l198 346l-284 164l71 125l285 -164l182 313l127 -73l-182 -316l287 -164l-74 -123l-283 164l-200 -346l284 -166l-71 -123l-285 164l-180 -313l-129 74l180 315z" />
<glyph unicode="&#x483;" horiz-adv-x="1141" d="M201 1274q0 59 21.5 77.5t76.5 18.5h449q10 94 98 94q98 0 98 -104q0 -57 -21.5 -77.5t-78.5 -20.5h-449q-13 -95 -98 -95q-96 0 -96 107z" />
<glyph unicode="&#x484;" horiz-adv-x="1182" d="M244 1253v129h14q114 0 270.5 56.5t229.5 56.5q215 0 233 -242h-92l-4 27q-13 86 -107 86q-60 0 -218 -56.5t-285 -56.5h-41z" />
<glyph unicode="&#x485;" horiz-adv-x="1182" d="M481 1462q0 127 127 127q97 0 97 -76q0 -40 -49.5 -61t-49.5 -45q0 -51 117 -92v-76q-242 61 -242 223z" />
<glyph unicode="&#x486;" horiz-adv-x="1182" d="M481 1239v76q117 41 117 92q0 23 -49 45t-49 61q0 76 96 76q127 0 127 -127q0 -162 -242 -223z" />
<glyph unicode="&#x488;" horiz-adv-x="2025" d="M41 459q13 194 209 194t213 -194h-80q-6 88 -133 88q-131 0 -133 -88h-76zM219 -41q14 195 209 195q196 0 213 -195h-80q-7 88 -133 88q-131 0 -133 -88h-76zM219 946q14 195 209 195q196 0 213 -195h-80q-6 88 -133 88q-131 0 -133 -88h-76zM793 -319q14 194 208 194 q196 0 213 -194h-79q-8 88 -134 88q-130 0 -133 -88h-75zM793 1231q13 194 208 194q196 0 213 -194h-79q-7 88 -134 88q-130 0 -133 -88h-75zM1372 -41q14 195 209 195q196 0 213 -195h-80q-7 88 -133 88q-131 0 -133 -88h-76zM1372 946q14 195 209 195q196 0 213 -195h-80 q-6 88 -133 88q-131 0 -133 -88h-76zM1563 459q13 194 209 194q195 0 213 -194h-80q-7 88 -133 88q-131 0 -134 -88h-75z" />
<glyph unicode="&#x489;" horiz-adv-x="1958" d="M41 565v97q210 -50 350 -70v-139l-14 -11q-156 41 -336 123zM238 -55q175 109 297 198l98 -98l-2 -16q-140 -81 -324 -152zM324 1202l67 70q107 -171 199 -297l-98 -98l-17 2q-84 149 -151 323zM870 -385q50 210 70 350h139l11 -14q-41 -156 -123 -336h-97zM870 1155 q43 160 123 336h97q-50 -210 -70 -350h-139zM1325 1018l2 16q150 85 324 152l69 -68q-175 -109 -297 -198zM1366 86l98 98l17 -2q81 -140 151 -323l-67 -70q-110 175 -199 297zM1567 512v139l14 11q160 -43 336 -123v-97q-210 50 -350 70z" />
<glyph unicode="&#x48a;" horiz-adv-x="1645" d="M78 0v86h26q168 0 168 147v1004q0 139 -168 139h-26v86h596v-86h-27q-168 0 -168 -147v-811l686 770v41q0 147 -168 147h-26v86h596v-86h-27q-168 0 -168 -147v-993q0 -71 33 -106.5t137 -35.5h82v-10l-131 -514h-168l170 430h-524v86h26q168 0 168 147v811l-686 -770 v-41q0 -147 168 -147h27v-86h-596zM440 1855h170q8 -101 50 -143.5t161 -42.5q194 0 211 186h174q-26 -276 -389 -276q-362 0 -377 276z" />
<glyph unicode="&#x48b;" horiz-adv-x="1409" d="M47 0v86h27q168 0 168 137v649q0 140 -168 140h-27v86h582v-86h-27q-168 0 -168 -138v-512l541 504v6q0 140 -168 140h-6v86h561v-86h-27q-168 0 -168 -138v-649q0 -63 31 -97t137 -34h82v-10l-129 -514h-166l170 430h-512v86h27q168 0 168 137v510l-541 -500v-10 q0 -137 168 -137h27v-86h-582zM332 1518h170q8 -101 49 -144t162 -43q192 0 211 187h174q-28 -277 -389 -277q-362 0 -377 277z" />
<glyph unicode="&#x48c;" horiz-adv-x="1237" d="M78 0v86h26q168 0 168 139v926h-194v100h194v305h207v-305h348v-100h-348v-342h129q549 0 549 -403q0 -190 -129 -298t-375 -108h-575zM479 98h139q163 0 240.5 68t77.5 229q0 172 -80.5 245t-267.5 73h-109v-615z" />
<glyph unicode="&#x48d;" horiz-adv-x="1219" d="M47 0v86h27q168 0 168 137v721h-195v96h195v279h192v-279h299v-96h-299v-334h199q257 0 365 -73t108 -224q0 -143 -110 -228t-314 -85h-635zM434 94h209q139 0 197.5 53.5t58.5 176.5q0 192 -268 192h-197v-422z" />
<glyph unicode="&#x48e;" horiz-adv-x="1237" d="M78 0v86h26q168 0 168 147v1004q0 139 -168 139h-26v86h575q504 0 504 -428q0 -274 -219 -393l113 -160l-82 -55l-123 176q-102 -33 -238 -33h-129v-346q0 -137 168 -137h68v-86h-637zM479 666h109q117 0 190 30l-129 187l82 55l129 -184q76 85 76 272q0 180 -75.5 259 t-242.5 79h-139v-698z" />
<glyph unicode="&#x48f;" horiz-adv-x="1257" d="M27 1012v86h358l21 -185h8q98 205 313 205q418 0 418 -567q0 -381 -187 -508l101 -143l-82 -56l-109 156q-57 -20 -141 -20q-214 0 -313 180h-8q8 -212 8 -232v-196q0 -138 168 -138h6v-86h-551v86h16q168 0 168 148v1130q0 140 -168 140h-26zM414 551q0 -237 66 -338.5 t214 -101.5q52 0 86 14l-123 176l82 55l121 -174q86 105 86 371q0 434 -254 434q-150 0 -214 -98t-64 -338z" />
<glyph unicode="&#x490;" horiz-adv-x="1114" d="M78 0v86h26q35 0 65.5 5t53.5 20.5t36 44.5t13 77v996q0 48 -13 77t-36 44.5t-53.5 20.5t-65.5 5h-26v86h663q60 0 97.5 12.5t59.5 36.5t32.5 58.5t15.5 77.5l8 71h107l-12 -358h-570v-1135q0 -45 13.5 -72.5t36.5 -42.5t53.5 -19.5t64.5 -4.5h68v-86h-637z" />
<glyph unicode="&#x491;" horiz-adv-x="911" d="M47 0v86h27q34 0 64.5 4.5t53.5 18.5t36.5 41.5t13.5 72.5v647q0 45 -13.5 72.5t-36.5 42.5t-53.5 20t-64.5 5h-27v88h555q35 0 59 8t40 27t26.5 51t17.5 80l11 67h100v-327h-422v-781q0 -45 13.5 -72.5t36.5 -41.5t53.5 -18.5t64.5 -4.5h47v-86h-602z" />
<glyph unicode="&#x492;" horiz-adv-x="1149" d="M47 705v100h225v424q0 147 -168 147h-26v86h1018l12 -358h-107l-8 72q-12 107 -58.5 145.5t-146.5 38.5h-309v-555h318v-100h-318v-480q0 -139 168 -139h68v-86h-637v86h26q168 0 168 147v472h-225z" />
<glyph unicode="&#x493;" horiz-adv-x="938" d="M47 0v86h27q168 0 168 137v285h-195v96h195v268q0 140 -168 140h-27v86h850v-328h-100l-11 68q-17 106 -47.5 136t-95.5 30h-209v-400h240v-96h-240v-285q0 -137 168 -137h47v-86h-602z" />
<glyph unicode="&#x494;" horiz-adv-x="1348" d="M78 0v86h26q168 0 168 147v996q0 147 -168 147h-26v86h1018l12 -358h-107l-8 72q-12 107 -58.5 145.5t-146.5 38.5h-309v-569q74 12 183 12q260 0 439 -167t179 -478q0 -329 -151 -499.5t-427 -170.5q-208 0 -314.5 59t-106.5 158q0 148 172 148q0 -252 249 -252 q371 0 371 553q0 260 -141.5 394t-353.5 134q-52 0 -99 -6v-451q0 -139 168 -139h68v-86h-637z" />
<glyph unicode="&#x495;" horiz-adv-x="1124" d="M47 0v86h27q168 0 168 137v649q0 140 -168 140h-27v86h850v-328h-100l-11 68q-17 106 -47.5 136t-95.5 30h-209v-404q69 14 146 14q227 0 360 -136t133 -400q0 -280 -125 -425t-334 -145q-346 0 -346 191q0 131 152 131q0 -223 205 -223q249 0 249 463q0 438 -325 438 q-73 0 -115 -8v-277q0 -137 168 -137h47v-86h-602z" />
<glyph unicode="&#x496;" horiz-adv-x="2120" d="M0 0v86h6q140 0 230 164l192 346q53 95 105 134.5t153 43.5q-44 28 -176.5 288.5t-241.5 260.5q-99 0 -121 -115q-98 25 -98 138q0 129 166 129q125 0 209.5 -96t196 -319t152 -250.5t134.5 -27.5v455q0 139 -168 139h-6v86h539v-86h-6q-168 0 -168 -147v-447 q93 0 133.5 27t152 250t196.5 319.5t210 96.5q166 0 166 -129q0 -113 -98 -138q-22 115 -121 115q-109 0 -241.5 -260.5t-176.5 -288.5q100 -4 153 -43.5t105 -134.5l192 -346q91 -164 256 -164h31v-516h-94q0 199 -36 285t-181 149q-106 48 -178 189l-187 356 q-48 92 -93.5 115.5t-188.5 23.5v-455q0 -147 168 -147h6v-86h-539v86h6q168 0 168 137v465q-142 0 -188 -23.5t-94 -115.5l-187 -356q-69 -132 -149.5 -162.5t-259.5 -30.5h-29z" />
<glyph unicode="&#x497;" horiz-adv-x="1884" d="M6 0v86h6q127 0 217 164l107 188q98 172 270 178q-44 25 -157 190t-195 165q-93 0 -115 -115q-98 24 -98 129q0 125 176 125q112 0 166 -52t169 -223t151.5 -190.5t107.5 -19.5v247q0 140 -147 140h-9v86h490v-86h-6q-148 0 -148 -129v-258q73 0 109 20t150.5 190.5 t168.5 222.5t166 52q176 0 176 -125q0 -105 -98 -129q-21 115 -115 115q-82 0 -195 -165t-157 -190q173 -6 270 -178l107 -192q85 -152 223 -152h41v-524h-100l-11 149q-10 140 -49.5 198.5t-141.5 98.5t-165 177l-94 198q-41 87 -101.5 113t-183.5 26v-307q0 -137 148 -137 h6v-86h-490v86h9q147 0 147 147v297q-140 0 -193 -31.5t-92 -107.5l-100 -198q-56 -111 -118 -152t-230 -41h-72z" />
<glyph unicode="&#x498;" horiz-adv-x="1235" d="M92 231q0 76 46 114t126 38q0 -54 17.5 -106.5t53.5 -94t91.5 -67t132.5 -25.5q72 0 132 17t102.5 56t66 102t23.5 155q0 64 -22.5 117t-67 90t-110 57.5t-151.5 20.5h-174v104h174q68 0 126.5 22t102 63.5t68.5 100t25 131.5q0 60 -15 107t-47.5 80t-84.5 50t-125 17 q-86 0 -140.5 -25t-85.5 -67t-42 -97t-11 -116q-37 0 -69 6t-56 21.5t-37.5 41t-13.5 64.5q0 59 29 109.5t86.5 87t142.5 57.5t197 21q107 0 196.5 -20t154 -62t100.5 -106.5t36 -153.5q0 -80 -26 -141t-70.5 -106t-104.5 -74.5t-129 -45.5v-10q57 -7 122 -25t120.5 -56.5 t92 -102.5t36.5 -162q0 -119 -44.5 -202.5t-120 -136.5t-175 -77.5t-209.5 -24.5q-130 0 -219.5 23.5t-145 60t-80 81.5t-24.5 89zM441 -362q0 29 14 53q45 -17 84 -17q86 0 86 88q0 111 -139 238h108q181 -121 181 -252q0 -194 -201 -194q-133 0 -133 84z" />
<glyph unicode="&#x499;" horiz-adv-x="1001" d="M82 201q0 131 151 131q0 -54 14 -100.5t42 -80.5t70.5 -53.5t99.5 -19.5q118 0 174.5 64.5t56.5 176.5q0 104 -63.5 152.5t-175.5 48.5h-191v111h193q52 0 91 15.5t64.5 42t38 62t12.5 76.5q0 40 -9.5 75.5t-31 62t-57 42t-86.5 15.5q-103 0 -157 -59t-54 -162 q-81 0 -121.5 29t-40.5 94q0 37 22 72t68 61.5t117.5 42.5t169.5 16q88 0 157.5 -18.5t118 -53t74 -84.5t25.5 -112q0 -49 -15 -91.5t-42.5 -76t-65.5 -58.5t-84 -40v-11q53 -13 97.5 -33.5t76.5 -51.5t50 -72.5t18 -96.5q0 -71 -25 -132t-78.5 -107t-136.5 -72t-200 -26 q-110 0 -181 21t-112.5 53.5t-57.5 71.5t-16 75zM324 -362q0 29 14 53q45 -17 84 -17q86 0 86 88q0 111 -139 238h108q181 -121 181 -252q0 -194 -201 -194q-133 0 -133 84z" />
<glyph unicode="&#x49a;" horiz-adv-x="1518" d="M78 0v86h26q168 0 168 137v1014q0 139 -168 139h-26v86h596v-86h-27q-168 0 -168 -147v-447q107 0 148 24.5t153.5 250t197.5 322t210 96.5q166 0 166 -129q0 -113 -99 -138q-22 115 -120 115q-109 0 -241.5 -260.5t-176.5 -288.5q99 -4 152.5 -43.5t105.5 -134.5 l209 -379q72 -131 239 -131h31v-516h-94q0 199 -36 285t-181 149q-106 48 -178 189l-187 356q-46 88 -95 113.5t-204 25.5v-455q0 -147 168 -147h27v-86h-596z" />
<glyph unicode="&#x49b;" horiz-adv-x="1315" d="M37 0v86h37q168 0 168 147v639q0 140 -168 140h-37v86h571v-86h-6q-168 0 -168 -129v-258q86 0 122.5 24t145 188t166.5 218.5t168 54.5q176 0 176 -125q0 -105 -98 -129q-21 115 -115 115q-82 0 -195 -165t-157 -190q149 -1 250 -178l104 -186q88 -158 220 -158h47v-524 h-101l-10 149q-10 143 -51.5 200.5t-139 98t-167.5 175.5l-101 198q-49 96 -100.5 117.5t-163.5 21.5v-307q0 -137 168 -137h6v-86h-571z" />
<glyph unicode="&#x49c;" horiz-adv-x="1495" d="M78 0v86h26q168 0 168 137v1014q0 139 -168 139h-26v86h596v-86h-27q-168 0 -168 -147v-447h119v332h123v-276q0 2 4 6q27 33 178 332t346 299q166 0 166 -129q0 -113 -98 -138q-22 115 -121 115q-108 0 -240 -260t-178 -289q100 -4 152.5 -43t105.5 -135l193 -346 q91 -164 229 -164h6v-86h-28q-176 0 -258 29.5t-152 163.5l-186 356q-54 103 -119 123v-316h-123v332h-119v-455q0 -147 168 -147h27v-86h-596z" />
<glyph unicode="&#x49d;" horiz-adv-x="1321" d="M37 0v86h37q168 0 168 147v639q0 140 -168 140h-37v86h571v-86h-6q-168 0 -168 -129v-258h109v245h116v-219q30 36 111 187.5t145.5 211.5t182.5 60q176 0 176 -125q0 -105 -98 -129q-22 115 -115 115q-57 0 -101.5 -44.5t-116.5 -159t-104 -151.5q122 -1 219 -178 l107 -188q93 -164 229 -164h6v-86h-71q-163 0 -235.5 38.5t-133.5 154.5l-100 198q-54 108 -101 125v-235h-116v249h-109v-307q0 -137 168 -137h6v-86h-571z" />
<glyph unicode="&#x49e;" horiz-adv-x="1434" d="M78 0v86h26q168 0 168 137v897h-194v101h194v16q0 139 -168 139h-26v86h596v-86h-27q-168 0 -168 -147v-8h195v-101h-195v-338q107 0 148 24.5t153.5 250t197.5 322t210 96.5q166 0 166 -129q0 -113 -99 -138q-22 115 -120 115q-109 0 -241.5 -260.5t-176.5 -288.5 q99 -4 152.5 -43.5t105.5 -134.5l192 -346q91 -164 230 -164h6v-86h-29q-179 0 -259.5 30.5t-149.5 162.5l-187 356q-46 88 -95 113.5t-204 25.5v-455q0 -147 168 -147h27v-86h-596z" />
<glyph unicode="&#x49f;" horiz-adv-x="1260" d="M37 0v86h37q168 0 168 147v981h-187v97h187v20q0 139 -168 139h-17v86h377v-245h264v-97h-264v-589q86 0 122.5 24t145 188t166.5 218.5t168 54.5q176 0 176 -125q0 -105 -98 -129q-21 115 -115 115q-82 0 -195 -165t-157 -190q154 -2 250 -178l107 -188 q93 -164 229 -164h6v-86h-72q-165 0 -236.5 39.5t-131.5 153.5l-101 198q-43 84 -90.5 111.5t-173.5 27.5v-307q0 -137 168 -137h6v-86h-571z" />
<glyph unicode="&#x4a0;" horiz-adv-x="1608" d="M41 1217l8 245h799v-86h-27q-168 0 -168 -147v-447q107 0 148 24.5t153.5 250t197.5 322t210 96.5q166 0 166 -129q0 -113 -98 -138q-22 115 -121 115q-109 0 -241.5 -260.5t-176.5 -288.5q99 -4 152.5 -43.5t105.5 -134.5l192 -346q91 -164 230 -164h6v-86h-29 q-179 0 -259.5 30.5t-149.5 162.5l-187 356q-46 88 -95 113.5t-204 25.5v-455q0 -147 168 -147h27v-86h-596v86h27q167 0 167 137v1145h-161q-73 0 -101 -26.5t-43 -102.5l-4 -22h-96z" />
<glyph unicode="&#x4a1;" horiz-adv-x="1450" d="M41 854l8 244h750v-86h-6q-168 0 -168 -129v-258q79 0 117 21t151.5 190.5t167.5 221.5t166 52q176 0 176 -125q0 -105 -98 -129q-22 115 -115 115q-82 0 -195 -165t-157 -190q153 -2 249 -178l107 -188q93 -164 229 -164h7v-86h-72q-163 0 -235.5 38.5t-133.5 154.5 l-100 198q-44 88 -95.5 113.5t-168.5 25.5v-307q0 -137 168 -137h6v-86h-572v86h37q168 0 168 147v773h-151q-73 0 -101 -26.5t-43 -102.5l-4 -23h-92z" />
<glyph unicode="&#x4a2;" horiz-adv-x="1624" d="M78 0v86h26q168 0 168 147v1004q0 139 -168 139h-26v86h596v-86h-27q-168 0 -168 -147v-414h666v414q0 147 -168 147h-27v86h596v-86h-26q-168 0 -168 -147v-996q0 -147 168 -147h41v-516h-95q0 430 -313 430h-203v86h27q168 0 168 147v480h-666v-480q0 -147 168 -147h27 v-86h-596z" />
<glyph unicode="&#x4a3;" horiz-adv-x="1409" d="M47 0v86h27q168 0 168 137v649q0 140 -168 140h-27v86h561v-86h-6q-168 0 -168 -138v-264h541v262q0 140 -168 140h-6v86h561v-86h-27q-168 0 -168 -138v-645q0 -135 152 -135h43v-524h-100l-11 149q-21 281 -198 281h-252v86h6q168 0 168 137v293h-541v-293 q0 -137 168 -137h6v-86h-561z" />
<glyph unicode="&#x4a4;" horiz-adv-x="1798" d="M78 0v86h26q168 0 168 147v1004q0 139 -168 139h-26v86h596v-86h-27q-168 0 -168 -147v-414h666v414q0 147 -168 147h-27v86h799l8 -245h-96l-4 22q-14 76 -42.5 102.5t-101.5 26.5h-161v-1145q0 -137 168 -137h26v-86h-596v86h27q168 0 168 147v480h-666v-480 q0 -147 168 -147h27v-86h-596z" />
<glyph unicode="&#x4a5;" horiz-adv-x="1599" d="M47 0v86h27q168 0 168 137v649q0 140 -168 140h-27v86h561v-86h-6q-168 0 -168 -138v-264h541v262q0 140 -168 140h-6v86h749l9 -244h-93l-4 23q-12 68 -38 98.5t-105 30.5h-152v-783q0 -137 168 -137h27v-86h-561v86h6q168 0 168 137v293h-541v-293q0 -137 168 -137h6 v-86h-561z" />
<glyph unicode="&#x4a6;" horiz-adv-x="2159" d="M78 0v86h26q168 0 168 147v1004q0 139 -168 139h-26v86h1407v-86h-27q-168 0 -168 -147v-438q74 12 183 12q260 0 439 -167t179 -478q0 -329 -151 -499.5t-427 -170.5q-208 0 -314.5 59t-106.5 158q0 148 172 148q0 -252 249 -252q371 0 371 553q0 260 -141.5 394 t-353.5 134q-52 0 -99 -6v-453q0 -137 168 -137h27v-86h-596v86h26q168 0 168 147v1127h-604v-1127q0 -147 168 -147h27v-86h-596z" />
<glyph unicode="&#x4a7;" horiz-adv-x="1817" d="M47 0v86h27q168 0 168 137v649q0 140 -168 140h-27v86h1274v-86h-27q-168 0 -168 -138v-274q69 14 146 14q228 0 360.5 -136t132.5 -400q0 -280 -125 -425t-333 -145q-346 0 -346 191q0 131 151 131q0 -223 205 -223q250 0 250 463q0 438 -326 438q-73 0 -115 -8v-277 q0 -137 168 -137h27v-86h-561v86h6q168 0 168 137v781h-500v-781q0 -137 168 -137h6v-86h-561z" />
<glyph unicode="&#x4a8;" horiz-adv-x="1516" d="M115 735q0 357 167.5 553.5t479.5 196.5q233 0 233 -99q0 -52 -37 -69q-93 57 -196 57q-420 0 -420 -641q0 -643 418 -643q58 0 88 8q-209 231 -209 553q0 261 101 403t286 142q183 0 280 -140.5t97 -398.5q0 -392 -285 -579q71 -51 158 -51q96 0 147 61q43 -20 43 -68 q0 -42 -54 -73t-138 -31q-180 0 -318 88q-98 -24 -196 -24q-311 0 -478 199.5t-167 555.5zM866 657q0 -292 148 -485q162 143 162 479q0 434 -150 434q-160 0 -160 -428z" />
<glyph unicode="&#x4a9;" horiz-adv-x="1276" d="M113 551q0 567 528 567q176 0 176 -78q0 -39 -33 -63q-85 33 -149 33q-168 0 -246 -107t-78 -352q0 -244 79.5 -354.5t248.5 -110.5q27 0 55 4q-159 150 -159 410q0 172 87 270t232 98q141 0 225 -96t84 -268q0 -298 -200 -436q52 -23 120 -23q62 0 101 35q37 -17 37 -51 q0 -90 -154 -90q-126 0 -250 63q-84 -22 -184 -22q-520 0 -520 571zM733 502q0 -215 115 -350q117 96 117 352q0 258 -113 258q-119 0 -119 -260z" />
<glyph unicode="&#x4aa;" horiz-adv-x="1257" d="M117 733q0 166 42 304t124.5 237t205.5 154t285 55q105 0 182.5 -17.5t129 -48.5t77 -73t25.5 -91q0 -33 -13.5 -59.5t-37.5 -45t-56.5 -28.5t-70.5 -10q0 48 -12.5 95t-41 84.5t-74 61t-112.5 23.5q-116 0 -197 -42.5t-132 -124t-74 -201t-23 -273.5q0 -137 24 -251 t76 -195.5t132.5 -126.5t193.5 -45q75 0 132.5 14.5t101.5 38.5t77.5 55.5t59.5 65.5q17 -11 28 -30t11 -50q0 -39 -26.5 -79.5t-80.5 -73.5t-137 -54.5t-197 -21.5q-153 0 -269 54t-194.5 153t-118.5 238t-40 308zM567 -362q0 29 14 53q45 -17 84 -17q86 0 86 88 q0 111 -139 238h108q181 -121 181 -252q0 -194 -201 -194q-133 0 -133 84z" />
<glyph unicode="&#x4ab;" horiz-adv-x="1008" d="M113 543q0 164 34.5 274.5t96 177.5t145 95t180.5 28q64 0 127.5 -12.5t114.5 -38.5t83 -65.5t32 -92.5q0 -71 -46 -100t-137 -29q0 48 -8 91t-27.5 75.5t-53 51t-85.5 18.5q-59 0 -106.5 -22t-81.5 -76t-52 -145t-18 -228q0 -218 72.5 -325t237.5 -107q95 0 166 40 t106 103q15 -12 25 -32t10 -48q0 -35 -22 -70t-65.5 -63t-108.5 -45.5t-152 -17.5q-102 0 -188 31.5t-148 99.5t-96.5 174.5t-34.5 257.5zM430 -362q0 29 14 53q45 -17 84 -17q86 0 86 88q0 111 -139 238h108q181 -121 181 -252q0 -194 -201 -194q-133 0 -133 84z" />
<glyph unicode="&#x4ac;" horiz-adv-x="1255" d="M41 1104l10 358h1153l10 -358h-106l-10 88q-19 168 -170 168h-199l-2 -1137q0 -137 176 -137h41v-516h-94q0 430 -301 430h-242v86h47q168 0 168 137v1137h-196q-148 0 -168 -168l-11 -88h-106z" />
<glyph unicode="&#x4ad;" horiz-adv-x="1120" d="M41 770l12 328h1014l12 -328h-100l-10 68q-12 83 -38.5 124.5t-105.5 41.5h-168v-775q0 -135 158 -135h57v-524h-100l-10 149q-19 281 -193 281h-299v86h27q168 0 168 137v781h-170q-66 0 -96 -30.5t-47 -135.5l-11 -68h-100z" />
<glyph unicode="&#x4ae;" horiz-adv-x="1280" d="M-10 1376v86h563v-86h-76q-28 0 -45.5 -5t-27.5 -14t-13.5 -21t-3.5 -25q0 -29 12.5 -58t24.5 -51l151 -274q36 -63 61 -124.5t42 -109.5q9 22 22.5 49t30 57.5t34.5 63t36 64.5l131 235q20 35 28.5 66.5t8.5 56.5q0 45 -32 67.5t-91 22.5h-60v86h500v-86h-24 q-22 0 -41.5 -7.5t-39.5 -26t-41.5 -49t-47.5 -76.5l-344 -607v-377q0 -48 13 -77t36 -44.5t53.5 -20.5t64.5 -5h48v-86h-637v86h47q34 0 64.5 4.5t53.5 18.5t36.5 41.5t13.5 72.5v387l-379 658q-17 29 -32 49.5t-31.5 33.5t-36.5 19t-46 6h-26z" />
<glyph unicode="&#x4af;" horiz-adv-x="1186" d="M8 1012v86h512v-86h-26q-123 0 -123 -99q0 -29 16 -75l139 -387q72 -199 90 -308h7q7 29 102 281l147 399q19 52 19 88q0 101 -135 101h-15v86h439v-86h-25q-64 0 -92 -33.5t-64 -126.5l-319 -842v-266q0 -147 168 -147h26v-86h-581v86h26q168 0 168 139v268l-327 899 q-40 109 -146 109h-6z" />
<glyph unicode="&#x4b0;" horiz-adv-x="1280" d="M-10 1376v86h563v-86h-76q-90 0 -90 -65q0 -41 37 -109l151 -274q56 -102 103 -234q19 49 123 234l131 235q37 66 37 123q0 90 -123 90h-60v86h500v-86h-24q-80 0 -170 -159l-344 -607v-102h286v-100h-286v-175q0 -147 167 -147h48v-86h-637v86h47q168 0 168 137v185 h-287v100h287v102l-379 658q-62 108 -146 108h-26z" />
<glyph unicode="&#x4b1;" horiz-adv-x="1186" d="M8 1012v86h512v-86h-26q-123 0 -123 -99q0 -29 16 -75l139 -387q72 -199 90 -308h7q7 29 102 281l147 399q19 52 19 88q0 101 -135 101h-15v86h439v-86h-25q-64 0 -92 -33.5t-64 -126.5l-319 -842v-10h262v-96h-262v-160q0 -147 168 -147h26v-86h-581v86h26 q168 0 168 139v168h-260v96h260v4l-327 899q-40 109 -146 109h-6z" />
<glyph unicode="&#x4b2;" horiz-adv-x="1450" d="M16 0v86h13q66 0 108 26.5t105 116.5l342 490l-338 549q-66 108 -176 108h-27v86h555v-86h-6q-117 0 -117 -59q0 -43 49 -121l185 -299l194 295q51 78 51 125q0 59 -110 59h-6v86h448v-86h-18q-101 0 -203 -147l-297 -428l352 -568q89 -143 205 -147h61v-516h-94 q0 430 -315 430h-195v86h11q122 0 122 68q0 33 -67 141l-203 326l-227 -336q-53 -78 -53 -135q0 -64 133 -64h6v-86h-488z" />
<glyph unicode="&#x4b3;" horiz-adv-x="1253" d="M10 0v86h19q73 0 117 26t106 105l258 334l-258 352q-80 109 -176 109h-27v86h520v-86h-6q-117 0 -117 -60q0 -27 48 -94l135 -184l106 153q51 74 51 125q0 60 -110 60h-6v86h448v-86h-18q-69 0 -109.5 -28t-97.5 -103l-211 -281l301 -405q75 -101 176 -101h47v-524h-100 l-10 149q-19 281 -199 281h-252v86h10q123 0 123 68q0 37 -78 141l-137 184l-143 -200q-55 -77 -55 -129q0 -64 127 -64h6v-86h-488z" />
<glyph unicode="&#x4b4;" horiz-adv-x="1829" d="M41 1104l10 358h991l11 -358h-107l-10 88q-19 168 -170 168h-102v-1258h686v1127q0 147 -168 147h-17v86h586v-86h-27q-168 0 -168 -137v-1006q0 -147 168 -147h41v-516h-94q0 430 -315 430h-1094v86h27q168 0 168 139v1135h-131q-148 0 -168 -168l-11 -88h-106z" />
<glyph unicode="&#x4b5;" horiz-adv-x="1669" d="M41 770l12 328h893l12 -328h-100l-10 68q-12 84 -39 125t-104 41h-109v-910h639v780q0 138 -168 138h-12v86h567v-86h-27q-168 0 -168 -138v-645q0 -130 148 -135h47v-524h-100l-11 149q-21 281 -198 281h-1084v86h7q167 0 167 139v779h-108q-66 0 -96 -30.5t-47 -135.5 l-11 -68h-100z" />
<glyph unicode="&#x4b6;" horiz-adv-x="1548" d="M43 1376v86h596v-86h-27q-168 0 -168 -147v-320q0 -241 240 -241q165 0 385 106v455q0 147 -168 147h-27v86h596v-86h-26q-168 0 -168 -147v-996q0 -75 34 -111t134 -36h41v-516h-94q0 430 -301 430h-216v86h27q168 0 168 147v431q-245 -127 -451 -127q-380 0 -380 370 v330q0 139 -168 139h-27z" />
<glyph unicode="&#x4b7;" horiz-adv-x="1311" d="M31 1012v86h540v-86h-6q-168 0 -168 -138v-215q0 -147 164 -147q139 0 316 90v270q0 140 -168 140h-7v86h562v-86h-27q-168 0 -168 -138v-651q0 -129 148 -129h47v-524h-101l-10 149q-19 281 -199 281h-272v86h27q168 0 168 137v291q-210 -137 -388 -137q-134 0 -209 70 t-75 192v233q0 140 -168 140h-6z" />
<glyph unicode="&#x4b8;" horiz-adv-x="1548" d="M43 1376v86h596v-86h-27q-168 0 -168 -147v-320q0 -241 240 -241h10v348h123v-334q100 19 252 92v455q0 147 -168 147h-27v86h596v-86h-26q-168 0 -168 -147v-1006q0 -137 168 -137h26v-86h-596v86h27q168 0 168 147v431q-171 -84 -252 -105v-346h-123v326l-37 -2 q-419 -23 -419 370v330q0 139 -168 139h-27z" />
<glyph unicode="&#x4b9;" horiz-adv-x="1311" d="M31 1012v86h540v-86h-6q-168 0 -168 -138v-215q0 -147 164 -147h17v231h116v-215q63 16 183 74v270q0 140 -168 140h-7v86h562v-86h-27q-168 0 -168 -138v-651q0 -137 168 -137h27v-86h-582v86h27q168 0 168 137v291q-124 -77 -183 -98v-234h-116v201q-43 -6 -89 -6 q-134 0 -209 70t-75 192v233q0 140 -168 140h-6z" />
<glyph unicode="&#x4ba;" horiz-adv-x="1548" d="M78 0v86h26q168 0 168 147v1006q0 137 -168 137h-26v86h596v-86h-27q-168 0 -168 -147v-430q246 127 451 127q381 0 381 -371v-330q0 -139 168 -139h26v-86h-596v86h27q168 0 168 147v320q0 242 -240 242q-165 0 -385 -107v-455q0 -147 168 -147h27v-86h-596z" />
<glyph unicode="&#x4bb;" horiz-adv-x="1311" d="M47 0v86h27q168 0 168 137v651q0 138 -168 138h-27v86h582v-86h-27q-168 0 -168 -138v-290q210 137 387 137q136 0 210.5 -71t74.5 -191v-234q0 -139 168 -139h6v-86h-541v86h6q168 0 168 137v215q0 148 -163 148q-139 0 -316 -90v-271q0 -139 168 -139h6v-86h-561z" />
<glyph unicode="&#x4bc;" horiz-adv-x="1655" d="M20 897q0 160 140 160q38 0 67 -23q-22 -42 -22 -104q0 -127 153 -127q20 326 187 504t438 178q559 0 559 -740v-59h-958q22 -569 438 -569q210 0 426 157q16 -28 16 -61q0 -99 -137 -166t-317 -67q-622 0 -654 706q-336 0 -336 211zM584 803h741q-5 571 -348 571 q-356 0 -393 -571z" />
<glyph unicode="&#x4bd;" horiz-adv-x="1309" d="M20 733q0 148 127 148q39 0 68 -23q-22 -46 -22 -100q0 -60 27 -86.5t110 -26.5q43 473 450 473q204 0 315 -127t111 -362v-94h-682q7 -426 305 -426q193 0 293 143q39 -21 39 -70q0 -75 -99.5 -138.5t-260.5 -63.5q-219 0 -346 145t-129 410q-306 0 -306 198zM528 645 h471q0 363 -223 363q-225 0 -248 -363z" />
<glyph unicode="&#x4be;" horiz-adv-x="1655" d="M20 897q0 160 140 160q38 0 67 -23q-22 -42 -22 -104q0 -127 153 -127q20 326 187 504t438 178q559 0 559 -740v-59h-958q22 -569 438 -569q210 0 426 157q16 -28 16 -61q0 -149 -270 -213q-152 -100 -152 -430h-94q0 181 -48.5 290.5t-180.5 172.5q-345 149 -363 653 q-336 0 -336 211zM584 803h741q-5 571 -348 571q-356 0 -393 -571z" />
<glyph unicode="&#x4bf;" horiz-adv-x="1309" d="M20 733q0 148 127 148q39 0 68 -23q-22 -46 -22 -100q0 -60 27 -86.5t110 -26.5q43 473 450 473q204 0 315 -127t111 -362v-94h-682q7 -426 305 -426q193 0 293 143q39 -21 39 -70q0 -54 -58.5 -109t-160.5 -77q-63 -52 -81.5 -131t-18.5 -295h-94q0 216 -30 304.5 t-136 150.5q-256 126 -256 510q-306 0 -306 198zM528 645h471q0 363 -223 363q-225 0 -248 -363z" />
<glyph unicode="&#x4c0;" horiz-adv-x="752" d="M78 0v86h26q35 0 65.5 5t53.5 20.5t36 44.5t13 77v996q0 48 -13 77t-36 44.5t-53.5 20.5t-65.5 5h-26v86h596v-86h-27q-34 0 -65 -5t-53.5 -20.5t-36 -44.5t-13.5 -77v-996q0 -48 13.5 -77t36 -44.5t53.5 -20.5t65 -5h27v-86h-596z" />
<glyph unicode="&#x4c1;" horiz-adv-x="2005" d="M0 0v86h6q69 0 125.5 38.5t104.5 125.5l192 346q23 42 45.5 74.5t52 54.5t68 34.5t92.5 14.5q-24 21 -43.5 48t-40.5 63.5t-45.5 84.5t-56.5 111q-63 124 -117.5 183t-114.5 59q-27 0 -48 -9t-36 -25t-24 -37t-13 -44q-19 4 -37 15t-31.5 28.5t-21.5 41.5t-8 53 q0 27 9 51t28.5 41t51.5 27t77 10q60 0 110 -23.5t93.5 -67t83 -105t78.5 -138.5q57 -113 95 -189t64 -108q13 -16 26 -28t31 -19.5t44.5 -11t66.5 -3.5v455q0 45 -13.5 72.5t-36.5 42.5t-53.5 19.5t-64.5 4.5h-6v86h539v-86h-6q-34 0 -65 -5t-53.5 -20.5t-36 -44.5 t-13.5 -77v-447q41 0 67 3.5t44 11t31 19.5t26 28q26 32 64 108t95 189q39 77 78.5 138.5t83 105t93.5 67t110 23.5q45 0 77 -10t51.5 -27t28.5 -41t9 -51q0 -29 -8 -53t-21.5 -41.5t-31.5 -28.5t-37 -15q-4 23 -13 44t-24 37t-36 25t-48 9q-60 0 -114.5 -59t-117.5 -183 q-32 -63 -56.5 -111t-45.5 -84.5t-40.5 -63.5t-43.5 -48q54 -2 92.5 -14.5t68 -34.5t52 -54.5t45.5 -74.5l192 -346q48 -87 104.5 -125.5t125.5 -38.5h6v-86h-29q-98 0 -163 8t-109 29.5t-75 59t-62 96.5l-187 356q-24 46 -44.5 73.5t-49 42t-72.5 19t-116 4.5v-455 q0 -48 13.5 -77t36 -44.5t53.5 -20.5t65 -5h6v-86h-539v86h6q34 0 64.5 4.5t53.5 18.5t36.5 41.5t13.5 72.5v465q-72 0 -116 -4.5t-72.5 -19t-49 -42t-44.5 -73.5l-187 -356q-31 -59 -62 -96.5t-75 -59t-109 -29.5t-163 -8h-29zM619 1856h170q5 -57 18.5 -93.5t38.5 -57 t63 -28.5t91 -8q44 0 80.5 9.5t63.5 31t44 57.5t23 89h174q-6 -62 -30.5 -113t-71 -87.5t-117 -56.5t-170.5 -20q-103 0 -173 19t-114 55t-64.5 87.5t-25.5 115.5z" />
<glyph unicode="&#x4c2;" horiz-adv-x="1802" d="M6 0v86h6q69 0 119.5 39t97.5 125l107 188q46 85 110 129t160 49q-20 14 -38 31.5t-37 41.5t-41 55t-50 71q-26 39 -48.5 68.5t-44.5 49t-44.5 29t-48.5 9.5q-25 0 -45 -9t-34 -25t-23 -37t-13 -44q-19 4 -37 14t-31.5 26t-21.5 38.5t-8 50.5q0 56 44.5 90.5t131.5 34.5 q59 0 101.5 -16.5t76 -46.5t64 -73t65.5 -97q53 -79 88.5 -132t61.5 -77q12 -12 24 -20t27 -13t35.5 -7.5t50.5 -2.5v247q0 45 -12 72.5t-32.5 42.5t-47 20t-55.5 5h-9v86h490v-86h-6q-29 0 -56 -4.5t-47.5 -18t-32.5 -39t-12 -67.5v-258q30 0 50.5 2.5t36 7.5t27 13 t23.5 20q26 24 61.5 77t88.5 132q35 54 65.5 97t64 73t76 46.5t101.5 16.5q87 0 131.5 -34.5t44.5 -90.5q0 -28 -8 -50.5t-21.5 -38.5t-31.5 -26t-37 -14q-4 23 -12.5 44t-23 37t-34 25t-45.5 9q-25 0 -47.5 -9.5t-44.5 -29t-45 -49t-49 -68.5q-28 -40 -50 -71t-41 -55 t-37 -41.5t-38 -31.5q96 -5 160 -49t110 -129l107 -188q47 -86 97.5 -125t119.5 -39h6v-86h-72q-78 0 -130.5 8t-90.5 29.5t-67 59t-60 96.5l-100 198q-23 45 -48.5 72t-58.5 42t-76 20t-102 5v-307q0 -45 12 -72.5t32.5 -41.5t47.5 -18.5t56 -4.5h6v-86h-490v86h9 q30 0 56.5 5t46.5 20.5t32 44.5t12 77v297q-58 0 -101.5 -5t-76.5 -20t-58.5 -42t-48.5 -72l-100 -198q-31 -59 -59.5 -96.5t-66.5 -59t-91 -29.5t-131 -8h-72zM518 1518h170q5 -57 18.5 -93.5t38.5 -57t63 -28.5t91 -8q44 0 80.5 9.5t63.5 31t44 57.5t23 89h174 q-6 -62 -30.5 -113t-71 -87.5t-117 -56.5t-170.5 -20q-103 0 -173 19t-114 55t-64.5 87.5t-25.5 115.5z" />
<glyph unicode="&#x4c3;" horiz-adv-x="1421" d="M78 0v86h26q168 0 168 137v1014q0 139 -168 139h-26v86h596v-86h-27q-168 0 -168 -147v-447q107 0 148 24.5t153.5 250t197.5 322t210 96.5q166 0 166 -129q0 -113 -99 -138q-22 115 -120 115q-66 0 -121 -66t-145 -242t-126 -212q276 -11 441.5 -181t165.5 -464 q0 -329 -151 -499.5t-427 -170.5q-207 0 -314.5 59t-107.5 158q0 148 172 148q0 -252 250 -252q371 0 371 553q0 260 -141.5 394t-354.5 134q-92 0 -168 -16v-433q0 -147 168 -147h27v-86h-596z" />
<glyph unicode="&#x4c4;" horiz-adv-x="1253" d="M37 0v86h37q168 0 168 147v639q0 140 -168 140h-37v86h561v-86h-6q-158 0 -158 -129v-258q66 0 103 25t148 190.5t165 217.5t166 52q176 0 176 -125q0 -105 -98 -129q-22 115 -115 115q-82 0 -181.5 -147.5t-148.5 -184.5h19q231 0 382.5 -144t151.5 -413 q0 -279 -139.5 -426.5t-360.5 -147.5q-346 0 -346 191q0 131 152 131q0 -223 205 -223q291 0 291 467q0 221 -103.5 336.5t-263.5 115.5q-134 0 -203 -22v-281q0 -137 168 -137h6v-86h-571z" />
<glyph unicode="&#x4c5;" horiz-adv-x="1438" d="M0 129q0 125 90 125q0 -35 28.5 -65.5t71.5 -30.5q59 0 104.5 45t97.5 231t83 456t31 402q0 84 -164 84h-31v86h1049v-86h-27q-168 0 -168 -147v-996q0 -71 33.5 -105t136.5 -34h82v-10l-131 -514h-168l170 430h-524v86h27q167 0 167 147v1127h-333q-18 -371 -83 -757 t-155.5 -501.5t-222.5 -115.5q-164 0 -164 143z" />
<glyph unicode="&#x4c6;" horiz-adv-x="1286" d="M0 129q0 125 90 125q0 -35 28.5 -65.5t71.5 -30.5q71 0 123.5 71t105 311.5t52.5 344.5q0 127 -168 127h-27v86h963v-86h-27q-168 0 -168 -138v-638q0 -69 31 -105.5t137 -36.5h82v-10l-129 -514h-166l170 430h-491v86h6q168 0 168 137v781h-264q-34 -322 -94.5 -586.5 t-137.5 -348t-192 -83.5q-164 0 -164 143z" />
<glyph unicode="&#x4c7;" horiz-adv-x="1604" d="M78 0v86h26q168 0 168 147v1004q0 139 -168 139h-26v86h596v-86h-27q-168 0 -168 -147v-414h666v414q0 147 -168 147h-27v86h596v-86h-26q-168 0 -168 -147v-1057q0 -664 -582 -664q-416 0 -416 181q0 108 123 123q100 -205 305 -205q363 0 363 563v543h-666v-480 q0 -147 168 -147h27v-86h-596z" />
<glyph unicode="&#x4c8;" horiz-adv-x="1391" d="M47 0v86h27q168 0 168 137v649q0 140 -168 140h-27v86h561v-86h-6q-168 0 -168 -138v-264h541v262q0 140 -168 140h-6v86h561v-86h-27q-168 0 -168 -138v-849q0 -251 -116 -384t-330 -133q-176 0 -276.5 49t-100.5 130q0 106 117 118q73 -200 256 -200q258 0 258 418v493 h-541v-293q0 -137 168 -137h6v-86h-561z" />
<glyph unicode="&#x4c9;" horiz-adv-x="1624" d="M78 0v86h26q168 0 168 147v1004q0 139 -168 139h-26v86h596v-86h-27q-168 0 -168 -147v-414h666v414q0 147 -168 147h-27v86h596v-86h-26q-168 0 -168 -147v-993q0 -71 33 -106.5t137 -35.5h82v-10l-131 -514h-168l170 430h-525v86h27q168 0 168 147v480h-666v-480 q0 -147 168 -147h27v-86h-596z" />
<glyph unicode="&#x4ca;" horiz-adv-x="1409" d="M47 0v86h27q168 0 168 137v649q0 140 -168 140h-27v86h561v-86h-6q-168 0 -168 -138v-264h541v262q0 140 -168 140h-6v86h561v-86h-27q-168 0 -168 -138v-638q0 -69 31 -105.5t137 -36.5h82v-10l-129 -514h-166l170 430h-491v86h6q168 0 168 137v293h-541v-293 q0 -137 168 -137h6v-86h-561z" />
<glyph unicode="&#x4cb;" horiz-adv-x="1548" d="M43 1376v86h596v-86h-27q-168 0 -168 -147v-320q0 -241 240 -241q165 0 385 106v455q0 147 -168 147h-27v86h596v-86h-26q-168 0 -168 -147v-1006q0 -137 168 -137h26v-86h-200q-316 0 -316 -430h-94v516h41q165 0 168 147v431q-245 -127 -451 -127q-380 0 -380 370v330 q0 139 -168 139h-27z" />
<glyph unicode="&#x4cc;" horiz-adv-x="1311" d="M31 1012v86h540v-86h-6q-168 0 -168 -138v-215q0 -147 164 -147q139 0 316 90v270q0 140 -168 140h-7v86h562v-86h-27q-168 0 -168 -138v-651q0 -137 168 -137h27v-86h-281q-172 0 -190 -281l-11 -149h-100v524h47q148 0 148 129v291q-210 -137 -388 -137q-134 0 -209 70 t-75 192v233q0 140 -168 140h-6z" />
<glyph unicode="&#x4cd;" horiz-adv-x="1921" d="M78 0v86h26q168 0 168 137v1014q0 139 -168 139h-26v86h467l424 -1171l420 1171h454v-86h-26q-168 0 -168 -147v-1004q0 -63 32 -97t138 -34h82v-10l-132 -514h-167l170 430h-474v86h7q87 0 117 31t30 98v1094l-469 -1309h-111l-475 1305v-1072q0 -77 29 -112t119 -35h6 v-86h-473z" />
<glyph unicode="&#x4ce;" horiz-adv-x="1612" d="M47 0v86h27q168 0 168 137v649q0 140 -168 140h-27v86h438l324 -828l338 828h418v-86h-27q-168 0 -168 -138v-649q0 -63 31 -97t137 -34h82v-10l-129 -514h-166l170 430h-491v86h6q168 0 168 137v656h-15l-356 -879h-94l-346 879h-15v-656q0 -137 168 -137h6v-86h-479z " />
<glyph unicode="&#x4cf;" horiz-adv-x="752" d="M78 0v86h26q35 0 65.5 5t53.5 20.5t36 44.5t13 77v996q0 48 -13 77t-36 44.5t-53.5 20.5t-65.5 5h-26v86h596v-86h-27q-34 0 -65 -5t-53.5 -20.5t-36 -44.5t-13.5 -77v-996q0 -48 13.5 -77t36 -44.5t53.5 -20.5t65 -5h27v-86h-596z" />
<glyph unicode="&#x4d0;" horiz-adv-x="1444" d="M0 0v86h39q30 0 51 6.5t38 24.5t32.5 49t34.5 80l454 1216h160l463 -1267q12 -32 24.5 -53t29.5 -33.5t39 -17.5t52 -5h27v-86h-563v86h47q123 0 123 98q0 17 -4.5 35t-12.5 41l-82 229h-538l-78 -215q-9 -24 -14 -47.5t-5 -40.5q0 -52 33.5 -76t102.5 -24h47v-86h-500z M453 592h462l-127 358q-32 91 -58.5 170.5t-43.5 153.5q-7 -37 -16.5 -71.5t-20.5 -70.5t-25 -75.5t-32 -87.5zM344 1856h170q5 -57 18.5 -93.5t38.5 -57t63 -28.5t91 -8q44 0 80.5 9.5t63.5 31t44 57.5t23 89h174q-6 -62 -30.5 -113t-71 -87.5t-117 -56.5t-170.5 -20 q-103 0 -173 19t-114 55t-64.5 87.5t-25.5 115.5z" />
<glyph unicode="&#x4d1;" horiz-adv-x="1153" d="M102 307q0 163 116 242t351 86l170 6v123q0 55 -6 101.5t-26 80t-57.5 52t-100.5 18.5q-59 0 -95.5 -16.5t-57 -46.5t-27.5 -71t-7 -89q-85 0 -129.5 29t-44.5 100q0 53 29 90t79.5 60.5t117.5 34.5t143 11q94 0 164 -18.5t117 -60.5t70.5 -109.5t23.5 -165.5v-531 q0 -43 7 -71t22 -45t39.5 -24t58.5 -7h6v-86h-277l-32 176h-17q-32 -43 -62 -79t-66 -62t-81.5 -40.5t-109.5 -14.5q-68 0 -126.5 19.5t-101 60t-66.5 102t-24 145.5zM301 297q0 -96 40.5 -143.5t125.5 -47.5q62 0 112.5 20t86 57t54.5 90t19 118v166l-131 -6 q-87 -4 -145.5 -21.5t-94.5 -49t-51.5 -77.5t-15.5 -106zM181 1518h170q5 -57 18.5 -93.5t38.5 -57t63 -28.5t91 -8q44 0 80.5 9.5t63.5 31t44 57.5t23 89h174q-6 -62 -30.5 -113t-71 -87.5t-117 -56.5t-170.5 -20q-103 0 -173 19t-114 55t-64.5 87.5t-25.5 115.5z" />
<glyph unicode="&#x4d2;" horiz-adv-x="1444" d="M0 0v86h39q30 0 51 6.5t38 24.5t32.5 49t34.5 80l454 1216h160l463 -1267q12 -32 24.5 -53t29.5 -33.5t39 -17.5t52 -5h27v-86h-563v86h47q123 0 123 98q0 17 -4.5 35t-12.5 41l-82 229h-538l-78 -215q-9 -24 -14 -47.5t-5 -40.5q0 -52 33.5 -76t102.5 -24h47v-86h-500z M453 592h462l-127 358q-32 91 -58.5 170.5t-43.5 153.5q-7 -37 -16.5 -71.5t-20.5 -70.5t-25 -75.5t-32 -87.5zM424 1747q0 32 8 54t22 35.5t33 19.5t41 6t41 -6t33.5 -19.5t22.5 -35.5t8 -54q0 -31 -8 -53t-22.5 -36t-33.5 -20t-41 -6q-45 0 -74.5 26t-29.5 89zM813 1747 q0 32 8 54t22 35.5t33 19.5t41 6t41 -6t33.5 -19.5t22.5 -35.5t8 -54q0 -31 -8 -53t-22.5 -36t-33.5 -20t-41 -6q-45 0 -74.5 26t-29.5 89z" />
<glyph unicode="&#x4d3;" horiz-adv-x="1153" d="M102 307q0 163 116 242t351 86l170 6v123q0 55 -6 101.5t-26 80t-57.5 52t-100.5 18.5q-59 0 -95.5 -16.5t-57 -46.5t-27.5 -71t-7 -89q-85 0 -129.5 29t-44.5 100q0 53 29 90t79.5 60.5t117.5 34.5t143 11q94 0 164 -18.5t117 -60.5t70.5 -109.5t23.5 -165.5v-531 q0 -43 7 -71t22 -45t39.5 -24t58.5 -7h6v-86h-277l-32 176h-17q-32 -43 -62 -79t-66 -62t-81.5 -40.5t-109.5 -14.5q-68 0 -126.5 19.5t-101 60t-66.5 102t-24 145.5zM301 297q0 -96 40.5 -143.5t125.5 -47.5q62 0 112.5 20t86 57t54.5 90t19 118v166l-131 -6 q-87 -4 -145.5 -21.5t-94.5 -49t-51.5 -77.5t-15.5 -106zM257 1409q0 32 8 54t22 35.5t33 19.5t41 6t41 -6t33.5 -19.5t22.5 -35.5t8 -54q0 -31 -8 -53t-22.5 -36t-33.5 -20t-41 -6q-45 0 -74.5 26t-29.5 89zM646 1409q0 32 8 54t22 35.5t33 19.5t41 6t41 -6t33.5 -19.5 t22.5 -35.5t8 -54q0 -31 -8 -53t-22.5 -36t-33.5 -20t-41 -6q-45 0 -74.5 26t-29.5 89z" />
<glyph unicode="&#x4d4;" horiz-adv-x="1948" d="M0 0v86h33q54 0 96.5 38t85.5 122l592 1120l-160 10v86h1135l10 -358h-106l-11 88q-4 34 -15 64t-32.5 52.5t-54 36.5t-78.5 15h-344v-545h494v-100h-494v-613h395q48 0 82.5 13.5t57.5 36.5t36 53.5t19 64.5l14 88h107l-15 -358h-1097v86h26q34 0 64 4.5t52.5 18.5 t36.5 41.5t15 72.5v266h-471l-113 -215q-17 -32 -24.5 -61t-7.5 -47q0 -42 31.5 -61t91.5 -19h47v-86h-498zM526 592h418v768h-29q-25 -56 -66 -139t-92.5 -183.5t-110.5 -214.5t-120 -231z" />
<glyph unicode="&#x4d5;" horiz-adv-x="1722" d="M102 307q0 163 116 242t351 86l170 6v123q0 55 -6 101.5t-26 80t-57.5 52t-100.5 18.5q-59 0 -95.5 -16.5t-57 -46.5t-27.5 -71t-7 -89q-85 0 -129.5 29t-44.5 100q0 53 29 90t79.5 60.5t117.5 34.5t143 11q116 0 195.5 -29.5t124.5 -95.5q114 125 317 125q99 0 178 -31 t134 -92.5t84.5 -153t29.5 -212.5v-94h-682q2 -112 21.5 -192.5t58 -132.5t97.5 -76.5t140 -24.5q45 0 87 11t78.5 30.5t66 45.5t49.5 56q14 -6 26.5 -25t12.5 -45q0 -31 -22 -66.5t-66 -65.5t-110.5 -50t-155.5 -20q-150 0 -254.5 59t-161.5 174q-19 -46 -53 -88 t-82.5 -74.5t-111 -51.5t-138.5 -19q-68 0 -126.5 19.5t-101 60t-66.5 102t-24 145.5zM301 297q0 -96 40.5 -143.5t125.5 -47.5q62 0 112.5 20t86 57t54.5 90t19 118v123v27v16l-131 -6q-87 -4 -145.5 -21.5t-94.5 -49t-51.5 -77.5t-15.5 -106zM942 645h471q0 81 -12 148 t-38 115t-68.5 74t-104.5 26q-115 0 -176 -92.5t-72 -270.5z" />
<glyph unicode="&#x4d6;" horiz-adv-x="1276" d="M78 0v86h26q34 0 64.5 4.5t53.5 18.5t36.5 41.5t13.5 72.5v1006q0 48 -13 77t-36 44.5t-53.5 20.5t-65.5 5h-26v86h1032l10 -358h-106l-10 88q-4 34 -15.5 64.5t-33 53.5t-54 36.5t-78.5 13.5h-344v-545h494v-100h-494v-613h395q49 0 83.5 13.5t57.5 36.5t36 53.5 t18 64.5l14 88h107l-14 -358h-1098zM256 1856h170q5 -57 18.5 -93.5t38.5 -57t63 -28.5t91 -8q44 0 80.5 9.5t63.5 31t44 57.5t23 89h174q-6 -62 -30.5 -113t-71 -87.5t-117 -56.5t-170.5 -20q-103 0 -173 19t-114 55t-64.5 87.5t-25.5 115.5z" />
<glyph unicode="&#x4d7;" horiz-adv-x="1096" d="M113 541q0 287 118 432t336 145q99 0 178 -31t134 -92.5t84.5 -153t29.5 -212.5v-94h-682q2 -112 22.5 -192.5t59 -132.5t94.5 -76.5t129 -24.5q53 0 98.5 12t82.5 32t65.5 45.5t46.5 53.5q14 -6 26.5 -25t12.5 -45q0 -31 -22 -66.5t-67 -65.5t-112.5 -50t-158.5 -20 q-111 0 -199.5 37.5t-149.5 109.5t-93.5 176.5t-32.5 237.5zM315 645h471q0 81 -12 148t-38 115t-68.5 74t-104.5 26q-114 0 -175.5 -92.5t-72.5 -270.5zM177 1518h170q5 -57 18.5 -93.5t38.5 -57t63 -28.5t91 -8q44 0 80.5 9.5t63.5 31t44 57.5t23 89h174 q-6 -62 -30.5 -113t-71 -87.5t-117 -56.5t-170.5 -20q-103 0 -173 19t-114 55t-64.5 87.5t-25.5 115.5z" />
<glyph unicode="&#x4d8;" horiz-adv-x="1413" d="M111 741v60h958q-26 547 -438 547q-205 0 -406 -138q-16 28 -16 62q0 91 134 152t300 61q315 0 484 -198t169 -558q0 -347 -168.5 -548t-457.5 -201q-559 0 -559 761zM328 684q9 -594 348 -594q353 0 393 594h-741z" />
<glyph unicode="&#x4d9;" horiz-adv-x="1096" d="M102 469v94h682q-7 426 -305 426q-191 0 -293 -143q-39 20 -39 69q0 74 99 138.5t262 64.5q223 0 349 -148.5t126 -412.5q0 -577 -455 -577q-203 0 -314.5 126.5t-111.5 362.5zM309 453q0 -363 223 -363q226 0 248 363h-471z" />
<glyph unicode="&#x4da;" horiz-adv-x="1413" d="M111 741v60h958q-26 547 -438 547q-205 0 -406 -138q-16 28 -16 62q0 91 134 152t300 61q315 0 484 -198t169 -558q0 -347 -168.5 -548t-457.5 -201q-559 0 -559 761zM328 684q9 -594 348 -594q353 0 393 594h-741zM385 1747q0 32 8 54t22 35.5t33 19.5t41 6t41 -6 t33.5 -19.5t22.5 -35.5t8 -54q0 -31 -8 -53t-22.5 -36t-33.5 -20t-41 -6q-45 0 -74.5 26t-29.5 89zM774 1747q0 32 8 54t22 35.5t33 19.5t41 6t41 -6t33.5 -19.5t22.5 -35.5t8 -54q0 -31 -8 -53t-22.5 -36t-33.5 -20t-41 -6q-45 0 -74.5 26t-29.5 89z" />
<glyph unicode="&#x4db;" horiz-adv-x="1096" d="M102 469v94h682q-7 426 -305 426q-191 0 -293 -143q-39 20 -39 69q0 74 99 138.5t262 64.5q223 0 349 -148.5t126 -412.5q0 -577 -455 -577q-203 0 -314.5 126.5t-111.5 362.5zM309 453q0 -363 223 -363q226 0 248 363h-471zM237 1409q0 32 8 54t22 35.5t33 19.5t41 6 t41 -6t33.5 -19.5t22.5 -35.5t8 -54q0 -31 -8 -53t-22.5 -36t-33.5 -20t-41 -6q-45 0 -74.5 26t-29.5 89zM626 1409q0 32 8 54t22 35.5t33 19.5t41 6t41 -6t33.5 -19.5t22.5 -35.5t8 -54q0 -31 -8 -53t-22.5 -36t-33.5 -20t-41 -6q-45 0 -74.5 26t-29.5 89z" />
<glyph unicode="&#x4dc;" horiz-adv-x="2005" d="M0 0v86h6q69 0 125.5 38.5t104.5 125.5l192 346q23 42 45.5 74.5t52 54.5t68 34.5t92.5 14.5q-24 21 -43.5 48t-40.5 63.5t-45.5 84.5t-56.5 111q-63 124 -117.5 183t-114.5 59q-27 0 -48 -9t-36 -25t-24 -37t-13 -44q-19 4 -37 15t-31.5 28.5t-21.5 41.5t-8 53 q0 27 9 51t28.5 41t51.5 27t77 10q60 0 110 -23.5t93.5 -67t83 -105t78.5 -138.5q57 -113 95 -189t64 -108q13 -16 26 -28t31 -19.5t44.5 -11t66.5 -3.5v455q0 45 -13.5 72.5t-36.5 42.5t-53.5 19.5t-64.5 4.5h-6v86h539v-86h-6q-34 0 -65 -5t-53.5 -20.5t-36 -44.5 t-13.5 -77v-447q41 0 67 3.5t44 11t31 19.5t26 28q26 32 64 108t95 189q39 77 78.5 138.5t83 105t93.5 67t110 23.5q45 0 77 -10t51.5 -27t28.5 -41t9 -51q0 -29 -8 -53t-21.5 -41.5t-31.5 -28.5t-37 -15q-4 23 -13 44t-24 37t-36 25t-48 9q-60 0 -114.5 -59t-117.5 -183 q-32 -63 -56.5 -111t-45.5 -84.5t-40.5 -63.5t-43.5 -48q54 -2 92.5 -14.5t68 -34.5t52 -54.5t45.5 -74.5l192 -346q48 -87 104.5 -125.5t125.5 -38.5h6v-86h-29q-98 0 -163 8t-109 29.5t-75 59t-62 96.5l-187 356q-24 46 -44.5 73.5t-49 42t-72.5 19t-116 4.5v-455 q0 -48 13.5 -77t36 -44.5t53.5 -20.5t65 -5h6v-86h-539v86h6q34 0 64.5 4.5t53.5 18.5t36.5 41.5t13.5 72.5v465q-72 0 -116 -4.5t-72.5 -19t-49 -42t-44.5 -73.5l-187 -356q-31 -59 -62 -96.5t-75 -59t-109 -29.5t-163 -8h-29zM703 1747q0 32 8 54t22 35.5t33 19.5t41 6 t41 -6t33.5 -19.5t22.5 -35.5t8 -54q0 -31 -8 -53t-22.5 -36t-33.5 -20t-41 -6q-45 0 -74.5 26t-29.5 89zM1092 1747q0 32 8 54t22 35.5t33 19.5t41 6t41 -6t33.5 -19.5t22.5 -35.5t8 -54q0 -31 -8 -53t-22.5 -36t-33.5 -20t-41 -6q-45 0 -74.5 26t-29.5 89z" />
<glyph unicode="&#x4dd;" horiz-adv-x="1802" d="M6 0v86h6q69 0 119.5 39t97.5 125l107 188q46 85 110 129t160 49q-20 14 -38 31.5t-37 41.5t-41 55t-50 71q-26 39 -48.5 68.5t-44.5 49t-44.5 29t-48.5 9.5q-25 0 -45 -9t-34 -25t-23 -37t-13 -44q-19 4 -37 14t-31.5 26t-21.5 38.5t-8 50.5q0 56 44.5 90.5t131.5 34.5 q59 0 101.5 -16.5t76 -46.5t64 -73t65.5 -97q53 -79 88.5 -132t61.5 -77q12 -12 24 -20t27 -13t35.5 -7.5t50.5 -2.5v247q0 45 -12 72.5t-32.5 42.5t-47 20t-55.5 5h-9v86h490v-86h-6q-29 0 -56 -4.5t-47.5 -18t-32.5 -39t-12 -67.5v-258q30 0 50.5 2.5t36 7.5t27 13 t23.5 20q26 24 61.5 77t88.5 132q35 54 65.5 97t64 73t76 46.5t101.5 16.5q87 0 131.5 -34.5t44.5 -90.5q0 -28 -8 -50.5t-21.5 -38.5t-31.5 -26t-37 -14q-4 23 -12.5 44t-23 37t-34 25t-45.5 9q-25 0 -47.5 -9.5t-44.5 -29t-45 -49t-49 -68.5q-28 -40 -50 -71t-41 -55 t-37 -41.5t-38 -31.5q96 -5 160 -49t110 -129l107 -188q47 -86 97.5 -125t119.5 -39h6v-86h-72q-78 0 -130.5 8t-90.5 29.5t-67 59t-60 96.5l-100 198q-23 45 -48.5 72t-58.5 42t-76 20t-102 5v-307q0 -45 12 -72.5t32.5 -41.5t47.5 -18.5t56 -4.5h6v-86h-490v86h9 q30 0 56.5 5t46.5 20.5t32 44.5t12 77v297q-58 0 -101.5 -5t-76.5 -20t-58.5 -42t-48.5 -72l-100 -198q-31 -59 -59.5 -96.5t-66.5 -59t-91 -29.5t-131 -8h-72zM602 1409q0 32 8 54t22 35.5t33 19.5t41 6t41 -6t33.5 -19.5t22.5 -35.5t8 -54q0 -31 -8 -53t-22.5 -36 t-33.5 -20t-41 -6q-45 0 -74.5 26t-29.5 89zM991 1409q0 32 8 54t22 35.5t33 19.5t41 6t41 -6t33.5 -19.5t22.5 -35.5t8 -54q0 -31 -8 -53t-22.5 -36t-33.5 -20t-41 -6q-45 0 -74.5 26t-29.5 89z" />
<glyph unicode="&#x4de;" horiz-adv-x="1235" d="M92 231q0 76 46 114t126 38q0 -54 17.5 -106.5t53.5 -94t91.5 -67t132.5 -25.5q72 0 132 17t102.5 56t66 102t23.5 155q0 64 -22.5 117t-67 90t-110 57.5t-151.5 20.5h-174v104h174q68 0 126.5 22t102 63.5t68.5 100t25 131.5q0 60 -15 107t-47.5 80t-84.5 50t-125 17 q-86 0 -140.5 -25t-85.5 -67t-42 -97t-11 -116q-37 0 -69 6t-56 21.5t-37.5 41t-13.5 64.5q0 59 29 109.5t86.5 87t142.5 57.5t197 21q107 0 196.5 -20t154 -62t100.5 -106.5t36 -153.5q0 -80 -26 -141t-70.5 -106t-104.5 -74.5t-129 -45.5v-10q57 -7 122 -25t120.5 -56.5 t92 -102.5t36.5 -162q0 -119 -44.5 -202.5t-120 -136.5t-175 -77.5t-209.5 -24.5q-130 0 -219.5 23.5t-145 60t-80 81.5t-24.5 89zM295 1747q0 32 8 54t22 35.5t33 19.5t41 6t41 -6t33.5 -19.5t22.5 -35.5t8 -54q0 -31 -8 -53t-22.5 -36t-33.5 -20t-41 -6q-45 0 -74.5 26 t-29.5 89zM684 1747q0 32 8 54t22 35.5t33 19.5t41 6t41 -6t33.5 -19.5t22.5 -35.5t8 -54q0 -31 -8 -53t-22.5 -36t-33.5 -20t-41 -6q-45 0 -74.5 26t-29.5 89z" />
<glyph unicode="&#x4df;" horiz-adv-x="1001" d="M82 201q0 131 151 131q0 -54 14 -100.5t42 -80.5t70.5 -53.5t99.5 -19.5q118 0 174.5 64.5t56.5 176.5q0 104 -63.5 152.5t-175.5 48.5h-191v111h193q52 0 91 15.5t64.5 42t38 62t12.5 76.5q0 40 -9.5 75.5t-31 62t-57 42t-86.5 15.5q-103 0 -157 -59t-54 -162 q-81 0 -121.5 29t-40.5 94q0 37 22 72t68 61.5t117.5 42.5t169.5 16q88 0 157.5 -18.5t118 -53t74 -84.5t25.5 -112q0 -49 -15 -91.5t-42.5 -76t-65.5 -58.5t-84 -40v-11q53 -13 97.5 -33.5t76.5 -51.5t50 -72.5t18 -96.5q0 -71 -25 -132t-78.5 -107t-136.5 -72t-200 -26 q-110 0 -181 21t-112.5 53.5t-57.5 71.5t-16 75zM179 1409q0 32 8 54t22 35.5t33 19.5t41 6t41 -6t33.5 -19.5t22.5 -35.5t8 -54q0 -31 -8 -53t-22.5 -36t-33.5 -20t-41 -6q-45 0 -74.5 26t-29.5 89zM568 1409q0 32 8 54t22 35.5t33 19.5t41 6t41 -6t33.5 -19.5t22.5 -35.5 t8 -54q0 -31 -8 -53t-22.5 -36t-33.5 -20t-41 -6q-45 0 -74.5 26t-29.5 89z" />
<glyph unicode="&#x4e0;" horiz-adv-x="1235" d="M92 231q0 152 172 152q0 -124 78.5 -208.5t216.5 -84.5q324 0 324 330q0 143 -95 222t-268 79h-149v84l456 491h-389q-96 0 -128 -22.5t-42 -104.5l-2 -18h-86l10 311h857v-84l-504 -540q567 -16 567 -420q0 -211 -148 -326t-401 -115q-225 0 -347 73t-122 181z" />
<glyph unicode="&#x4e1;" horiz-adv-x="1120" d="M82 -291q0 131 151 131q0 -98 66.5 -165.5t183.5 -67.5q154 0 240 102t86 291q0 356 -410 356h-47v84l404 494h-371q-65 0 -93.5 -24.5t-39.5 -104.5l-4 -29h-101l13 322h794v-101l-442 -532q496 -28 496 -449q0 -241 -145.5 -374.5t-377.5 -133.5q-199 0 -301 55 t-102 146z" />
<glyph unicode="&#x4e2;" horiz-adv-x="1645" d="M78 0v86h26q35 0 65.5 5t53.5 20.5t36 44.5t13 77v1004q0 45 -13.5 72.5t-36.5 42.5t-53.5 19.5t-64.5 4.5h-26v86h596v-86h-27q-34 0 -65 -5t-53.5 -20.5t-36 -44.5t-13.5 -77v-811l686 770v41q0 48 -13 77t-36 44.5t-53.5 20.5t-65.5 5h-26v86h596v-86h-27 q-34 0 -65 -5t-53.5 -20.5t-36 -44.5t-13.5 -77v-1006q0 -45 13.5 -72.5t36.5 -41.5t53.5 -18.5t64.5 -4.5h27v-86h-596v86h26q35 0 65.5 5t53.5 20.5t36 44.5t13 77v811l-686 -770v-41q0 -48 13.5 -77t36 -44.5t53.5 -20.5t65 -5h27v-86h-596zM524 1579v121h594v-121h-594z " />
<glyph unicode="&#x4e3;" horiz-adv-x="1409" d="M47 0v86h27q34 0 64.5 4.5t53.5 18.5t36.5 41.5t13.5 72.5v649q0 45 -13.5 72.5t-36.5 42.5t-53.5 20t-64.5 5h-27v86h582v-86h-27q-34 0 -64.5 -4.5t-53.5 -19t-36.5 -42t-13.5 -72.5v-512l541 504v6q0 45 -13.5 72.5t-36.5 42.5t-53.5 20t-64.5 5h-6v86h561v-86h-27 q-34 0 -64.5 -4.5t-53.5 -19t-36.5 -42t-13.5 -72.5v-651q0 -45 13.5 -72.5t36.5 -41.5t53.5 -18.5t64.5 -4.5h27v-86h-582v86h27q34 0 64.5 4.5t53.5 18.5t36.5 41.5t13.5 72.5v510l-541 -500v-10q0 -45 13.5 -72.5t36.5 -41.5t53.5 -18.5t64.5 -4.5h27v-86h-582zM408 1241 v121h594v-121h-594z" />
<glyph unicode="&#x4e4;" horiz-adv-x="1645" d="M78 0v86h26q35 0 65.5 5t53.5 20.5t36 44.5t13 77v1004q0 45 -13.5 72.5t-36.5 42.5t-53.5 19.5t-64.5 4.5h-26v86h596v-86h-27q-34 0 -65 -5t-53.5 -20.5t-36 -44.5t-13.5 -77v-811l686 770v41q0 48 -13 77t-36 44.5t-53.5 20.5t-65.5 5h-26v86h596v-86h-27 q-34 0 -65 -5t-53.5 -20.5t-36 -44.5t-13.5 -77v-1006q0 -45 13.5 -72.5t36.5 -41.5t53.5 -18.5t64.5 -4.5h27v-86h-596v86h26q35 0 65.5 5t53.5 20.5t36 44.5t13 77v811l-686 -770v-41q0 -48 13.5 -77t36 -44.5t53.5 -20.5t65 -5h27v-86h-596zM522 1747q0 32 8 54t22 35.5 t33 19.5t41 6t41 -6t33.5 -19.5t22.5 -35.5t8 -54q0 -31 -8 -53t-22.5 -36t-33.5 -20t-41 -6q-45 0 -74.5 26t-29.5 89zM911 1747q0 32 8 54t22 35.5t33 19.5t41 6t41 -6t33.5 -19.5t22.5 -35.5t8 -54q0 -31 -8 -53t-22.5 -36t-33.5 -20t-41 -6q-45 0 -74.5 26t-29.5 89z " />
<glyph unicode="&#x4e5;" horiz-adv-x="1409" d="M47 0v86h27q34 0 64.5 4.5t53.5 18.5t36.5 41.5t13.5 72.5v649q0 45 -13.5 72.5t-36.5 42.5t-53.5 20t-64.5 5h-27v86h582v-86h-27q-34 0 -64.5 -4.5t-53.5 -19t-36.5 -42t-13.5 -72.5v-512l541 504v6q0 45 -13.5 72.5t-36.5 42.5t-53.5 20t-64.5 5h-6v86h561v-86h-27 q-34 0 -64.5 -4.5t-53.5 -19t-36.5 -42t-13.5 -72.5v-651q0 -45 13.5 -72.5t36.5 -41.5t53.5 -18.5t64.5 -4.5h27v-86h-582v86h27q34 0 64.5 4.5t53.5 18.5t36.5 41.5t13.5 72.5v510l-541 -500v-10q0 -45 13.5 -72.5t36.5 -41.5t53.5 -18.5t64.5 -4.5h27v-86h-582zM406 1409 q0 32 8 54t22 35.5t33 19.5t41 6t41 -6t33.5 -19.5t22.5 -35.5t8 -54q0 -31 -8 -53t-22.5 -36t-33.5 -20t-41 -6q-45 0 -74.5 26t-29.5 89zM795 1409q0 32 8 54t22 35.5t33 19.5t41 6t41 -6t33.5 -19.5t22.5 -35.5t8 -54q0 -31 -8 -53t-22.5 -36t-33.5 -20t-41 -6 q-45 0 -74.5 26t-29.5 89z" />
<glyph unicode="&#x4e6;" horiz-adv-x="1520" d="M115 735q0 170 40 308.5t120 236.5t202 151.5t285 53.5q155 0 274 -53.5t201 -152t124 -237t42 -309.5q0 -169 -42 -308t-124 -238t-202 -153t-275 -54q-163 0 -284 54t-201 153t-120 238.5t-40 309.5zM342 733q0 -152 22.5 -271.5t72.5 -202t129.5 -126t193.5 -43.5 t193.5 43.5t129 126t71.5 202t22 271.5t-22 271.5t-71.5 201.5t-128 125t-192.5 43t-194 -43t-130.5 -125t-73 -201.5t-22.5 -271.5zM455 1747q0 32 8 54t22 35.5t33 19.5t41 6t41 -6t33.5 -19.5t22.5 -35.5t8 -54q0 -31 -8 -53t-22.5 -36t-33.5 -20t-41 -6q-45 0 -74.5 26 t-29.5 89zM844 1747q0 32 8 54t22 35.5t33 19.5t41 6t41 -6t33.5 -19.5t22.5 -35.5t8 -54q0 -31 -8 -53t-22.5 -36t-33.5 -20t-41 -6q-45 0 -74.5 26t-29.5 89z" />
<glyph unicode="&#x4e7;" horiz-adv-x="1182" d="M113 551q0 287 121.5 427t359.5 140q111 0 199 -34.5t149.5 -105t94 -177t32.5 -250.5q0 -289 -122.5 -430t-358.5 -141q-111 0 -199 35t-149.5 106t-94 178.5t-32.5 251.5zM311 551q0 -114 15 -201t48.5 -145.5t87 -88.5t130.5 -30t130 30t86 88.5t47.5 145.5t14.5 201 t-15 200t-48 143.5t-86.5 86.5t-130.5 29t-130 -29t-86 -86.5t-48 -143.5t-15 -200zM284 1409q0 32 8 54t22 35.5t33 19.5t41 6t41 -6t33.5 -19.5t22.5 -35.5t8 -54q0 -31 -8 -53t-22.5 -36t-33.5 -20t-41 -6q-45 0 -74.5 26t-29.5 89zM673 1409q0 32 8 54t22 35.5t33 19.5 t41 6t41 -6t33.5 -19.5t22.5 -35.5t8 -54q0 -31 -8 -53t-22.5 -36t-33.5 -20t-41 -6q-45 0 -74.5 26t-29.5 89z" />
<glyph unicode="&#x4e8;" horiz-adv-x="1520" d="M115 735q0 357 167.5 553.5t479.5 196.5q299 0 470 -200.5t171 -551.5q0 -350 -171.5 -551.5t-471.5 -201.5q-311 0 -478 199.5t-167 555.5zM340 713q7 -623 420 -623q408 0 418 623h-838zM342 815h834q-25 559 -414 559q-399 0 -420 -559z" />
<glyph unicode="&#x4e9;" horiz-adv-x="1182" d="M113 551q0 567 481 567q475 0 475 -567q0 -571 -481 -571q-475 0 -475 571zM309 518q9 -432 283 -432q271 0 280 432h-563zM311 621h559q-18 389 -280 389t-279 -389z" />
<glyph unicode="&#x4ea;" horiz-adv-x="1520" d="M115 735q0 357 167.5 553.5t479.5 196.5q299 0 470 -200.5t171 -551.5q0 -350 -171.5 -551.5t-471.5 -201.5q-311 0 -478 199.5t-167 555.5zM340 713q7 -623 420 -623q408 0 418 623h-838zM342 815h834q-25 559 -414 559q-399 0 -420 -559zM461 1747q0 32 8 54t22 35.5 t33 19.5t41 6t41 -6t33.5 -19.5t22.5 -35.5t8 -54q0 -31 -8 -53t-22.5 -36t-33.5 -20t-41 -6q-45 0 -74.5 26t-29.5 89zM850 1747q0 32 8 54t22 35.5t33 19.5t41 6t41 -6t33.5 -19.5t22.5 -35.5t8 -54q0 -31 -8 -53t-22.5 -36t-33.5 -20t-41 -6q-45 0 -74.5 26t-29.5 89z " />
<glyph unicode="&#x4eb;" horiz-adv-x="1182" d="M113 551q0 567 481 567q475 0 475 -567q0 -571 -481 -571q-475 0 -475 571zM309 518q9 -432 283 -432q271 0 280 432h-563zM311 621h559q-18 389 -280 389t-279 -389zM291 1409q0 32 8 54t22 35.5t33 19.5t41 6t41 -6t33.5 -19.5t22.5 -35.5t8 -54q0 -31 -8 -53 t-22.5 -36t-33.5 -20t-41 -6q-45 0 -74.5 26t-29.5 89zM680 1409q0 32 8 54t22 35.5t33 19.5t41 6t41 -6t33.5 -19.5t22.5 -35.5t8 -54q0 -31 -8 -53t-22.5 -36t-33.5 -20t-41 -6q-45 0 -74.5 26t-29.5 89z" />
<glyph unicode="&#x4ec;" horiz-adv-x="1255" d="M92 231q0 76 46 114t126 38q0 -54 15 -106.5t47.5 -94.5t84 -68t124.5 -26q93 0 162 45.5t115.5 126t70.5 190.5t28 238h-565v100h565q-4 141 -25 250t-63 183.5t-107.5 113.5t-158.5 39q-67 0 -118.5 -23.5t-86.5 -62.5t-53 -89.5t-18 -104.5q-76 0 -122 33t-46 96 q0 51 27.5 98t83 83t139.5 57.5t198 21.5q136 0 243.5 -47.5t181.5 -141t113.5 -232t39.5 -319.5q0 -173 -40.5 -314t-118 -241t-191 -154t-259.5 -54q-125 0 -209 23t-135 59t-72.5 80.5t-21.5 88.5zM293 1747q0 32 8 54t22 35.5t33 19.5t41 6t41 -6t33.5 -19.5t22.5 -35.5 t8 -54q0 -31 -8 -53t-22.5 -36t-33.5 -20t-41 -6q-45 0 -74.5 26t-29.5 89zM682 1747q0 32 8 54t22 35.5t33 19.5t41 6t41 -6t33.5 -19.5t22.5 -35.5t8 -54q0 -31 -8 -53t-22.5 -36t-33.5 -20t-41 -6q-45 0 -74.5 26t-29.5 89z" />
<glyph unicode="&#x4ed;" horiz-adv-x="1006" d="M82 201q0 131 151 131q0 -54 11.5 -100t37 -80t65.5 -53t97 -19q121 0 180.5 106t67.5 314h-454v110h454q-4 117 -23 195t-51 125t-75 66.5t-94 19.5q-46 0 -82.5 -16t-61.5 -45t-38 -68.5t-13 -87.5q-71 0 -110.5 27.5t-39.5 88.5q0 35 19 71t61.5 65.5t110.5 48 t166 18.5q100 0 180 -31.5t136 -99.5t86 -174t30 -256q0 -156 -33.5 -265.5t-93.5 -179t-142.5 -101t-181.5 -31.5q-110 0 -179.5 21t-110 53.5t-55.5 71.5t-15 75zM190 1409q0 32 8 54t22 35.5t33 19.5t41 6t41 -6t33.5 -19.5t22.5 -35.5t8 -54q0 -31 -8 -53t-22.5 -36 t-33.5 -20t-41 -6q-45 0 -74.5 26t-29.5 89zM579 1409q0 32 8 54t22 35.5t33 19.5t41 6t41 -6t33.5 -19.5t22.5 -35.5t8 -54q0 -31 -8 -53t-22.5 -36t-33.5 -20t-41 -6q-45 0 -74.5 26t-29.5 89z" />
<glyph unicode="&#x4ee;" horiz-adv-x="1372" d="M0 1376v86h573v-86h-32q-62 0 -92.5 -23.5t-30.5 -74.5q0 -17 4 -35t12 -41l225 -485q35 -72 60.5 -144t42.5 -135q7 32 16.5 63t21 63t25.5 67.5t31 77.5l193 479q9 25 13.5 48t4.5 40q0 53 -33.5 76.5t-101.5 23.5h-43v86h493v-86h-39q-30 0 -50.5 -6.5t-37 -24.5 t-32 -49t-35.5 -79l-346 -842q-33 -80 -62 -139.5t-58.5 -101t-63 -68t-76.5 -41t-98 -20t-128 -5.5h-149v96h112q52 0 101.5 15t92 42.5t75 65.5t49.5 84l-465 965q-15 31 -28 51.5t-29.5 33t-37 18t-50.5 5.5h-27zM430 1579v121h594v-121h-594z" />
<glyph unicode="&#x4ef;" horiz-adv-x="1157" d="M8 1012v86h492v-86h-6q-62 0 -92.5 -24t-30.5 -75q0 -17 3.5 -34.5t12.5 -40.5l150 -365q14 -35 29.5 -76.5t29 -82t24.5 -76.5t15 -62h6q11 45 30.5 109.5t45.5 138.5l137 399q9 25 13.5 48t4.5 40q0 53 -33.5 77t-101.5 24h-6v86h426v-86h-6q-30 0 -51.5 -6.5 t-39 -24.5t-32.5 -49t-33 -80l-311 -860q-36 -99 -68 -174t-67 -128.5t-76.5 -88.5t-94.5 -56t-122 -29t-160 -8h-18v97q104 0 179 31t129.5 85t91 127.5t61.5 159.5l-379 895q-14 32 -27 52.5t-29.5 33.5t-38 18t-51.5 5h-6zM317 1241v121h594v-121h-594z" />
<glyph unicode="&#x4f0;" horiz-adv-x="1372" d="M0 1376v86h573v-86h-32q-62 0 -92.5 -23.5t-30.5 -74.5q0 -17 4 -35t12 -41l225 -485q35 -72 60.5 -144t42.5 -135q7 32 16.5 63t21 63t25.5 67.5t31 77.5l193 479q9 25 13.5 48t4.5 40q0 53 -33.5 76.5t-101.5 23.5h-43v86h493v-86h-39q-30 0 -50.5 -6.5t-37 -24.5 t-32 -49t-35.5 -79l-346 -842q-33 -80 -62 -139.5t-58.5 -101t-63 -68t-76.5 -41t-98 -20t-128 -5.5h-149v96h112q52 0 101.5 15t92 42.5t75 65.5t49.5 84l-465 965q-15 31 -28 51.5t-29.5 33t-37 18t-50.5 5.5h-27zM432 1747q0 32 8 54t22 35.5t33 19.5t41 6t41 -6 t33.5 -19.5t22.5 -35.5t8 -54q0 -31 -8 -53t-22.5 -36t-33.5 -20t-41 -6q-45 0 -74.5 26t-29.5 89zM821 1747q0 32 8 54t22 35.5t33 19.5t41 6t41 -6t33.5 -19.5t22.5 -35.5t8 -54q0 -31 -8 -53t-22.5 -36t-33.5 -20t-41 -6q-45 0 -74.5 26t-29.5 89z" />
<glyph unicode="&#x4f1;" horiz-adv-x="1157" d="M8 1012v86h492v-86h-6q-62 0 -92.5 -24t-30.5 -75q0 -17 3.5 -34.5t12.5 -40.5l150 -365q14 -35 29.5 -76.5t29 -82t24.5 -76.5t15 -62h6q11 45 30.5 109.5t45.5 138.5l137 399q9 25 13.5 48t4.5 40q0 53 -33.5 77t-101.5 24h-6v86h426v-86h-6q-30 0 -51.5 -6.5 t-39 -24.5t-32.5 -49t-33 -80l-311 -860q-36 -99 -68 -174t-67 -128.5t-76.5 -88.5t-94.5 -56t-122 -29t-160 -8h-18v97q104 0 179 31t129.5 85t91 127.5t61.5 159.5l-379 895q-14 32 -27 52.5t-29.5 33.5t-38 18t-51.5 5h-6zM320 1409q0 32 8 54t22 35.5t33 19.5t41 6 t41 -6t33.5 -19.5t22.5 -35.5t8 -54q0 -31 -8 -53t-22.5 -36t-33.5 -20t-41 -6q-45 0 -74.5 26t-29.5 89zM709 1409q0 32 8 54t22 35.5t33 19.5t41 6t41 -6t33.5 -19.5t22.5 -35.5t8 -54q0 -31 -8 -53t-22.5 -36t-33.5 -20t-41 -6q-45 0 -74.5 26t-29.5 89z" />
<glyph unicode="&#x4f2;" horiz-adv-x="1372" d="M0 1376v86h573v-86h-32q-62 0 -92.5 -23.5t-30.5 -74.5q0 -17 4 -35t12 -41l225 -485q35 -72 60.5 -144t42.5 -135q7 32 16.5 63t21 63t25.5 67.5t31 77.5l193 479q9 25 13.5 48t4.5 40q0 53 -33.5 76.5t-101.5 23.5h-43v86h493v-86h-39q-30 0 -50.5 -6.5t-37 -24.5 t-32 -49t-35.5 -79l-346 -842q-33 -80 -62 -139.5t-58.5 -101t-63 -68t-76.5 -41t-98 -20t-128 -5.5h-149v96h112q52 0 101.5 15t92 42.5t75 65.5t49.5 84l-465 965q-15 31 -28 51.5t-29.5 33t-37 18t-50.5 5.5h-27zM414 1579v27q21 33 45 71t47.5 78t44.5 79t37 73h219v-21 q-11 -18 -30.5 -42.5t-44.5 -52.5t-53.5 -57.5t-57.5 -57.5t-56.5 -53t-50.5 -44h-100zM783 1579v27q21 33 45 71t47.5 78t44.5 79t37 73h219v-21q-11 -18 -30.5 -42.5t-44.5 -52.5t-53.5 -57.5t-57.5 -57.5t-56.5 -53t-50.5 -44h-100z" />
<glyph unicode="&#x4f3;" horiz-adv-x="1157" d="M8 1012v86h492v-86h-6q-62 0 -92.5 -24t-30.5 -75q0 -17 3.5 -34.5t12.5 -40.5l150 -365q14 -35 29.5 -76.5t29 -82t24.5 -76.5t15 -62h6q11 45 30.5 109.5t45.5 138.5l137 399q9 25 13.5 48t4.5 40q0 53 -33.5 77t-101.5 24h-6v86h426v-86h-6q-30 0 -51.5 -6.5 t-39 -24.5t-32.5 -49t-33 -80l-311 -860q-36 -99 -68 -174t-67 -128.5t-76.5 -88.5t-94.5 -56t-122 -29t-160 -8h-18v97q104 0 179 31t129.5 85t91 127.5t61.5 159.5l-379 895q-14 32 -27 52.5t-29.5 33.5t-38 18t-51.5 5h-6zM332 1241v27q21 33 45 71t47.5 78t44.5 79 t37 73h219v-21q-11 -18 -30.5 -42.5t-44.5 -52.5t-53.5 -57.5t-57.5 -57.5t-56.5 -53t-50.5 -44h-100zM701 1241v27q21 33 45 71t47.5 78t44.5 79t37 73h219v-21q-11 -18 -30.5 -42.5t-44.5 -52.5t-53.5 -57.5t-57.5 -57.5t-56.5 -53t-50.5 -44h-100z" />
<glyph unicode="&#x4f4;" horiz-adv-x="1548" d="M43 1376v86h596v-86h-27q-34 0 -65 -5t-53.5 -20.5t-36 -44.5t-13.5 -77v-320q0 -125 64 -183t176 -58q51 0 97 7t92.5 20.5t94 33.5t101.5 45v455q0 48 -13.5 77t-36 44.5t-53 20.5t-65.5 5h-27v86h596v-86h-26q-34 0 -65 -5t-53.5 -20.5t-36 -44.5t-13.5 -77v-1006 q0 -45 13.5 -72.5t36.5 -41.5t53.5 -18.5t64.5 -4.5h26v-86h-596v86h27q35 0 65.5 5t53 20.5t36 44.5t13.5 77v431q-55 -27 -105 -50t-102.5 -40.5t-111.5 -27t-132 -9.5q-188 0 -284 92.5t-96 277.5v330q0 45 -13.5 72.5t-36.5 42.5t-53.5 19.5t-64.5 4.5h-27zM475 1747 q0 32 8 54t22 35.5t33 19.5t41 6t41 -6t33.5 -19.5t22.5 -35.5t8 -54q0 -31 -8 -53t-22.5 -36t-33.5 -20t-41 -6q-45 0 -74.5 26t-29.5 89zM864 1747q0 32 8 54t22 35.5t33 19.5t41 6t41 -6t33.5 -19.5t22.5 -35.5t8 -54q0 -31 -8 -53t-22.5 -36t-33.5 -20t-41 -6 q-45 0 -74.5 26t-29.5 89z" />
<glyph unicode="&#x4f5;" horiz-adv-x="1311" d="M31 1012v86h540v-86h-6q-34 0 -64.5 -4.5t-53.5 -19t-36.5 -42t-13.5 -72.5v-215q0 -71 41.5 -109t122.5 -38q39 0 75.5 5t73.5 16t78 28t89 41v270q0 45 -13.5 72.5t-36.5 42.5t-53.5 20t-64.5 5h-7v86h562v-86h-27q-34 0 -64.5 -4.5t-53.5 -19t-36.5 -42t-13.5 -72.5 v-651q0 -45 13.5 -72.5t36.5 -41.5t53.5 -18.5t64.5 -4.5h27v-86h-582v86h27q34 0 64.5 4.5t53.5 18.5t36.5 41.5t13.5 72.5v291q-49 -31 -94 -56t-91 -43t-95 -28t-108 -10q-68 0 -121 18.5t-89 52.5t-55 82.5t-19 108.5v233q0 45 -13.5 72.5t-36.5 42.5t-53.5 20t-64.5 5 h-6zM357 1409q0 32 8 54t22 35.5t33 19.5t41 6t41 -6t33.5 -19.5t22.5 -35.5t8 -54q0 -31 -8 -53t-22.5 -36t-33.5 -20t-41 -6q-45 0 -74.5 26t-29.5 89zM746 1409q0 32 8 54t22 35.5t33 19.5t41 6t41 -6t33.5 -19.5t22.5 -35.5t8 -54q0 -31 -8 -53t-22.5 -36t-33.5 -20 t-41 -6q-45 0 -74.5 26t-29.5 89z" />
<glyph unicode="&#x4f6;" horiz-adv-x="1149" d="M78 0v86h26q168 0 168 147v996q0 147 -168 147h-26v86h1030v-358h-107l-8 72q-12 109 -60 146.5t-145 37.5h-309v-1127q0 -147 158 -147h78v-516h-94q0 430 -316 430h-227z" />
<glyph unicode="&#x4f7;" horiz-adv-x="938" d="M47 0v86h27q168 0 168 137v649q0 140 -168 140h-27v86h850v-328h-100l-11 68q-17 106 -47.5 136t-95.5 30h-209v-775q0 -130 148 -135h67v-524h-100l-10 149q-19 281 -199 281h-293z" />
<glyph unicode="&#x4f8;" horiz-adv-x="1858" d="M78 0v86h26q34 0 64.5 4.5t53.5 19.5t36.5 42.5t13.5 72.5v1004q0 48 -13 77t-36 44.5t-53.5 20.5t-65.5 5h-26v86h637v-86h-68q-34 0 -64.5 -4.5t-53.5 -18.5t-36.5 -41.5t-13.5 -72.5v-430h88q149 0 253 -29.5t170 -83t96 -127.5t30 -163q0 -90 -30.5 -164.5 t-92.5 -128.5t-157 -83.5t-224 -29.5h-534zM479 98h99q87 0 147 18.5t98 55t55 92.5t17 131q0 86 -19.5 146.5t-61.5 98.5t-108 55.5t-159 17.5h-68v-615zM1184 0v86h26q35 0 65.5 5t53.5 20.5t36 44.5t13 77v996q0 48 -13 77t-36 44.5t-53.5 20.5t-65.5 5h-26v86h596v-86 h-27q-34 0 -65 -5t-53.5 -20.5t-36 -44.5t-13.5 -77v-996q0 -48 13.5 -77t36 -44.5t53.5 -20.5t65 -5h27v-86h-596zM629 1747q0 32 8 54t22 35.5t33 19.5t41 6t41 -6t33.5 -19.5t22.5 -35.5t8 -54q0 -31 -8 -53t-22.5 -36t-33.5 -20t-41 -6q-45 0 -74.5 26t-29.5 89z M1018 1747q0 32 8 54t22 35.5t33 19.5t41 6t41 -6t33.5 -19.5t22.5 -35.5t8 -54q0 -31 -8 -53t-22.5 -36t-33.5 -20t-41 -6q-45 0 -74.5 26t-29.5 89z" />
<glyph unicode="&#x4f9;" horiz-adv-x="1692" d="M47 0v86h27q34 0 64.5 4.5t53.5 18.5t36.5 41.5t13.5 72.5v649q0 45 -13.5 72.5t-36.5 42.5t-53.5 20t-64.5 5h-27v86h582v-86h-27q-34 0 -64.5 -5t-53.5 -20t-36.5 -42.5t-13.5 -72.5v-262h137q95 0 180.5 -11t150.5 -43t103.5 -90t38.5 -153q0 -67 -26 -124.5 t-78.5 -99.5t-132 -65.5t-186.5 -23.5h-574zM434 94h148q68 0 116.5 12.5t79.5 40t45.5 71.5t14.5 106q0 104 -70 148t-199 44h-135v-422zM1083 0v86h7q34 0 64 4.5t53 18.5t36.5 41.5t13.5 72.5v649q0 45 -13.5 72.5t-36.5 42.5t-53 20t-64 5h-7v86h541v-86h-6 q-34 0 -64.5 -4.5t-53.5 -19t-36.5 -42t-13.5 -72.5v-651q0 -45 13.5 -72.5t36.5 -41.5t53.5 -18.5t64.5 -4.5h6v-86h-541zM547 1409q0 32 8 54t22 35.5t33 19.5t41 6t41 -6t33.5 -19.5t22.5 -35.5t8 -54q0 -31 -8 -53t-22.5 -36t-33.5 -20t-41 -6q-45 0 -74.5 26t-29.5 89z M936 1409q0 32 8 54t22 35.5t33 19.5t41 6t41 -6t33.5 -19.5t22.5 -35.5t8 -54q0 -31 -8 -53t-22.5 -36t-33.5 -20t-41 -6q-45 0 -74.5 26t-29.5 89z" />
<glyph unicode="&#x4fa;" horiz-adv-x="1149" d="M47 705v100h225v424q0 147 -168 147h-26v86h1018l12 -358h-107l-8 72q-12 107 -58.5 145.5t-146.5 38.5h-309v-555h318v-100h-318v-480q0 -139 168 -139h68v-86h-637v86h26q168 0 168 147v472h-225zM346 -291q0 45 31 76q47 -33 106 -33q117 0 117 148v186h115v-186 q0 -303 -213 -303q-156 0 -156 112z" />
<glyph unicode="&#x4fb;" horiz-adv-x="938" d="M47 0v86h27q168 0 168 137v285h-195v96h195v268q0 140 -168 140h-27v86h850v-328h-100l-11 68q-17 106 -47.5 136t-95.5 30h-209v-400h240v-96h-240v-285q0 -137 168 -137h47v-86h-602zM280 -291q0 45 31 76q47 -33 106 -33q117 0 117 148v186h115v-186q0 -303 -213 -303 q-156 0 -156 112z" />
<glyph unicode="&#x4fc;" horiz-adv-x="1352" d="M16 0v86h13q37 0 64.5 7.5t51 24.5t46.5 44t51 67l342 490l-338 549q-37 59 -83.5 83.5t-92.5 24.5h-27v86h555v-86h-6q-35 0 -58 -4.5t-36 -12.5t-18 -19t-5 -23q0 -11 1.5 -21t6.5 -23.5t14.5 -31.5t26.5 -45l185 -299l194 295q23 35 37 66t14 59q0 18 -8.5 29.5 t-23 18t-34.5 9t-44 2.5h-6v86h448v-86h-18q-30 0 -54.5 -7t-47.5 -24.5t-47.5 -45.5t-53.5 -70l-297 -428l377 -606q45 -60 85 -84.5t79 -24.5h26v-86h-553v86h11q122 0 122 68q0 11 -2.5 22t-9.5 26t-20.5 37t-34.5 56l-203 326l-227 -336q-9 -13 -18 -29.5t-17 -34.5 t-13 -36.5t-5 -34.5q0 -35 32.5 -49.5t100.5 -14.5h6v-86h-488zM967 -291q0 45 31 76q47 -33 106 -33q117 0 117 148v186h115v-186q0 -303 -213 -303q-156 0 -156 112z" />
<glyph unicode="&#x4fd;" horiz-adv-x="1184" d="M10 0v86h19q37 0 65 6t53 21t50 40.5t55 63.5l258 334l-258 352q-45 53 -87.5 81t-88.5 28h-27v86h520v-86h-6q-35 0 -58 -4.5t-36 -13t-18 -19.5t-5 -23q0 -21 12.5 -41.5t35.5 -52.5l135 -184l106 153q23 35 37 66t14 59q0 37 -31.5 48.5t-78.5 11.5h-6v86h448v-86h-18 q-30 0 -54.5 -5t-48 -19t-48.5 -40t-56 -67l-211 -281l301 -405q45 -60 85.5 -84.5t78.5 -24.5h27v-86h-529v86h10q123 0 123 68q0 11 -3 22.5t-12 27t-24 37.5t-39 54l-137 184l-143 -200q-9 -12 -19 -28t-18 -33t-13 -34.5t-5 -33.5q0 -35 29 -49.5t98 -14.5h6v-86h-488z M805 -291q0 45 31 76q47 -33 106 -33q117 0 117 148v186h115v-186q0 -303 -213 -303q-156 0 -156 112z" />
<glyph unicode="&#x4fe;" horiz-adv-x="1352" d="M16 0v86h13q66 0 108 26.5t105 116.5l340 488h-414v100h356l-278 451q-67 108 -176 108h-27v86h555v-86h-6q-117 0 -117 -59q0 -43 49 -121l185 -299l194 295q51 78 51 125q0 59 -110 59h-6v86h448v-86h-18q-101 0 -203 -147l-287 -412h426v-100h-385l326 -522 q68 -109 164 -109h26v-86h-553v86h11q122 0 122 68q0 33 -67 141l-203 326l-227 -336q-53 -78 -53 -135q0 -64 133 -64h6v-86h-488z" />
<glyph unicode="&#x4ff;" horiz-adv-x="1184" d="M10 0v86h19q73 0 117 26t106 105l258 334l-2 2h-352v96h282l-186 254q-80 109 -176 109h-27v86h520v-86h-6q-117 0 -117 -60q0 -27 48 -94l135 -184l106 153q51 74 51 125q0 60 -110 60h-6v86h448v-86h-18q-69 0 -109.5 -28t-97.5 -103l-174 -232h332v-96h-334l266 -358 q81 -109 164 -109h27v-86h-529v86h10q123 0 123 68q0 37 -78 141l-137 184l-143 -200q-55 -77 -55 -129q0 -64 127 -64h6v-86h-488z" />
<glyph unicode="&#x2000;" horiz-adv-x="1052" />
<glyph unicode="&#x2001;" horiz-adv-x="2105" />
<glyph unicode="&#x2002;" horiz-adv-x="1052" />
<glyph unicode="&#x2003;" horiz-adv-x="2105" />
<glyph unicode="&#x2004;" horiz-adv-x="701" />
<glyph unicode="&#x2005;" horiz-adv-x="526" />
<glyph unicode="&#x2006;" horiz-adv-x="350" />
<glyph unicode="&#x2007;" horiz-adv-x="350" />
<glyph unicode="&#x2008;" horiz-adv-x="263" />
<glyph unicode="&#x2009;" horiz-adv-x="421" />
<glyph unicode="&#x200a;" horiz-adv-x="116" />
<glyph unicode="&#x2010;" horiz-adv-x="635" d="M51 481v154h533v-154h-533z" />
<glyph unicode="&#x2011;" horiz-adv-x="635" d="M51 481v154h533v-154h-533z" />
<glyph unicode="&#x2012;" horiz-adv-x="635" d="M51 481v154h533v-154h-533z" />
<glyph unicode="&#x2013;" horiz-adv-x="1024" d="M-10 489v121h1044v-121h-1044z" />
<glyph unicode="&#x2014;" horiz-adv-x="2048" d="M-10 489v121h2068v-121h-2068z" />
<glyph unicode="&#x2018;" horiz-adv-x="512" d="M115 1063q0 65 18 126t58.5 113t104.5 93.5t155 68.5v-86q-101 -32 -148 -78t-47 -106q0 -20 11 -33.5t28 -24t36 -20.5t36 -24t28 -34.5t11 -51.5q0 -59 -38.5 -90t-95.5 -31q-31 0 -59.5 11.5t-50.5 34t-34.5 56t-12.5 76.5z" />
<glyph unicode="&#x2019;" horiz-adv-x="512" d="M61 883v86q101 32 148 78t47 106q0 20 -11 33.5t-28 24t-36 20.5t-36 24t-28 34.5t-11 51.5q0 59 38.5 90t95.5 31q32 0 60 -11.5t50 -34t34.5 -56t12.5 -76.5q0 -65 -18 -126t-58.5 -113t-104 -93.5t-155.5 -68.5z" />
<glyph unicode="&#x201a;" horiz-adv-x="512" d="M61 -229q101 32 148 78t47 106q0 20 -11 33.5t-28 24t-36 20.5t-36 24t-28 34.5t-11 51.5q0 59 38.5 90t95.5 31q32 0 60 -11.5t50 -34t34.5 -56t12.5 -76.5q0 -65 -18 -126t-58.5 -113t-104 -93.5t-155.5 -68.5v86z" />
<glyph unicode="&#x201c;" horiz-adv-x="922" d="M115 1063q0 65 18 126t58.5 113t104.5 93.5t155 68.5v-86q-101 -32 -148 -78t-47 -106q0 -20 11 -33.5t28 -24t36 -20.5t36 -24t28 -34.5t11 -51.5q0 -59 -38.5 -90t-95.5 -31q-31 0 -59.5 11.5t-50.5 34t-34.5 56t-12.5 76.5zM524 1063q0 65 18 126t58.5 113t104.5 93.5 t155 68.5v-86q-100 -32 -147 -78t-47 -106q0 -20 11 -33.5t27.5 -24t36 -20.5t36 -24t27.5 -34.5t11 -51.5q0 -59 -38 -90t-95 -31q-31 0 -60 11.5t-50.5 34t-34.5 56t-13 76.5z" />
<glyph unicode="&#x201d;" horiz-adv-x="922" d="M61 883v86q101 32 148 78t47 106q0 20 -11 33.5t-28 24t-36 20.5t-36 24t-28 34.5t-11 51.5q0 59 38.5 90t95.5 31q32 0 60 -11.5t50 -34t34.5 -56t12.5 -76.5q0 -65 -18 -126t-58.5 -113t-104 -93.5t-155.5 -68.5zM471 883v86q100 32 147.5 78t47.5 106q0 20 -11 33.5 t-28 24t-36 20.5t-36 24t-28 34.5t-11 51.5q0 59 38 90t95 31q32 0 60.5 -11.5t50 -34t34.5 -56t13 -76.5q0 -65 -18 -126t-58.5 -113t-104 -93.5t-155.5 -68.5z" />
<glyph unicode="&#x201e;" horiz-adv-x="922" d="M61 -229q101 32 148 78t47 106q0 20 -11 33.5t-28 24t-36 20.5t-36 24t-28 34.5t-11 51.5q0 59 38.5 90t95.5 31q32 0 60 -11.5t50 -34t34.5 -56t12.5 -76.5q0 -65 -18 -126t-58.5 -113t-104 -93.5t-155.5 -68.5v86zM471 -229q100 32 147.5 78t47.5 106q0 20 -11 33.5 t-28 24t-36 20.5t-36 24t-28 34.5t-11 51.5q0 59 38 90t95 31q32 0 60.5 -11.5t50 -34t34.5 -56t13 -76.5q0 -65 -18 -126t-58.5 -113t-104 -93.5t-155.5 -68.5v86z" />
<glyph unicode="&#x2026;" horiz-adv-x="1757" d="M164 125q0 40 10 66.5t27.5 42.5t41 23t50.5 7q26 0 49.5 -7t41 -23t28 -42.5t10.5 -66.5q0 -39 -10.5 -66t-28 -43t-41 -23t-49.5 -7q-27 0 -50.5 7t-41 23t-27.5 43t-10 66zM750 125q0 40 10 66.5t27.5 42.5t41 23t50.5 7q26 0 49.5 -7t41 -23t28 -42.5t10.5 -66.5 q0 -39 -10.5 -66t-28 -43t-41 -23t-49.5 -7q-27 0 -50.5 7t-41 23t-27.5 43t-10 66zM1335 125q0 40 10 66.5t27.5 42.5t41 23t50.5 7q26 0 49.5 -7t41 -23t28 -42.5t10.5 -66.5q0 -39 -10.5 -66t-28 -43t-41 -23t-49.5 -7q-27 0 -50.5 7t-41 23t-27.5 43t-10 66z" />
<glyph unicode="&#x202f;" horiz-adv-x="421" />
<glyph unicode="&#x2039;" horiz-adv-x="682" d="M133 520v66l313 356h103l-207 -389l207 -389h-103z" />
<glyph unicode="&#x203a;" horiz-adv-x="682" d="M135 164l207 389l-207 389h103l313 -356v-66l-313 -356h-103z" />
<glyph unicode="&#x205f;" horiz-adv-x="526" />
<glyph unicode="&#x20ac;" d="M84 547v96h141q-2 23 -3 50t-1 48v45h-137v97h145q14 171 59.5 285.5t114 183.5t155 98t181.5 29q78 0 141.5 -15.5t109 -43t70.5 -65.5t25 -83q0 -71 -45.5 -100t-132.5 -29q0 48 -10 91t-32 75t-57.5 50.5t-86.5 18.5q-53 0 -102 -23t-88.5 -80t-67 -152.5 t-37.5 -239.5h430v-97h-434v-49v-48q0 -27 2 -46h350v-96h-342q13 -109 42.5 -192.5t73.5 -140t101.5 -85.5t126.5 -29q52 0 92.5 10t71.5 27t54.5 39.5t41.5 46.5q13 -8 25 -23t12 -46q0 -27 -18.5 -57.5t-56.5 -56.5t-96 -43t-138 -17q-96 0 -184 30.5t-159 98t-120 175.5 t-68 263h-149z" />
<glyph unicode="&#x2122;" horiz-adv-x="1710" d="M55 1276l6 186h598l7 -186h-60l-8 49q-4 29 -21 50t-61 22h-94v-525q0 -21 6.5 -33t17 -19t25 -9t29.5 -2h32v-55h-348v55h35q15 0 29 2t24.5 8t16.5 17.5t6 29.5v531h-90q-22 -1 -37 -6.5t-24 -15.5t-14 -22.5t-7 -27.5l-8 -49h-60zM700 754v55h21q31 0 54.5 10t25.5 47 v482q-1 19 -7.5 30.5t-17.5 17.5t-25.5 7.5t-29.5 1.5h-21v57h236l225 -567l232 567h231v-57h-22q-17 0 -31.5 -2t-25 -8t-16 -18.5t-5.5 -33.5v-471q0 -21 5.5 -33t16 -19t25 -9t31.5 -2h22v-55h-303v55q35 0 56 10t24 45v457l-232 -567h-71l-232 569v-451q0 -41 21 -52 t61 -11v-55h-248z" />
<glyph unicode="&#xe000;" horiz-adv-x="1100" d="M0 1100h1100v-1100h-1100v1100z" />
<glyph horiz-adv-x="1182" d="M207 1518h170q5 -57 18.5 -93.5t38.5 -57t63 -28.5t91 -8q44 0 80.5 9.5t63.5 31t44 57.5t23 89h174q-6 -62 -30.5 -113t-71 -87.5t-117 -56.5t-170.5 -20q-103 0 -173 19t-114 55t-64.5 87.5t-25.5 115.5z" />
<glyph horiz-adv-x="420" d="M35 -362q0 29 14 53q45 -17 84 -17q86 0 86 88q0 111 -139 238h108q181 -121 181 -252q0 -194 -201 -194q-133 0 -133 84z" />
<glyph horiz-adv-x="420" d="M6 -291q0 45 31 76q47 -33 106 -33q117 0 117 148v186h115v-186q0 -303 -213 -303q-156 0 -156 112z" />
</font>
</defs>
</svg>
